<?xml version="1.0" encoding="UTF-8" standalone="no"?>
<!DOCTYPE svg PUBLIC "-//W3C//DTD SVG 1.1//EN" "http://www.w3.org/Graphics/SVG/1.1/DTD/svg11.dtd">
<svg width="100%" height="100%" viewBox="0 0 551 277" version="1.1" xmlns="http://www.w3.org/2000/svg" xmlns:xlink="http://www.w3.org/1999/xlink" xml:space="preserve" xmlns:serif="http://www.serif.com/" style="fill-rule:evenodd;clip-rule:evenodd;stroke-linejoin:round;stroke-miterlimit:2;">
    <g transform="matrix(1,0,0,1,-566.525,327.538)">
        <g transform="matrix(0.162496,-0.742996,0.742996,0.162496,505.046,14.1776)">
            <path d="M453.079,671.837L453.081,671.837C453.54,671.89 454,672.007 454.456,671.993C455.587,671.958 456.152,671.117 455.664,670.177C455.405,669.678 455.069,669.187 454.662,668.805C453.823,668.018 452.944,667.265 452.026,666.573C448.453,663.878 446.439,660.218 445.382,655.959C444.967,654.284 444.631,652.588 444.195,650.919C443.265,647.36 442.117,643.847 441.385,640.248C440.646,636.611 439.52,633.131 438.15,629.707C436.867,626.502 435.56,623.307 434.306,620.091C432.421,615.254 430.481,610.452 427.023,606.457C426.256,605.571 425.738,604.528 425.409,603.426C424.618,600.778 423.767,598.101 423.929,595.311C424.111,592.177 422.63,590.06 420.275,588.317C418.315,586.867 416.15,585.804 413.888,584.937C410.665,583.701 407.479,582.393 404.459,580.7C402.441,579.569 400.258,578.842 398.014,578.294C393.65,577.229 389.22,576.516 384.769,575.988C382.149,575.677 379.499,575.369 376.841,575.626C372.242,576.071 367.654,576.068 363.042,575.671C358.758,575.302 354.808,576.324 351.535,579.317C350.176,580.56 348.757,581.741 347.455,583.04C343.936,586.552 340.167,589.764 335.958,592.406C331.814,595.008 327.403,596.888 322.343,596.646C321.317,596.597 320.27,596.555 319.293,597.039C316.154,598.594 313.132,600.405 311.553,603.644C310.576,605.647 309.115,606.584 307.158,607.11C304.052,607.945 300.972,608.904 297.828,609.562C294.772,610.202 292.302,611.733 290.039,613.763C286.887,616.591 284.807,620.132 283.008,623.91C279.514,631.25 277.6,639.06 275.946,646.955C275.852,647.402 275.792,647.868 275.798,648.324C275.822,650.282 277.259,651.476 279.226,651.267C280.348,651.148 281.059,650.422 281.864,649.761C285.275,646.961 289.047,644.828 293.288,643.509C295.82,642.721 298.282,642.827 300.749,643.631C301.62,643.914 302.443,644.345 303.305,644.661C307.729,646.28 312.082,648.151 316.604,649.423C322.022,650.948 327.587,651.962 333.22,652.428C337.15,652.754 341.093,652.773 344.756,651.091C346.809,650.148 348.859,649.692 351.092,649.76C353.523,649.834 355.959,649.652 358.197,648.624C361.442,647.133 364.847,646.96 368.326,647.028C369.782,647.057 371.046,647.488 372.155,648.365C373.148,649.15 374.136,649.959 375.015,650.864C376.602,652.499 377.504,654.336 376.975,656.777C376.44,659.247 376.328,661.807 375.811,664.282C375.007,668.133 376.238,671.138 379.392,673.293C385.712,677.612 392.748,679.406 400.356,678.632C403.208,678.342 406.041,677.736 408.841,677.094C414.227,675.86 419.648,674.865 425.141,674.253C426.869,674.06 428.598,673.97 430.311,674.205C434.54,674.786 438.78,675.111 443.049,675.121C445.381,675.127 447.608,675.552 449.588,676.95C450.323,677.469 451.227,678.038 452.067,678.06C453.604,678.1 454.38,678.977 455.027,680.089C455.602,681.078 456.136,682.113 456.513,683.189C457.149,685.005 458.39,685.743 460.227,685.537C462.653,685.265 465.062,685.491 467.467,685.741C470.785,686.087 474.097,686.489 477.411,686.878C478.897,687.052 480.4,687.157 481.859,687.463C484.16,687.945 486.447,687.896 488.723,687.477C494.261,686.458 499.804,685.447 505.047,683.266C505.786,682.958 506.571,682.686 507.359,682.582C510.317,682.192 513.312,681.605 516.207,682.834C520.549,684.677 524.835,686.617 528.788,689.256C534.531,693.09 540.754,696.151 546.41,700.142C550.192,702.811 554.251,702.243 558.27,700.659C559.414,700.209 559.903,698.944 559.488,697.787C559.336,697.363 559.118,696.936 558.834,696.589C557.93,695.483 557.641,694.376 558.63,693.166C558.773,692.992 558.865,692.769 558.95,692.556C559.535,691.085 559.028,689.809 557.521,689.212C556.784,688.92 555.977,688.73 555.186,688.657C552.268,688.388 549.578,687.404 547.014,686.076C542.706,683.843 538.699,681.149 535.019,677.977C529.784,673.465 524.544,668.959 518.822,665.058C517.289,664.013 515.95,662.758 514.672,661.423C513.557,660.258 512.412,659.123 511.286,657.968C505.338,651.866 498.447,646.737 492.928,640.191C492.78,640.015 492.61,639.856 492.432,639.71C489.177,637.039 486.739,633.719 484.689,630.073C483.958,628.772 483.211,627.443 482.247,626.319C481.106,624.987 480.222,623.53 479.442,621.989C477.26,617.676 475.077,613.363 472.921,609.036C471.735,606.655 470.319,604.439 468.665,602.35C465.366,598.184 461.68,594.38 457.871,590.695C456.422,589.294 455.444,587.709 454.795,585.801C453.87,583.081 452.754,580.424 451.688,577.753C450.268,574.193 448.253,571.008 445.774,568.073C443.473,565.348 441.352,562.469 439.151,559.658C438.068,558.275 437.367,556.734 437.007,555.002C436.14,550.836 435.203,546.685 434.31,542.525C433.817,540.23 433.565,540.323 435.655,539.308C438.424,537.963 439.674,535.706 440.042,532.749C440.334,530.404 439.948,528.156 439.388,525.917C438.992,524.329 438.727,522.739 439.219,521.145C440.678,516.414 442.094,511.663 444.917,507.498C446.272,505.498 447.552,503.445 448.943,501.471C450.223,499.655 451.162,497.718 451.598,495.531C452.251,492.26 452.893,488.985 453.624,485.73C454.389,482.321 454.411,478.878 454.33,475.417C454.278,473.188 453.856,471.033 452.725,469.123C451.65,467.308 451.462,465.488 451.941,463.485C452.892,459.51 452.328,455.739 450.434,452.107C448.412,448.229 446.486,444.3 444.561,440.373C443.235,437.668 441.595,435.187 439.69,432.855C436.41,428.84 433.198,424.76 430.571,420.279C428.097,416.058 424.868,412.489 421.436,409.064C417.913,405.548 413.711,403.265 408.849,402.315C403.989,401.365 399.206,400.166 394.522,398.567C394.196,398.456 393.864,398.36 393.534,398.26C390.838,397.44 388.182,397.361 385.381,398.021C382.142,398.783 378.803,399.206 375.441,398.763C374.338,398.617 374.04,398.081 374.647,397.147C377.396,392.918 378.325,387.985 380.025,383.353C380.258,382.718 380.389,381.991 380.349,381.32C380.129,377.604 380.965,373.992 381.342,370.336C381.436,369.42 381.506,368.499 381.537,367.579C381.593,365.927 381.267,364.375 380.232,363.028C379.953,362.665 379.669,362.297 379.454,361.896C379.241,361.499 379,361.018 379.318,360.61C379.73,360.081 380.14,360.545 380.465,360.787C381.852,361.818 383.209,362.887 384.584,363.933C387.166,365.897 389.936,367.504 393.047,368.504C395.784,369.384 398.516,370.281 401.213,371.272C403.602,372.15 406.05,372.815 408.554,373.14C411.018,373.46 413.218,374.3 415.292,375.608C417.851,377.222 420.654,378.224 423.604,378.86C425.289,379.224 426.945,379.725 428.634,380.064C433.046,380.95 437.47,381.578 442.005,381.06C445.678,380.64 449.375,380.963 453.052,381.148C455.12,381.252 457.077,382.043 459.041,382.716C462.31,383.836 465.643,384.867 469.118,384.922C473.947,384.999 478.795,385.014 483.579,384.182C485.081,383.92 486.514,383.931 488.023,384.138C491.697,384.642 495.451,384.786 498.969,383.547C503.044,382.112 507.118,381.357 511.443,381.554C513.897,381.665 516.196,380.766 518.211,379.307C519.253,378.553 520.287,377.669 520.425,376.344C520.545,375.195 521.195,374.481 521.814,373.659C525.167,369.203 527.927,364.464 528.963,358.874C529.213,357.523 529.752,356.229 530.082,354.89C530.512,353.15 531.399,351.728 532.739,350.545C533.425,349.939 534.09,349.281 534.638,348.552C535.726,347.103 535.87,345.972 535.186,345.089C534.249,343.879 532.959,344.041 531.712,344.322C531.054,344.47 530.405,344.793 529.836,345.165C528.874,345.793 527.94,346.476 527.064,347.218C525.306,348.707 523.569,350.222 521.873,351.78C520.238,353.281 518.44,354.49 516.316,355.165C514.322,355.799 512.537,356.836 510.771,357.927C510.096,358.344 509.534,358.988 508.483,359.09C508.134,358.083 507.734,357.044 507.412,355.981C506.397,352.629 504.807,349.613 502.498,346.953C501.37,345.654 500.331,344.252 499.432,342.786C497.472,339.588 494.97,336.931 491.91,334.79C489.45,333.069 487.146,331.161 484.977,329.089C482.466,326.69 479.707,324.623 476.677,322.926C473.648,321.23 470.849,319.206 468.266,316.902C463.675,312.806 458.58,309.508 453.003,306.923C450.277,305.659 447.694,304.148 445.584,301.952C445.209,301.561 444.626,301.258 444.933,300.368C448.518,299.22 451.387,296.721 454.343,294.351C455.69,293.271 457.042,292.194 458.444,291.188C460.15,289.965 461.628,288.528 462.8,286.794C466.28,281.644 469.8,276.526 472.763,271.039C474.56,267.71 475.482,264.214 475.688,260.491C475.764,259.113 475.698,257.727 475.727,256.345C475.796,253.006 475.625,249.637 476.021,246.337C476.665,240.976 476.081,235.772 474.85,230.586C474.478,229.02 474.041,227.468 473.691,225.897C472.137,218.929 470.308,212.038 467.985,205.285C466.859,202.01 465.486,198.84 463.473,195.995C461.803,193.634 460.402,191.13 459.253,188.48C458.281,186.24 456.973,184.224 455.255,182.476C452.642,179.817 449.397,178.029 446.333,175.994C445.584,175.497 444.79,175.543 444.114,176.173C443.472,176.772 443.246,177.512 443.546,178.37C444.127,180.032 445.128,181.445 446.279,182.738C448.604,185.35 450.342,188.304 451.693,191.516C452.991,194.603 454.581,197.532 456.533,200.264C458.084,202.434 459.177,204.843 460.05,207.357C460.809,209.544 461.776,211.637 463.187,213.481C464.898,215.717 466.046,218.228 466.714,220.923C468.358,227.554 469.208,234.275 468.352,241.109C467.591,247.184 467.254,253.276 467.653,259.383C468.075,265.846 465.788,271.322 461.871,276.267C460.943,277.439 459.866,278.521 459.098,279.79C457.378,282.633 455.054,284.71 452.152,286.321C447.667,288.81 443.803,292.08 440.995,296.434C440.11,297.805 439.099,298.243 437.534,297.847C433.381,296.796 429.135,296.42 424.865,296.474C422.647,296.502 420.488,296.242 418.404,295.562C415.508,294.617 412.555,294.377 409.542,294.493C407.121,294.587 404.727,294.418 402.316,294.064C398.649,293.525 394.973,293.608 391.369,294.698C386.174,296.269 381.043,297.955 376.853,301.632C376.626,301.831 376.233,301.84 375.807,301.972C375.432,300.956 375.131,299.972 374.713,299.041C373.56,296.475 372.102,294.03 369.441,292.876C366.401,291.557 364.091,289.334 361.56,287.355C360.525,286.545 360.139,285.741 360.543,284.406C361.81,280.223 363.045,276.027 364.12,271.792C364.59,269.941 365.56,268.773 367.236,267.966C372.005,265.67 376.762,263.348 381.907,261.987C384.828,261.214 387.56,260.069 390.038,258.315C393.515,255.854 397.064,253.491 400.506,250.982C404.443,248.111 408.007,244.861 410.213,240.386C412.422,235.903 415.34,231.903 418.782,228.314C425.799,220.997 430.8,212.323 435.639,203.539C437.205,200.695 438.187,197.629 438.45,194.358C438.671,191.605 438.9,188.852 439.196,186.106C439.782,180.672 441.192,175.55 444.186,170.842C446.656,166.958 447.044,162.395 447.348,157.894C447.369,157.581 447.322,157.22 446.903,157.08C446.522,156.953 446.218,157.08 445.981,157.337C445.03,158.37 444.433,159.615 443.937,160.91C443.695,161.542 443.338,161.879 442.663,161.505C440.661,160.396 439.154,161.212 437.796,162.71C436.478,164.164 435.281,165.699 434.248,167.377C433.286,168.94 432.375,170.568 430.907,171.749C425.076,176.437 419.434,181.378 413.052,185.337C409.608,187.473 406.456,189.966 403.586,192.817C401.788,194.603 400.046,196.446 398.249,198.233C396.343,200.129 394.795,202.286 393.871,204.796C392.455,208.641 390.213,211.94 387.665,215.095C384.909,218.508 382.489,222.13 380.808,226.234C379.851,228.571 378.573,230.775 377.101,232.853C375.349,235.325 374.124,238.062 373.517,241.021C373.04,243.345 371.979,245.295 370.588,247.186C368.476,250.058 366.497,253.037 364.905,256.24C363.589,258.89 362.021,261.438 361.396,264.39C361.384,264.45 361.221,264.478 361.123,264.523C361.015,264.523 360.831,264.569 360.798,264.517C358.896,261.567 356.148,261.034 352.953,261.742C352.505,261.841 352.05,261.929 351.593,261.97C347.852,262.302 344.483,258.024 345.656,254.934C346.554,252.568 347.371,250.178 348.466,247.891C348.998,246.78 349.818,246.037 351.009,245.744C351.675,245.58 352.363,245.504 353.04,245.38C356.352,244.773 359.509,243.788 362.279,241.772C363.017,241.235 363.843,240.804 364.667,240.401C367.193,239.166 369.289,237.397 371.148,235.316C374.163,231.941 376.583,228.162 378.566,224.115C379.99,221.21 380.831,218.087 381.486,214.927C381.645,214.159 381.697,213.276 381.478,212.541C380.999,210.936 381.448,209.603 382.293,208.297C384.045,205.59 385.721,202.832 387.56,200.186C389.154,197.894 390.483,195.47 391.323,192.835C392.791,188.232 394.15,183.592 395.422,178.931C395.904,177.166 396.046,175.306 396.292,173.482C396.769,169.946 397.204,166.404 397.672,162.866C397.777,162.071 397.881,161.256 398.631,160.714C400.143,161.232 401.641,161.845 403.193,162.258C408.643,163.707 414.07,165.199 419.117,167.807C420.814,168.684 422.657,168.855 424.508,168.53C426.431,168.192 428.328,167.705 430.238,167.292C430.956,167.137 431.58,166.839 431.643,166.025C431.703,165.252 431.203,164.755 430.574,164.395C430.176,164.167 429.779,163.914 429.349,163.77C426.604,162.849 424.151,161.331 421.582,160.045C417.457,157.98 413.262,156.136 408.483,156.12C406.425,156.114 404.366,155.711 402.31,155.471C398.98,155.082 399.481,154.598 399.777,152.267C400.038,150.212 400.497,148.176 400.651,146.115C401.081,140.36 401.1,134.687 399.279,129.032C397.371,123.106 396.414,116.94 396.756,110.65C396.781,110.19 396.765,109.728 396.795,109.268C396.896,107.7 396.244,106.578 394.781,106.011C393.375,105.467 392.325,106.2 391.422,107.159C390.872,107.742 390.367,108.385 389.943,109.065C388.908,110.725 387.893,112.4 386.94,114.108C384.469,118.536 381.862,122.883 378.882,126.986C375.354,131.842 372.201,136.915 369.43,142.239C368.21,144.584 366.958,146.943 365.433,149.092C362.758,152.86 360.225,156.694 358.362,160.93C357.39,163.14 355.847,164.41 353.389,164.549C352.712,164.587 352.043,164.829 351.38,165.01C344.606,166.863 338.573,170.145 333.261,174.695C330.114,177.39 327.162,180.313 324.106,183.115C323.678,183.508 323.349,184.147 322.363,184.059C323.124,182.11 323.801,180.293 324.537,178.5C327.732,170.721 330.509,162.8 332.865,154.724C333.814,151.469 334.1,148.199 334.079,144.833C334.046,139.534 332.224,134.942 329.026,130.814C327.898,129.357 326.762,127.905 325.658,126.43C323.963,124.167 322.976,121.653 322.763,118.796C322.437,114.437 321.976,110.088 321.59,105.734C321.543,105.205 321.32,104.592 322.007,104.202C323.626,104.278 325.072,105.024 326.577,105.578C327.87,106.054 329.167,106.41 330.584,106.5C337.428,106.933 344.132,106.025 350.789,104.592C354.833,103.721 358.766,102.36 362.881,101.8C365.844,101.397 368.849,101.205 371.768,100.595C380.447,98.782 389.153,97.263 398.014,96.611C402.134,96.308 406.21,95.474 410.123,94.015C411.079,93.659 412.001,93.115 413.112,93.196C413.626,93.932 414.004,94.731 413.987,95.868C412.349,96.23 410.731,96.743 409.01,96.751C404.734,96.771 400.535,97.374 396.34,98.179C393.072,98.807 389.74,99.098 386.442,99.574C385.192,99.755 383.965,100.109 382.712,100.255C376.303,101.002 370.05,102.4 363.814,104.081C358.312,105.564 352.899,107.874 346.976,107.223C343.81,108.062 340.57,107.863 337.356,107.809C334.224,107.756 331.153,108.135 328.092,108.693C326.966,108.899 325.88,109.211 324.699,109.207C323.353,109.203 322.617,110.916 323.388,112.003C323.872,112.686 324.508,113.169 325.347,113.299C326.029,113.405 326.72,113.479 327.409,113.504C330.976,113.633 334.544,113.86 338.11,113.822C341.092,113.79 344.11,113.639 346.922,112.437C352.543,110.034 358.368,108.332 364.346,107.073C368.528,106.192 372.713,105.492 377,105.618C380.576,105.723 384.135,105.614 387.675,105.038C391.758,104.374 395.926,104.129 399.882,102.831C402.972,101.817 406.165,101.353 409.352,101.013C414.187,100.498 418.827,99.199 423.496,97.986C424.268,97.786 425.016,97.441 425.724,97.068C426.824,96.488 427.471,95.587 427.358,94.273C427.258,93.112 426.563,92.413 425.557,91.945C424.367,91.392 423.128,91.247 421.847,91.48C421.056,91.624 420.276,91.834 419.483,91.971C418.863,92.079 418.347,91.897 418.134,91.233C417.993,90.794 417.913,90.334 417.748,89.906C416.879,87.648 415.485,86.832 413.183,87.327C412.177,87.544 411.209,87.941 410.223,88.254C407.046,89.261 403.881,90.263 400.544,90.694C393.359,91.622 386.266,93.08 379.178,94.572C374.122,95.636 369.094,96.83 363.876,97.07C360.561,97.222 357.246,97.833 353.977,98.472C349.45,99.357 344.866,99.767 340.298,100.238C333.87,100.901 327.411,100.02 320.965,100.296C320.176,100.33 319.669,99.945 319.389,99.225C318.382,96.632 316.804,94.355 315.414,91.971C314.723,90.785 314.154,89.504 313.701,88.207C310.971,80.396 309.516,72.373 310.595,64.105C311.225,59.276 311.149,54.458 311.259,49.624C311.345,45.84 310.526,42.292 308.961,38.916C306.153,32.86 303.311,26.819 299.973,21.026C299.312,19.879 298.386,19.057 297.339,18.35C296.624,17.867 295.815,17.87 295.078,18.405C294.295,18.973 293.99,19.865 294.278,20.827C294.444,21.377 294.611,21.942 294.882,22.443C296.024,24.554 296.282,26.795 295.999,29.14C295.861,30.283 295.8,31.435 295.669,32.579C294.895,39.328 294.032,46.068 293.35,52.826C292.331,62.914 291.098,72.959 288.709,82.836C287.788,86.641 287.151,90.521 287.094,94.445C287.075,95.729 286.959,96.945 286.655,98.181C285.691,102.1 284.884,106.053 284.9,110.112C284.912,113.113 284.734,116.085 284.259,119.055C283.714,122.464 283.338,125.899 282.873,129.321C282.796,129.89 282.709,130.473 282.506,131.004C282.333,131.456 282.478,132.174 281.442,132.315C280.437,129.814 277.691,128.411 277.082,125.535C277.06,125.434 276.948,125.35 276.87,125.265C276.379,124.727 275.795,124.358 275.046,124.564C274.462,124.725 274.093,125.177 273.901,125.749C273.439,127.124 273.578,128.495 274.08,129.811C274.407,130.667 274.955,131.435 275.312,132.281C276.47,135.028 278.11,137.579 278.678,140.565C279.194,143.277 279.657,146.001 280.246,148.698C280.546,150.069 280.593,151.424 280.572,152.811C280.479,158.913 280.256,165.018 280.396,171.115C280.571,178.72 280.688,186.322 280.521,193.924C280.407,199.104 280.323,204.29 279.8,209.456C279.475,212.664 279.192,215.881 279.044,219.101C278.769,225.09 278.672,231.074 280.138,236.968C280.804,239.647 281.38,242.351 281.897,245.063C282.259,246.961 282.818,248.847 282.59,250.848C282.089,249.841 281.747,248.793 281.429,247.738C280.235,243.776 279.358,239.708 277.427,235.997C276.357,233.942 275.623,231.769 275.162,229.498C274.362,225.553 273.62,221.594 272.706,217.675C271.217,211.291 269.573,204.943 268.062,198.563C267.107,194.531 266.199,190.475 266.106,186.309C266.055,184.013 266.267,181.712 266.265,179.413C266.26,172.966 266.183,166.519 266.177,160.072C266.169,152.225 266.831,144.439 268.489,136.755C270.022,129.651 272.244,122.761 274.993,116.038C276.348,112.722 277.296,109.291 278.034,105.792C278.461,103.766 278.696,101.63 279.537,99.78C280.37,97.946 280.754,96.088 281.077,94.167C281.344,92.579 281.537,90.974 281.871,89.4C283.946,79.608 286.009,69.813 288.163,60.038C289.649,53.296 291.198,46.566 292.863,39.866C294.451,33.478 294.014,27.089 293.212,20.68C293.151,20.195 292.637,19.989 292.151,19.984C291.387,19.976 290.839,20.336 290.561,21.059C290.137,22.162 290.192,23.312 290.188,24.468C290.174,28.624 289.9,32.759 288.911,36.812C288.256,39.494 287.598,42.178 286.847,44.835C284.311,53.806 281.951,62.819 279.989,71.937C279.239,75.422 278.267,78.86 277.371,82.313C277.002,83.737 276.522,83.938 275.158,83.34C275.053,83.294 274.958,83.225 274.857,83.17C271.201,81.172 267.918,78.658 264.827,75.885C264.403,75.504 263.966,75.063 263.732,74.558C261.918,70.653 258.766,68.043 255.409,65.544C253.821,64.362 252.238,63.24 250.389,62.579C248.1,61.761 245.955,60.679 243.871,59.446C240.254,57.306 236.361,56.005 232.172,55.566C229.426,55.278 226.693,54.86 223.946,54.575C222.115,54.385 220.272,54.284 218.432,54.216C213.841,54.046 209.566,55.156 205.491,57.286C197.824,61.294 190.661,66.111 183.439,70.835C180.644,72.663 178.011,74.712 175.522,76.96C168.728,83.096 164.589,90.823 161.899,99.425C161.352,101.176 160.774,102.986 160.674,104.794C160.362,110.429 160.167,116.092 160.722,121.715C161.58,130.419 162.813,139.066 164.578,147.653C166.94,159.146 170.956,169.932 176.588,180.225C179.688,185.892 183.303,191.223 186.495,196.821C188.795,200.855 191.821,204.323 195.379,207.323C198.345,209.824 201.663,211.597 205.516,212.209C208.696,212.715 211.884,213.249 215.09,213.492C218.298,213.735 221.551,213.835 224.744,213.331C226.352,213.077 227.942,212.908 229.549,212.985C234.147,213.206 238.442,211.895 242.611,210.239C245.809,208.969 248.804,207.266 251.719,205.364C255.367,202.984 257.795,199.825 259.417,195.884C259.938,194.62 260.157,193.217 261.131,191.973C262.3,193.512 262.948,195.22 263.472,196.959C264.699,201.035 265.855,205.132 267.029,209.223C267.726,211.655 268.586,214.059 269.044,216.536C269.649,219.813 269.986,223.144 270.342,226.462C270.761,230.368 271.409,234.21 272.792,237.909C273.234,239.09 273.614,240.313 273.847,241.55C275.06,247.998 276.28,254.445 277.371,260.914C278.14,265.468 279.041,269.939 281.041,274.169C282.116,276.441 282.716,278.939 283.504,281.343C283.748,282.089 283.519,282.655 282.762,283.03C280.597,284.103 278.452,285.216 276.299,286.313C274.141,287.412 272.076,288.655 270.143,290.126C265.369,293.76 260.805,297.647 256.64,301.956C254.092,304.592 251.384,307.163 249.715,310.519C247.857,314.254 245.577,317.701 242.843,320.84C240.583,323.436 239.355,326.487 238.622,329.795C237.481,334.948 237.519,340.088 238.903,345.178C239.647,347.913 239.839,350.625 239.085,353.357C238.68,354.825 238.621,356.306 238.598,357.805C238.508,363.559 237.728,369.288 237.967,375.055C237.991,375.625 237.942,376.216 237.817,376.773C237.089,380.017 237.941,382.924 239.647,385.661C240.134,386.443 240.637,387.216 241.1,388.012C245.277,395.189 250.661,401.177 257.652,405.8C261.672,408.458 265.643,411.26 269.206,414.558C270.903,416.128 272.748,417.504 274.692,418.747C276.443,419.867 278.149,421.05 279.643,422.496C284.762,427.453 291.232,427.574 297.733,427.605C297.845,427.605 297.974,427.588 298.067,427.532C299.97,426.395 301.831,427.079 303.71,427.627C306.695,428.497 309.698,429.284 312.844,429.284C312.998,429.284 313.151,429.537 313.494,429.839C311.573,432.292 309.698,434.742 307.756,437.139C306.883,438.217 305.943,439.254 305.386,440.525C302.663,446.734 299.342,452.703 297.703,459.349C297.407,460.548 296.778,460.995 295.6,461.203C292.966,461.668 290.447,462.608 288.372,464.303C285.51,466.641 282.177,467.346 278.688,467.247C273.358,467.095 268.133,467.787 262.875,468.468C259.035,468.965 255.487,470.12 252.089,471.873C249.935,472.984 247.703,473.858 245.354,474.492C242.116,475.365 239.13,476.827 236.241,478.543C231.661,481.263 227.617,484.679 223.487,487.996C221.13,489.89 219.041,492.008 217.395,494.544C215.623,497.274 213.458,499.631 210.954,501.71C207.752,504.369 204.933,507.401 202.423,510.727C201.717,511.662 201.176,512.666 200.775,513.743C200.253,515.145 200.516,516.433 201.452,517.628C202.654,519.163 204.262,520.088 206.105,520.383C208.594,520.781 211.11,521.225 213.662,520.781C217.738,520.071 221.812,519.339 225.902,518.716C227.616,518.455 229.331,518.221 230.933,517.568C234.141,516.261 237.434,515.282 240.837,514.636C242.189,514.38 243.578,514.113 244.831,513.574C248.366,512.054 252.131,511.618 255.853,510.902C263.146,509.498 269.664,506.598 274.49,500.639C275.644,499.214 276.797,497.761 278.39,496.63C278.75,496.881 279.138,497.112 279.482,497.396C281.879,499.375 284.259,501.375 286.66,503.349C288.803,505.111 290.903,506.945 292.462,509.244C295.769,514.12 300.463,517.857 303.545,522.907C303.722,523.197 303.993,523.433 304.237,523.677C308.905,528.329 313.921,532.542 319.729,535.721C322.263,537.107 324.627,538.714 326.91,540.486C331.365,543.944 335.947,547.228 340.615,550.402C344.989,553.377 349.495,556.171 353.568,559.591C355.953,561.594 358.704,563.089 361.668,564.108C363.948,564.892 366.285,565.516 368.556,566.324C373.251,567.994 378.018,569.17 383.056,568.975C384.078,568.936 385.138,569.034 386.131,569.274C389.483,570.085 392.863,570.744 396.243,571.424C401.536,572.488 406.776,573.817 412.052,574.971C413.412,575.269 414.727,575.636 415.97,576.254C417.958,577.242 420.053,577.774 422.274,577.868C423.073,577.902 423.869,578.051 424.661,578.182C428.067,578.747 431.515,579.286 434.941,579.07C437.673,578.898 439.895,579.472 441.953,581.207C443.369,582.401 444.972,583.352 446.891,583.484C447.99,583.56 448.502,584.189 448.841,585.133C449.152,585.999 449.569,586.826 449.885,587.69C450.767,590.103 452.063,592.235 453.865,594.091C455.392,595.665 456.68,597.455 457.753,599.364C459.006,601.594 460.557,603.565 462.319,605.408C464.732,607.931 466.507,610.919 467.908,614.076C469.493,617.648 470.774,621.353 472.232,624.983C473.734,628.724 475.27,632.448 477.952,635.561C478.549,636.254 479,637.073 479.511,637.84C481.109,640.238 482.754,642.6 484.713,644.726C486.048,646.176 487.133,647.814 488.043,649.548C490.487,654.208 493.861,658.069 497.794,661.536C501.075,664.428 504.194,667.511 507.068,670.821C507.963,671.852 507.744,672.729 506.503,673.266C504.585,674.096 502.52,674.461 500.484,674.7C497.006,675.107 493.738,676.067 490.614,677.605C489.686,678.062 488.754,678.523 487.792,678.9C482.153,681.111 480.898,681.049 476.078,678.248C473.369,676.674 470.584,675.371 467.494,674.758C466.824,674.625 466.173,674.361 465.538,674.097C462.173,672.697 458.683,672.206 455.06,672.555C454.496,672.61 453.916,672.556 453.352,672.483C453.256,672.471 453.206,672.109 453.134,671.909L453.132,671.903L453.079,671.837ZM465.423,602.862L466.272,603.261C465.918,603.274 465.588,603.236 465.423,602.862ZM467.63,605.563C468.159,606.173 468.117,606.799 467.631,607.427C467.736,606.81 467.383,606.174 467.63,605.563ZM440.13,569.294L440.225,569.373L440.05,569.383L440.13,569.294ZM473.354,618.608C473.324,618.532 473.293,618.456 473.265,618.38C473.467,618.358 473.472,618.418 473.354,618.608ZM523.992,359.41C524.338,361.004 523.253,362.16 522.515,363.345C521.119,365.585 519.148,367.374 517.308,369.244C516.113,370.458 514.464,370.623 512.833,370.554C512.217,370.528 511.769,370.11 511.577,369.534C511.149,368.251 510.771,366.951 510.292,365.4C515.859,365.267 519.815,362.101 523.992,359.41ZM476.345,624.406C476.446,624.378 476.564,624.336 476.588,624.367C478.298,626.597 479.82,628.941 481.159,631.73C479.086,630.405 478.139,628.916 476.345,624.406ZM421.502,185.014C421.845,185.52 421.722,186.032 421.43,186.559C420.255,188.675 419.018,190.75 417.218,192.408C415.444,194.042 413.674,195.685 411.825,197.231C409.215,199.413 407.193,202.006 405.918,205.163C404.543,208.567 403.025,211.922 402.063,215.475C401.751,216.628 401.199,217.563 400.432,218.449C396.513,222.971 392.244,227.116 387.479,230.743C386.844,230.334 387.296,229.94 387.469,229.613C388.815,227.071 390.328,224.636 392.109,222.37C393.245,220.925 394.349,219.453 395.43,217.966C397.406,215.25 399.006,212.337 399.763,209.035C400.473,205.937 401.899,203.254 404.051,200.909C405.448,199.387 406.663,197.698 408.038,196.155C410.566,193.318 413.266,190.677 416.513,188.626C418.245,187.531 419.844,186.226 421.502,185.014ZM440.124,569.289C438.929,570.177 437.884,569.623 437.161,568.68C434.027,564.593 430.717,560.607 429.165,555.539C428.798,554.341 428.191,553.206 427.615,552.082C426.058,549.043 423.627,547.079 420.28,546.301C419.731,546.173 419.167,546.114 418.483,546.003C418.232,544.482 418.282,543.038 418.606,541.452C420.741,541.831 422.782,541.918 424.812,541.385C425.246,541.271 425.729,541.319 426.188,541.33C429.49,541.409 429.856,541.679 430.357,544.929C430.812,547.881 431.255,550.843 431.511,553.817C431.838,557.608 433.003,560.981 435.571,563.858C437.142,565.62 438.288,567.745 440.124,569.289ZM466.44,605.203C466.793,605.139 467.134,605.127 467.423,605.354L466.44,605.203ZM283.769,642.098L283.767,642.098C283.742,641.546 283.644,641.196 283.723,640.891C285.226,635.086 287.188,629.444 289.739,624.008C290.679,622.006 291.895,620.205 293.345,618.553C295.37,616.246 297.789,614.625 300.852,613.947C303.316,613.402 305.743,612.676 308.156,611.931C309.356,611.561 310.498,610.993 311.647,610.472C313.069,609.827 314.144,608.802 314.649,607.303C315.399,605.076 317.038,603.711 318.971,602.574C320.188,601.858 321.423,601.406 322.881,601.474C329.243,601.772 334.805,599.433 340.05,596.121C344.558,593.275 348.565,589.837 352.151,585.895C353.003,584.959 353.961,584.121 354.833,583.202C357.337,580.563 360.451,579.752 363.958,580.119C364.873,580.215 365.781,580.385 366.687,580.552C367.304,580.666 367.675,581.039 367.801,581.686C368.347,584.492 370.259,586.296 372.431,587.884C374.398,589.323 376.628,590.249 378.88,591.142C380.691,591.86 382.458,592.686 384.245,593.464C384.868,595.184 385.533,596.89 386.103,598.628C386.631,600.241 387.66,601.682 387.938,603.677C385.715,603.686 383.676,603.603 381.656,603.308C378.668,602.871 375.689,602.891 372.701,603.256C369.732,603.619 366.734,603.652 363.773,604.186C361.103,604.667 358.659,605.5 356.652,607.389C356.401,607.625 356.105,607.815 355.86,608.057C352.733,611.143 348.854,612.328 344.584,612.526C344.239,612.542 343.891,612.54 343.549,612.582C336.119,613.491 335.794,613.491 330.522,617.999C330.347,618.149 330.158,618.287 330.006,618.458C326.189,622.731 321.111,623.888 315.708,624.31C310.262,624.736 305.126,626.415 300.107,628.444C298.043,629.278 296.388,630.734 295.254,632.696C294.975,633.178 294.613,633.711 295.223,634.227C295.641,634.581 296.062,634.444 296.485,634.216C297.194,633.835 297.894,633.434 298.625,633.1C299.249,632.815 299.893,632.515 300.56,632.388C305.86,631.382 311.098,629.988 316.535,629.832C318.948,629.763 321.36,629.84 323.765,629.398C326.952,628.812 329.598,627.343 331.799,625.014C333.302,623.424 334.838,621.86 336.266,620.204C337.711,618.529 339.558,617.762 341.667,617.438C343.144,617.212 344.611,616.903 346.095,616.74C349.555,616.359 352.437,614.804 355.005,612.547C356.129,611.559 357.276,610.598 358.42,609.634C359.982,608.318 361.812,607.72 363.832,607.693C365.214,607.674 366.604,607.621 367.977,607.739C373.112,608.178 378.273,608.403 384.161,609.46C381.464,609.948 379.507,609.836 377.596,610.294C374.866,610.948 372.318,611.922 369.994,613.446C367.396,615.149 364.87,616.963 362.307,618.721C361.42,619.329 360.653,620.097 360.512,621.157C360.333,622.505 359.56,623.468 358.812,624.481C357.103,626.798 355.396,629.116 353.681,631.429C351.211,634.76 348.784,638.121 346.801,641.774C346.178,642.922 345.463,643.894 344.178,644.376C343.651,644.573 343.132,644.903 342.725,645.293C340.662,647.27 338.19,647.342 335.612,646.86C333.128,646.396 330.63,645.997 328.214,645.201C323.716,643.718 319.008,643.212 314.383,642.318C311.9,641.838 309.405,641.415 306.932,640.89C305.929,640.677 304.935,640.339 303.996,639.925C299.802,638.076 295.55,637.871 291.222,639.364C289.486,639.963 287.764,640.601 286.039,641.23C285.32,641.492 284.608,641.776 283.769,642.098ZM436.542,178.51L436.545,178.511C436.565,180.625 436.075,182.399 435.739,184.196C435.168,187.249 434.65,190.312 434.017,193.352C433.402,196.304 432.218,199.052 430.683,201.641C426.684,208.386 422.394,214.906 416.97,220.641C413.65,224.151 410.486,227.826 407.896,231.934C406.854,233.587 405.812,235.258 404.98,237.02C403.618,239.903 401.662,242.268 399.179,244.205C394.457,247.888 389.487,251.224 384.5,254.532C383.741,255.036 382.884,255.418 382.031,255.751C377.945,257.346 374.062,259.326 370.382,261.712C370.008,261.954 369.573,262.102 369.118,262.317C368.652,261.407 369.412,261.029 369.803,260.598C371.967,258.21 374.308,255.97 376.339,253.476C380.276,248.641 384.56,244.186 389.377,240.219C392.129,237.953 394.667,235.427 397.385,233.118C400.292,230.648 402.868,227.863 405.433,225.059C407.72,222.559 408.868,219.716 408.567,216.246C408.265,212.772 409.015,209.378 409.859,206.021C410.509,203.437 411.981,201.466 414.247,200.066C415.813,199.098 417.33,198.05 418.91,197.106C422.93,194.703 426.137,191.433 428.983,187.772C430.819,185.409 432.615,183.013 434.463,180.659C435.017,179.953 435.395,179.07 436.542,178.51ZM405.095,525.341C404.263,524.607 403.424,523.883 402.616,523.125C400.628,521.26 398.217,520.205 395.632,519.531C393.553,518.989 391.775,519.72 390.263,521.141C389.471,521.885 389.599,523.216 390.495,523.852C391.159,524.323 391.894,524.651 392.736,524.655C393.772,524.66 394.809,524.659 395.845,524.676C397.789,524.707 399.443,525.4 400.718,526.89C402.365,528.814 404.055,530.706 405.612,532.7C407.382,534.967 409.063,537.279 411.151,539.302C413.678,541.75 413.42,543.138 410.327,544.87C404.503,548.131 398.699,548.096 393.056,544.438C391.577,543.48 390.137,542.649 388.32,542.593C387.314,542.562 386.608,541.942 386.264,540.996C385.636,539.267 385,537.54 384.447,535.787C383.468,532.682 382.073,529.808 380.034,527.252C378.944,525.885 377.741,524.602 376.169,523.858C373.154,522.431 370.446,520.412 367.271,519.307C365.495,518.689 364.019,517.596 362.656,516.34C360.197,514.074 357.619,511.96 354.941,509.956C351.881,507.667 349.323,504.85 346.803,501.998C345.701,500.751 345.091,499.268 344.678,497.706C343.782,494.32 342.309,491.186 340.194,488.436C337.464,484.887 335.702,480.955 334.798,476.615C334.117,473.346 332.436,470.66 330.214,468.244C329.108,467.041 327.886,465.99 326.374,465.367C324.018,464.396 321.869,463.068 319.734,461.704C318.275,460.772 316.766,459.957 315.069,459.516C312.764,458.916 310.519,458.584 308.641,460.548C308.134,461.078 307.653,460.844 307.091,460.65C305.685,460.164 304.698,458.829 303.153,458.815C302.794,457.924 303.406,457.429 303.757,456.893C305.775,453.81 307.792,450.726 309.883,447.693C310.991,446.085 312.236,444.57 313.441,443.03C317.843,437.405 322.398,431.922 327.623,427.016C328.778,425.932 329.625,424.497 330.507,423.153C331.356,421.86 332.41,420.918 333.83,420.263C337.171,418.721 340.46,417.068 343.774,415.469C345.642,414.568 347.476,413.606 349.151,412.374C350.844,411.128 352.715,410.346 354.748,409.797C358.849,408.688 362.933,407.504 366.979,406.208C369.052,405.544 371.066,404.653 373.032,403.709C374.356,403.073 375.663,402.863 377.041,403.21C379.987,403.953 382.974,403.95 385.968,403.761C387.831,403.644 389.628,403.778 391.395,404.458C393.432,405.242 395.547,405.827 397.565,406.654C399.824,407.58 402.191,408.051 404.555,408.5C409.428,409.426 413.622,411.558 417.414,414.773C420.864,417.698 423.974,420.849 426.611,424.538C429.286,428.281 432.179,431.873 435.074,435.452C436.98,437.808 438.434,440.375 439.56,443.177C441.491,447.981 443.462,452.77 445.534,457.514C446.187,459.009 446.187,460.381 445.714,461.858C445.223,463.391 444.747,464.929 444.313,466.479C443.79,468.346 443.933,470.239 445.015,471.805C447.137,474.876 447.217,478.33 446.994,481.763C446.666,486.823 446.186,491.867 446.664,496.94C446.888,499.322 446.321,501.501 445.061,503.524C444.148,504.989 443.339,506.521 442.371,507.947C440.426,510.81 438.688,513.786 437.139,516.878C436.676,517.801 436.264,518.804 435.592,519.559C433.059,522.405 432.41,525.875 432.127,529.472C432.018,530.855 431.97,532.229 431.442,533.536C431.074,534.446 430.583,535.153 429.454,535.122C428.677,535.101 427.887,535.517 427.989,536.244C428.238,538.02 427.069,538.093 425.922,538.248C423.879,538.523 421.841,538.963 419.842,537.896C418.674,537.273 417.755,536.517 417.263,535.26C416.467,533.225 415.645,531.199 414.808,529.18C413.795,526.737 412.894,524.234 411.688,521.889C410.436,519.453 409.744,516.987 410.073,514.258C410.224,513.004 410.357,511.748 410.512,510.494C410.645,509.416 410.233,508.706 409.269,508.37C408.332,508.043 407.47,508.196 406.629,508.699C405.599,509.314 404.927,510.219 404.401,511.268C402.586,514.885 402.563,518.555 403.985,522.302C404.367,523.308 405.261,524.147 405.095,525.341ZM426.802,445.644C426.792,444.416 426.093,443.733 425.249,443.721C423.133,443.69 421.324,445.953 421.887,447.927C422.173,448.929 423.497,449.607 424.347,449.113C425.822,448.256 426.648,446.95 426.802,445.644ZM424.237,437.095C424.436,437.052 424.789,437.038 425.083,436.9C426.291,436.333 427.575,434.068 427.5,432.703C427.448,431.766 426.541,431.063 425.616,431.243C423.983,431.56 422.334,433.871 422.52,435.581C422.605,436.365 423.308,437.034 424.237,437.095ZM401.096,421.659C401.051,421.237 400.221,420.335 399.54,419.969C398.572,419.448 397.436,419.597 396.739,420.335C396.043,421.073 395.981,422.329 396.602,423.133C397.223,423.938 398.372,424.272 399.332,423.925C400.222,423.604 401.173,422.382 401.096,421.659ZM413.068,429.19C413.02,427.652 412.281,427.102 410.996,427.308C410.408,427.402 409.907,427.624 409.469,428.015C408.741,428.665 408.504,429.64 408.866,430.509C409.231,431.385 410.151,432.007 411.005,431.955C411.864,431.903 412.695,431.191 412.919,430.26C413.025,429.82 413.047,429.36 413.068,429.19ZM390.21,433.651C390.232,432.646 389.374,431.694 388.354,431.592C387.076,431.464 385.811,432.487 385.772,433.681C385.733,434.866 386.649,435.699 387.976,435.684C389.258,435.67 390.184,434.827 390.21,433.651ZM383.228,418.505C383.414,417.491 383.097,416.988 382.329,416.739C381.691,416.532 381.077,416.196 380.424,416.093C379.127,415.888 377.924,416.75 377.644,418.033C377.417,419.071 377.549,420.06 378.297,420.894C379.123,421.815 380.115,422.2 381.338,421.847C382.448,421.527 383.013,420.766 383.12,419.636L383.228,418.505ZM370.385,424.835C370.446,424.267 370.104,423.902 369.642,423.893C368.276,423.866 366.87,423.755 365.552,424.028C363.991,424.35 362.512,425.049 361.571,426.49C361.17,427.103 361.011,427.73 361.47,428.396C361.962,429.11 362.769,429.407 363.558,429.118C363.878,429.001 364.203,428.864 364.481,428.672C366.259,427.448 367.933,426.053 370.039,425.372C370.199,425.321 370.276,425.014 370.385,424.835ZM407.737,439.25C406.896,439.542 405.7,439.89 404.559,440.37C403.515,440.809 403.056,441.703 403.1,442.834C403.141,443.871 403.875,444.821 404.872,445.086C405.966,445.376 406.889,445.034 407.628,444.204C408.476,443.251 408.895,442.064 409.319,440.896C409.597,440.131 408.871,439.209 407.737,439.25ZM325.635,474.855C325.767,474.773 325.713,474.833 325.635,474.855ZM463.08,599.834C462.958,599.804 463.005,599.617 463.08,599.834ZM475.383,623.317C476.256,623.162 476.503,623.546 476.295,624.327L475.383,623.317ZM443.856,575.159C442.774,575.422 441.886,574.785 440.994,574.386C440.552,574.188 440.28,573.533 440.011,573.042C439.681,572.439 439.991,571.961 440.442,571.539C441.025,570.994 441.511,571.272 441.866,571.767C442.633,572.834 443.871,573.64 443.856,575.159ZM474.667,621.969L474.665,622.006L474.66,622.004L474.667,621.969ZM393.532,116.3C393.359,119.493 393.283,122.696 392.984,125.877C392.714,128.753 392.528,131.632 392.667,134.503C393.022,141.8 392.446,148.988 390.712,156.096C389.262,162.039 388.759,168.134 387.994,174.186C387.402,178.867 386.777,183.545 386.079,188.211C385.596,191.441 384.291,194.358 382.552,197.132C380.719,200.055 379.07,203.094 377.377,206.103C376.522,207.623 375.883,209.239 376.004,211.027C376.113,212.624 375.434,213.915 374.636,215.209C373.065,217.755 371.53,220.323 370.002,222.895C368.707,225.076 367.358,227.214 365.713,229.157C364.209,230.933 362.523,232.427 360.388,233.458C358.951,234.152 357.654,235.15 356.332,236.066C354.441,237.376 352.627,238.803 350.7,240.057C348.313,241.61 346.374,243.469 345.527,246.289C345.379,246.783 345.231,247.408 344.525,247.522C344.153,246.712 344.444,245.93 344.633,245.161C345.513,241.587 346.383,238.009 347.324,234.451C348.094,231.539 348.486,228.601 348.516,225.583C348.608,216.135 347.871,218.62 351.189,207.621C352.123,204.525 352.696,201.361 353.139,198.164C353.391,196.344 353.719,194.534 354.052,192.726C354.761,188.88 355.563,185.05 356.201,181.193C356.742,177.928 357.988,175.02 360.042,172.441C360.759,171.54 361.443,170.612 362.177,169.726C363.802,167.765 365.2,165.662 366.257,163.341C367.551,160.499 369.164,157.855 371.03,155.352C372.96,152.763 374.638,150.008 376.103,147.13C378.193,143.022 380.457,139.02 383.043,135.197C386.409,130.221 389.016,124.833 391.442,119.353C391.902,118.315 392.375,117.282 392.842,116.247L393.532,116.3ZM369.042,562.368C368.841,562.423 368.726,562.491 368.624,562.475C364.749,561.868 364.779,561.835 361.826,559.034C358.057,555.459 353.96,552.352 349.344,549.886C344.687,547.398 339.914,545.096 335.591,542.001C333.717,540.659 331.85,539.32 330.142,537.776C327.657,535.53 324.97,533.578 322.096,531.855C316.719,528.633 312.272,524.289 307.888,519.878C307.807,519.797 307.724,519.712 307.665,519.615C305.013,515.26 301.221,511.822 298.155,507.805C295.535,504.372 292.399,501.55 288.818,499.185C286.229,497.475 283.639,495.768 281.041,494.054C280.695,493.234 281.407,492.815 281.763,492.292C283.775,489.337 286.03,486.575 288.485,483.978C290.074,482.298 291.451,480.463 292.659,478.494C294.403,475.653 296.529,473.065 298.057,470.075C299.068,468.096 301.11,467.393 303.039,466.644C303.487,466.47 303.964,466.638 304.25,467.053C304.51,467.43 304.73,467.842 304.913,468.262C307.178,473.448 310.111,478.251 313.226,482.961C314.555,484.971 315.66,487.133 316.821,489.25C318.602,492.499 320.7,495.512 323.348,498.113C325.516,500.242 327.092,502.74 328.318,505.51C330.646,510.766 333.068,515.98 335.424,521.224C336.619,523.884 338.141,526.291 340.455,528.128C341.834,529.223 342.826,530.629 343.64,532.165C344.394,533.587 345.229,534.984 345.805,536.478C347.266,540.268 349.483,543.63 351.566,547.071C352.947,549.352 354.683,551.325 356.709,553.074C360.284,556.159 363.868,559.218 368.04,561.499C368.405,561.698 368.684,562.052 369.042,562.368ZM320.913,278.239C320.858,278.297 320.805,278.406 320.733,278.42C320.483,278.47 320.35,278.346 320.381,278.099C320.393,278.006 320.47,277.922 320.517,277.833L320.913,278.239ZM325.466,474.641L325.446,474.632L325.471,474.636L325.466,474.641ZM284.686,200.661L284.684,200.66C284.037,200.139 284.094,199.665 284.076,199.225C283.647,188.858 283.722,178.49 284.315,168.136C284.598,163.199 285.194,158.271 285.85,153.366C286.292,150.054 286.315,146.719 286.803,143.402C287.391,139.4 288.375,135.51 289.253,131.582C291.135,123.164 293.437,114.826 294.296,106.209C294.616,103.002 294.782,99.779 294.98,96.561C295.384,89.996 296.572,83.537 297.554,77.05C298.486,70.895 298.969,64.694 299.353,58.489C299.723,52.512 299.911,46.523 300.185,40.54C300.206,40.084 300.278,39.631 300.324,39.196C300.961,39.065 301.231,39.441 301.38,39.875C302.281,42.494 303.013,45.138 303.019,47.953C303.03,53.249 303.08,58.521 302.411,63.813C301.462,71.323 302.493,78.72 304.441,86.028C306.164,92.495 308.932,98.36 313.623,103.185C315.788,105.412 316.402,108.162 316.743,111.041C317.04,113.555 317.239,116.082 317.423,118.607C317.643,121.633 318.385,124.507 319.78,127.203C320.838,129.247 321.944,131.266 322.993,133.314C326.062,139.304 326.783,145.604 325.082,152.086C323.006,159.998 320.147,167.655 317.08,175.234C316.001,177.9 314.96,180.582 313.935,183.27C313.108,185.439 312.667,187.697 312.626,190.019C312.524,195.782 311.88,201.507 311.406,207.242C311.054,211.5 310.764,215.74 311.59,219.979C311.835,221.235 311.666,222.498 311.427,223.754C310.909,226.467 310.531,229.19 310.37,231.961C310.121,236.273 308.671,240.299 306.789,244.142C305.373,247.034 303.807,249.856 301.984,252.526C301.337,253.473 300.722,254.461 300.236,255.497C298.669,258.837 296.881,262.047 294.938,265.184C293.48,267.538 292.448,270.109 291.586,272.743C291.373,273.397 291.158,274.052 290.888,274.682C290.826,274.826 290.524,274.957 290.349,274.939C290.184,274.922 289.937,274.721 289.904,274.564C289.458,272.425 288.925,270.295 288.644,268.133C287.993,263.112 287.269,258.105 286.82,253.052C286.352,247.788 285.48,242.552 284.587,237.337C283.925,233.468 283.325,229.622 283.423,225.68C283.5,222.572 283.423,219.46 283.439,216.35C283.445,215.199 283.525,214.048 283.563,212.897C283.681,209.348 284.61,206.099 287.012,203.374C291.845,197.893 295.346,191.527 299.023,185.278C300.074,183.491 301.255,181.8 302.521,180.15C306.929,174.405 309.468,167.988 309.202,160.629C309.177,159.939 309.173,159.246 309.088,158.563C308.978,157.68 308.112,157.273 307.271,157.607C306.594,157.875 306.135,158.376 305.699,158.908C303.622,161.44 302.203,164.298 301.439,167.488C300.582,171.068 299.719,174.647 298.804,178.213C298.52,179.319 298.199,180.458 297.652,181.449C293.927,188.201 290.208,194.965 284.686,200.661ZM464.323,602.505L464.323,602.564L464.305,602.562L464.323,602.505ZM411.393,645.809L411.392,645.811C404.945,645.568 399.674,647.419 394.617,650.039C393.997,650.36 393.405,650.7 392.671,650.528C390.822,650.095 389.602,651.212 388.441,652.332C387.471,653.268 387.536,654.773 388.492,655.743C389.632,656.899 391.07,657.19 392.62,657.036C394.118,656.887 395.538,656.433 396.935,655.879C398.856,655.116 400.776,654.343 402.736,653.692C404.039,653.259 405.396,652.849 406.752,652.748C409.519,652.543 412.229,652.128 414.89,651.348C416.177,650.97 417.25,651.234 418.395,652.096C426.222,657.984 433.413,664.585 440.408,671.471C440.181,672.273 439.503,671.949 439.018,671.958C438.45,671.97 437.864,671.891 437.311,671.753C432.938,670.66 428.453,670.41 423.999,669.914C421.601,669.646 419.21,669.308 416.827,668.931C414.069,668.495 411.329,668.515 408.581,668.987C406.427,669.356 404.239,669.569 402.118,670.071C395.568,671.62 389.605,669.991 383.862,666.937C382.359,666.138 381.3,665.001 380.901,663.324C380.476,661.536 379.764,659.743 379.745,657.946C379.71,654.599 378.402,651.699 377.19,648.735C376.843,647.886 376.353,647.096 375.967,646.261C373.225,640.329 365.94,637.776 360.916,639.292C358.714,639.957 356.486,640.49 354.42,641.539C353.815,641.846 353.153,642.051 352.5,642.246C352.317,642.3 352.012,642.21 351.879,642.073C351.777,641.968 351.775,641.632 351.869,641.492C352.38,640.728 352.907,639.972 353.477,639.251C356.83,635.006 360.217,630.79 363.542,626.524C364.478,625.324 365.475,624.32 366.896,623.662C369.835,622.302 372.394,620.312 374.974,618.39C378.04,616.106 381.205,614.073 385,613.203C386.119,612.946 387.16,612.486 387.96,611.563C389.084,610.266 389.419,610.245 390.673,610.933C391.873,611.592 392.621,612.561 392.751,613.916C393.115,617.699 394.795,620.934 396.796,624.068C398.656,626.982 400.29,630.041 401.457,633.292C402.703,636.763 404.824,639.537 407.525,641.954C408.701,643.006 410.011,643.934 411.393,645.809ZM351.256,535.725L351.107,535.697C351.173,535.531 351.223,535.541 351.256,535.725ZM351.35,535.805C351.574,535.776 351.801,535.965 351.722,536.037C351.265,536.455 351.339,536.073 351.35,535.805ZM323.667,473.507C323.755,473.311 323.997,473.616 323.667,473.507ZM464.371,602.571C464.69,602.502 465.044,602.26 465.247,602.695C464.954,602.652 464.662,602.611 464.371,602.571ZM292.629,468.151C292.55,468.487 292.514,468.867 292.32,469.127C289.162,473.367 286.756,478.148 283.032,481.98C281.262,483.801 279.723,485.808 278.294,487.909C275.293,492.32 271.335,495.877 267.652,499.676C266.516,500.847 265.077,501.595 263.567,502.196C259.904,503.655 256.132,504.643 252.165,504.614C249.712,504.596 247.386,505.098 245.065,505.837C242.878,506.533 240.638,507.064 238.419,507.657C235.411,508.461 232.491,509.504 229.716,510.92C227.86,511.867 225.91,512.508 223.888,512.999C221.657,513.54 219.451,514.188 217.248,514.837C213.327,515.991 209.348,516.341 205.296,515.788C204.271,515.648 203.938,514.93 204.535,514.115C204.873,513.654 205.276,513.239 205.675,512.827C208.399,510.013 211.166,507.245 214.253,504.817C216.344,503.173 218.339,501.39 219.784,499.153C222.939,494.27 227.445,490.898 232.254,487.916C237.533,484.642 242.929,481.552 248.994,479.877C251.004,479.322 252.885,478.416 254.61,477.27C258.762,474.511 263.442,473.441 268.274,472.895C271.7,472.508 275.124,472.068 278.602,472.316C280.196,472.429 281.83,472.259 283.423,472.046C285.862,471.719 288.017,470.653 290.042,469.263C290.809,468.737 291.464,467.742 292.629,468.151ZM474.679,622.011C475.713,622.015 475.669,622.586 475.37,623.29C475.325,622.762 475.277,622.236 474.679,622.011ZM473.996,620.587L473.999,620.612L473.992,620.608L473.996,620.587ZM473.343,619.139L473.354,619.2C474.2,619.245 474.088,619.727 474.019,620.189C473.986,619.757 473.748,619.423 473.315,619.182L473.343,619.139ZM350.874,320.503L350.786,320.544C351.046,320.814 351.179,321.207 350.948,321.457C349.214,323.328 347.825,325.437 346.538,327.625C346.365,327.919 346.138,328.186 345.905,328.437C345.125,329.276 344.397,329.344 343.498,328.632C342.776,328.061 342.125,327.396 341.375,326.868C340.922,326.548 340.358,326.339 339.813,326.21C339.205,326.066 338.63,326.339 338.361,326.892C336.768,330.16 337.539,333.594 340.332,335.942C341.872,337.237 343.505,337.77 345.404,336.72C345.8,336.501 346.241,336.362 346.88,336.095C347.038,338.754 348.596,340.582 350.131,342.417C351.313,343.83 352.498,345.243 353.725,346.616C355.128,348.185 356.188,349.94 356.839,351.941C357.623,354.353 358.591,356.692 359.747,358.948C360.709,360.825 361.044,362.876 361.452,364.9C361.729,366.279 361.488,367.662 361.023,368.981C360.325,370.958 360.143,373.021 359.91,375.079C359.649,377.388 359.762,379.667 360.273,381.943C360.777,384.187 361.229,386.445 361.606,388.713C361.98,390.958 362.776,392.876 364.751,394.227C365.718,394.888 365.637,395.287 364.988,396.213C362.178,400.218 358.373,402.869 353.77,404.387C350.799,405.367 348.032,406.681 345.457,408.487C343.964,409.534 342.279,410.351 340.594,411.07C337.005,412.601 333.533,414.429 329.725,415.419C327.878,415.9 326.427,417.064 325.162,418.413C324.215,419.423 323.188,419.839 321.806,419.757C319.822,419.639 317.947,420.29 316.09,420.906C313.406,421.796 310.726,421.987 307.941,421.305C306.388,420.925 304.753,420.807 303.147,420.731C300.554,420.608 298.074,421.212 295.949,422.704C294.615,423.641 293.428,423.497 292.123,422.898C288.772,421.359 285.534,419.619 282.539,417.452C280.861,416.238 279.165,415.048 277.518,413.793C275.964,412.608 274.35,411.469 272.961,410.107C269.662,406.871 265.741,404.379 262.44,401.162C256.486,395.359 250.992,389.177 246.878,381.883C246.252,380.774 245.637,379.676 245.468,378.387C244.599,371.773 243.278,365.211 243.273,358.498C243.271,356.64 243.505,354.865 243.976,353.056C245.34,347.813 246.336,342.504 246.061,337.034C245.896,333.755 246.713,330.688 247.892,327.63C249.679,322.997 252.137,318.699 254.195,314.206C255.203,312.007 256.614,310.335 259.058,309.672C260.654,309.239 261.893,308.188 263.052,307.042C266.577,303.557 270.299,300.298 274.219,297.262C275.863,295.989 277.547,294.79 279.412,293.868C281.886,292.645 284.343,291.394 286.64,289.687C288.121,291.147 289.105,292.875 289.586,294.733C290.746,299.21 292.682,303.394 294.214,307.728C295.259,310.681 295.971,313.639 296.034,316.805C296.122,321.196 297.27,325.452 298.128,329.738C298.239,330.292 298.436,330.888 298.774,331.326C299.913,332.802 299.457,334.387 299.216,335.965C299.142,336.454 298.55,336.745 298.192,336.462C296.571,335.18 294.913,333.957 293.623,332.285C292.079,330.282 290.394,328.387 288.76,326.454C287.934,325.477 286.951,324.676 285.823,324.077C285.326,323.813 284.784,323.596 284.236,323.476C283.529,323.321 282.825,323.477 282.387,324.097C281.946,324.721 281.976,325.508 282.435,326.044C284.832,328.846 286.505,332.19 289.1,334.844C290.748,336.529 292.532,337.899 294.962,338.212C295.524,338.284 296.064,338.533 296.614,338.702C298.721,339.35 298.797,339.371 298.203,341.569C297.495,344.189 297.37,346.772 298.098,349.403C298.372,350.393 298.584,351.397 298.504,352.465C298.388,354.01 297.997,355.268 296.671,356.311C293.888,358.5 292.139,361.459 290.892,364.753C290.086,366.883 289.505,369.136 287.689,370.769C287.082,371.314 286.952,372.193 287.306,373.022C287.642,373.81 288.184,374.407 289.08,374.453C289.841,374.491 290.412,374.006 290.717,373.374C291.414,371.928 292.025,370.439 292.663,368.964C293.751,366.446 295.483,364.504 297.885,363.182C299.632,362.221 301.236,361.017 302.222,359.317C303.122,357.766 304.182,357.771 305.663,358.085C307.343,358.441 309.054,358.59 310.806,358.288C312.639,357.972 314.083,357.288 314.816,355.473C314.941,355.164 315.186,354.903 315.384,354.607C316.524,354.25 317.305,355.262 318.313,355.346C319.225,355.422 320.249,355.266 321.026,355.631C322.988,356.553 324.89,357.632 326.709,358.813C327.466,359.304 327.661,360.35 327.933,361.237C328.549,363.244 329.536,365.038 330.946,366.613C332.258,368.079 333.218,369.792 334.187,371.495C334.812,372.595 335.441,373.698 336.386,374.575C336.993,375.139 337.612,375.67 338.516,375.292C339.2,375.006 339.361,374.018 338.977,372.822C338.619,371.705 338.004,370.735 337.239,369.867C336.021,368.485 334.825,367.076 333.512,365.788C331.8,364.109 330.712,362.193 330.472,359.769C330.152,356.534 328.72,354.088 325.396,353.092C324.519,352.829 324.156,352.224 324.238,351.251C324.335,350.1 324.399,349.01 325.045,347.961C326.749,345.193 325.035,342.208 322.302,341.396C319.973,340.704 317.614,340.256 315.188,340.162C313.819,340.109 312.679,339.618 312.159,338.277C310.864,334.934 310.874,334.803 313.943,333.669C318.251,332.077 322.648,330.716 327.04,329.365C328.694,328.856 330.323,328.314 331.892,327.595C334.5,326.4 337.04,325.034 339.928,324.577C340.375,324.507 340.838,324.347 341.223,324.112C343.621,322.649 346.251,321.883 348.995,321.431C349.691,321.316 350.302,321.006 350.794,320.487L350.874,320.503ZM270.196,356.795C268.999,357.121 267.295,357.387 265.977,358.613C264.927,359.589 264.788,360.946 265.575,361.999C266.388,363.087 268.093,363.38 269.244,362.518C270.666,361.453 271.488,359.971 271.808,358.23C271.94,357.517 271.348,356.82 270.196,356.795ZM259.545,376.925C261.2,376.859 262.399,375.674 262.414,374.09C262.43,372.388 261.062,371.14 259.25,371.202C257.593,371.259 256.416,372.431 256.402,374.037C256.387,375.778 257.714,376.997 259.545,376.925ZM305.374,407.112C305.303,407.026 305.224,406.86 305.161,406.866C303.385,407.022 301.859,406.457 300.441,405.403C299.93,405.024 299.326,405.349 298.87,405.737C298.023,406.458 297.86,407.637 298.456,408.52C299.074,409.435 300.258,409.96 301.125,409.587C302.492,408.999 303.828,408.338 305.16,407.674C305.292,407.608 305.306,407.305 305.374,407.112ZM285.552,399.228C285.579,398.531 285.308,398.255 285.001,398.169C283.907,397.863 282.795,397.591 281.646,397.86C280.42,398.147 279.708,399.22 279.939,400.408C280.15,401.489 281.405,402.344 282.517,402.098C283.794,401.815 284.859,401.19 285.406,399.929C285.536,399.627 285.543,399.273 285.552,399.228ZM266.529,387.398C266.689,387.366 267.041,387.344 267.35,387.22C268.795,386.642 270.159,383.856 269.716,382.303C269.651,382.077 269.116,381.754 268.94,381.825C267.184,382.537 265.772,383.67 264.999,385.453C264.622,386.321 265.366,387.35 266.529,387.398ZM261.332,349.103C260.942,348.148 260.532,347.21 259.553,346.692C258.742,346.263 258.023,346.53 257.281,346.945C256.166,347.568 255.965,348.789 255.37,349.743C254.271,351.506 254.337,352 255.61,353.334C256.006,353.75 256.439,354.133 256.874,354.508C257.977,355.458 258.152,355.419 258.691,353.789C258.886,353.197 259.206,352.813 259.669,352.452C260.747,351.61 260.782,350.238 261.332,349.103ZM254.595,368.481C255.661,368.541 256.537,368.034 257.295,367.297C257.935,366.675 258.794,366.181 258.869,365.164C258.93,364.339 257.849,364.305 257.688,363.601C257.664,363.492 257.594,363.394 257.544,363.291C256.471,361.091 253.78,361.621 252.691,363.725C252.231,364.613 252.044,365.65 251.792,366.635C251.67,367.113 251.952,367.498 252.315,367.813C252.962,368.375 253.732,368.506 254.595,368.481ZM405.248,525.546L405.469,525.62C405.414,525.621 405.336,525.646 405.308,525.619C405.286,525.597 405.266,525.572 405.248,525.546ZM310.075,326.559C309.777,326.081 309.762,325.555 310.174,325.144C311.596,323.725 312.009,321.99 311.858,320.077C311.752,318.737 312.366,317.616 312.854,316.461C314.251,313.153 315.271,309.763 315.4,306.138C315.454,304.625 315.362,303.171 314.837,301.726C314.093,299.676 313.493,297.573 312.768,295.515C311.961,293.223 311.441,290.869 311.234,288.459C311.107,286.987 311.119,285.503 310.644,284.145C311.446,283.481 312.084,284.004 312.663,284.153C316.226,285.072 319.716,286.234 323.124,287.617C326.426,288.957 329.715,290.304 333.145,291.308C334.563,291.723 335.862,292.534 337.235,293.117C338.713,293.744 340.206,294.341 341.718,294.881C341.954,294.965 342.425,294.76 342.602,294.54C342.775,294.325 342.861,293.824 342.726,293.614C342.296,292.942 341.755,292.339 341.239,291.724C340.795,291.196 340.308,290.703 339.874,290.167C338.66,288.668 337.463,287.155 336.201,285.575C337.239,285.16 338.118,285.558 338.996,285.624C339.733,285.679 340.266,286.131 340.635,286.756C342.488,289.89 345.413,291.688 348.663,292.967C349.827,293.425 350.3,294.097 350.424,295.21C350.437,295.325 350.449,295.439 350.466,295.553C351.141,299.937 352.01,300.89 356.474,301.79C357.963,302.09 359.399,302.363 360.513,303.505C361.094,304.1 361.13,304.703 360.539,305.281C360.375,305.442 360.215,305.616 360.025,305.74C356.722,307.9 354.009,310.722 351.239,313.489C349.437,315.289 347.544,317.007 344.714,316.862C340.966,318.354 336.923,318.821 333.135,320.107C327.137,322.143 320.961,323.44 314.856,325.037C313.259,325.455 311.478,325.456 310.156,326.678L310.075,326.55L310.075,326.559ZM310.156,326.678L310.07,326.76L310.068,326.759L310.075,326.559C310.1,326.599 310.127,326.639 310.156,326.678ZM352.147,319.914L352.185,319.854L352.255,319.867L352.177,319.9L352.147,319.914ZM353.956,319.226C354.578,318.656 355.221,318.613 355.889,319.219C355.801,318.829 355.383,318.436 355.825,317.995C357.058,316.768 358.517,315.851 360.014,314.995C363.429,313.043 365.339,310.019 366.212,306.275C366.638,304.448 366.975,302.608 364.989,301.35C364.457,301.013 364.478,300.362 364.269,299.84C363.242,297.277 361.59,295.307 358.914,294.352C357.78,293.947 356.972,293.323 356.586,292.069C356.101,290.493 355.032,289.263 353.636,288.365C352.86,287.867 352.602,287.171 352.712,286.305C352.798,285.624 352.898,284.943 353.026,284.269C353.628,281.101 355.235,278.271 356.099,275.186C356.345,274.309 356.928,273.56 357.684,272.957C358.397,273.403 357.974,273.938 357.847,274.386C356.878,277.812 355.948,281.246 355.4,284.771C355.024,287.191 355.367,289.247 357.737,290.662C358.79,291.291 359.58,292.372 360.456,293.281C361.985,294.867 363.635,296.303 365.718,297.09C367.806,297.879 369.107,299.405 369.978,301.352C370.774,303.132 371.457,304.962 372.243,306.746C372.649,307.667 372.388,308.306 371.576,308.758C366.355,311.661 362.136,316.104 356.592,318.515C356.314,318.636 356.134,318.981 355.908,319.222L353.956,319.226ZM472.445,615.396C472.54,615.524 472.632,615.653 472.705,615.792C472.748,615.875 472.762,616.064 472.729,616.08C472.463,616.206 472.342,616.1 472.385,615.799L472.445,615.396ZM493.798,649.849C499.681,655.139 506.139,659.776 511.586,665.565C512.763,666.816 514.055,668.009 515.466,668.98C521.177,672.912 526.277,677.569 531.412,682.187C534.332,684.814 537.46,687.157 540.803,689.207C543.964,691.146 547.363,692.554 550.992,693.307C552.073,693.531 552.632,693.915 552.719,695.022C552.763,695.588 552.999,696.136 553.09,696.702C553.183,697.282 552.813,697.536 552.295,697.527C550.633,697.497 549.157,696.815 547.756,696.034C542.13,692.899 536.464,689.828 530.953,686.502C526.708,683.939 522.198,681.916 517.839,679.591C516.012,678.617 513.994,678.225 511.83,678.701C509.823,679.143 507.691,678.845 505.711,679.601C504.854,679.929 503.909,680.066 503.106,680.486C498.451,682.923 493.289,683.671 488.288,684.906C485.953,685.483 483.482,685.281 481.076,684.869C480.171,684.714 479.254,684.517 478.344,684.526C475.571,684.553 472.833,684.295 470.117,683.755C467.515,683.238 464.884,682.995 462.236,682.893C460.646,682.831 459.442,682.412 458.743,680.671C458.123,679.127 456.951,677.804 455.921,676.227C457.354,675.88 458.553,676.137 459.75,676.462C463.073,677.364 466.332,678.479 469.738,679.106C471.543,679.438 473.113,680.527 474.703,681.464C476.488,682.516 478.33,683.433 480.389,683.886C481.536,684.139 482.61,684.207 483.784,683.987C487.077,683.37 490.234,682.337 493.369,681.193C495.53,680.404 497.738,679.805 500.033,679.487C502.316,679.17 504.468,678.337 506.632,677.547C508.782,676.763 509.986,674.912 511.817,673.589C508.258,668.271 504.841,663.094 500.387,658.706C498.166,656.518 496.077,654.224 494.375,651.602C494.031,651.072 493.54,650.56 493.798,649.849ZM367.83,529.311C367.655,529.243 367.4,529.222 367.321,529.094C367.151,528.817 367.165,528.481 367.571,528.428C367.706,528.411 367.911,528.632 368.022,528.789C368.182,529.015 368.091,529.208 367.83,529.311ZM429.814,566.853C429.009,566.854 428.423,566.952 427.885,566.836C426.184,566.468 424.469,566.446 422.743,566.408C420.562,566.359 418.377,566.322 416.228,565.821C415.451,565.64 414.632,565.561 413.833,565.568C409.564,565.605 405.373,564.849 401.15,564.405C398.064,564.081 394.992,563.827 391.995,562.921C391.035,562.631 389.941,562.74 388.909,562.738C386.38,562.732 383.85,562.758 381.321,562.79C379.82,562.809 378.379,562.561 376.904,562.239C374.304,561.671 372.341,560.52 370.777,558.25C368.09,554.351 364.715,551.048 360.859,548.259C359.184,547.048 357.583,545.741 356.26,543.798C357.082,543.159 358.012,542.877 358.904,542.504C359.594,542.216 360.229,542.217 360.888,542.539C363.213,543.676 365.65,543.885 368.235,543.923C371.09,543.964 373.943,544.739 376.443,546.242C378.461,547.455 380.531,548.146 382.895,548.373C385.075,548.582 387.192,549.141 389.306,548.11C389.983,547.78 390.655,548.09 391.298,548.346C396.062,550.24 400.955,551.195 406.109,550.578C407.931,550.36 409.78,550.367 411.617,550.279C412.535,550.235 413.488,550.293 414.316,549.838C415.864,548.987 417.386,549.236 418.92,549.822C420.566,550.45 422.12,551.292 422.915,552.923C425.156,557.521 427.828,561.914 429.814,566.853ZM328.387,496.347C328.355,496.454 328.335,496.647 328.289,496.654C328.114,496.679 327.868,496.713 327.761,496.617C327.512,496.395 327.302,496.116 327.126,495.829C326.978,495.589 327.084,495.368 327.359,495.274C327.46,495.24 327.594,495.259 327.701,495.292C328.217,495.452 328.387,495.846 328.387,496.347ZM315.035,348.928C314.168,348.775 313.498,348.574 312.823,348.556C311.088,348.509 310.384,349.382 310.653,351.158C310.714,351.562 311.134,351.927 310.68,352.483C309.012,352.767 307.412,351.966 305.742,351.715C305.223,351.637 304.977,351.179 304.962,350.714C304.901,348.774 304.74,346.821 304.896,344.895C305.108,342.278 305.674,339.693 305.537,337.042C305.503,336.374 305.892,336 306.593,336.024C307.237,336.046 307.665,336.317 307.72,337.014C307.757,337.47 307.744,337.939 307.852,338.378C308.536,341.16 309.832,343.489 312.631,344.672C312.842,344.761 313.047,344.863 313.25,344.968C314.557,345.643 315.152,346.964 315.035,348.928ZM409.602,570.119C412.118,569.169 414.727,569.535 417.303,569.887C418.897,570.105 420.48,570.359 422.083,570.305C426.621,570.153 430.892,571.459 435.185,572.648C435.614,572.767 436.018,573.022 436.39,573.278C436.545,573.384 436.667,573.662 436.655,573.853C436.644,574.028 436.465,574.276 436.301,574.338C435.987,574.458 435.634,574.507 435.294,574.518C431.752,574.637 428.203,574.882 424.708,574.004C424.378,573.921 424.022,573.853 423.688,573.882C420.964,574.122 418.542,573.193 416.082,572.17C413.999,571.303 411.767,570.789 409.602,570.119ZM493.672,649.69L493.396,649.63C493.458,649.614 493.547,649.564 493.579,649.589C493.615,649.616 493.645,649.652 493.672,649.69ZM440.6,659.978L440.598,659.98C439.711,659.885 439.26,659.144 438.711,658.606C434.259,654.242 429.483,650.268 424.393,646.676C420.158,643.686 416.499,639.951 412.074,637.211C411.331,636.751 411.08,636.104 411.072,635.189C411.029,630.582 410.889,625.977 410.801,621.371C410.783,620.452 410.775,619.523 410.889,618.614C411.006,617.687 411.355,616.894 412.381,616.502C414.096,615.847 414.368,614.397 414.124,612.796C413.138,606.335 411.046,600.296 407.2,594.945C406.458,593.913 405.575,592.994 404.451,592.363C404.061,592.144 403.63,591.959 403.17,592.3C402.771,592.596 402.485,592.959 402.566,593.453C402.939,595.72 403.23,598.009 403.762,600.239C404.73,604.293 406.656,607.988 408.332,611.773C408.564,612.298 408.846,612.802 409.101,613.318C409.319,613.758 409.345,614.205 409.04,614.61C407.25,616.984 407.239,619.755 407.252,622.535C407.259,624.143 407.253,625.752 407.253,627.346C406.299,627.488 406.133,626.87 405.947,626.364C405.019,623.837 403.566,621.649 401.743,619.687C400.055,617.87 398.975,615.733 398.551,613.289C398.068,610.502 397.221,607.916 394.869,606.096C394.28,605.64 394.143,604.944 393.881,604.311C393.002,602.182 391.969,600.135 390.843,598.119C389.331,595.413 387.886,592.659 387.906,589.395C387.914,588.221 386.984,587.318 385.739,587.069C384.832,586.888 384.752,587.859 384.124,588.497C382.832,587.505 381.657,586.242 380.067,585.633C378.565,585.057 377.037,584.538 375.575,583.873C374.137,583.219 372.608,582.644 371.672,581.345C371.667,580.493 372.28,580.653 372.651,580.581C376.416,579.854 380.174,579.822 383.98,580.422C387.844,581.031 391.695,581.634 395.463,582.718C397.576,583.326 399.627,584.071 401.506,585.205C404.767,587.173 408.252,588.675 411.689,590.286C413.247,591.016 414.759,591.856 416.24,592.733C417.483,593.469 418.058,594.589 418.406,596.064C419.249,599.64 420.346,603.158 421.436,606.67C421.737,607.641 422.295,608.562 422.871,609.414C424.83,612.313 426.123,615.506 427.049,618.844C428.651,624.62 430.767,630.204 432.955,635.778C434.675,640.163 436.111,644.67 437.47,649.183C438.532,652.709 439.513,656.256 440.798,659.71C440.818,659.765 440.674,659.881 440.6,659.978ZM421.305,348.627L421.305,348.623C422.55,348.886 423.143,349.812 423.908,350.477C425.841,352.156 427.937,353.525 430.405,354.288C432.502,354.937 434.455,355.917 436.393,356.93C438.562,358.065 440.847,358.703 443.314,358.841C447.219,359.06 451.09,359.507 454.844,360.755C458.459,361.957 462.267,362.252 466.005,362.873C469.29,363.419 472.573,363.968 475.778,364.927C478.137,365.633 480.301,366.672 482.082,368.356C485.115,371.224 488.454,373.637 492.164,375.543C492.46,375.695 492.722,375.912 492.881,376.02C492.733,376.948 492.155,376.737 491.761,376.806C491.311,376.884 490.841,376.901 490.384,376.874C487.247,376.686 484.26,377.364 481.205,378.042C474.613,379.505 467.983,379.686 461.51,377.179C459.799,376.516 458.069,375.837 456.286,375.439C452.002,374.483 447.625,374.191 443.261,374.526C438.395,374.9 433.617,374.724 428.896,373.423C427.68,373.088 426.422,372.907 425.189,372.63C422.816,372.096 420.556,371.278 418.556,369.853C415.988,368.024 413.142,366.877 410.067,366.197C407.822,365.701 405.678,364.869 403.59,363.88C401.098,362.7 398.572,361.593 395.891,360.879C393.867,360.341 392.094,359.275 390.368,358.112C387.793,356.376 385.213,354.644 382.591,352.982C378.67,350.497 375.274,347.409 372.122,344.034C370.853,342.676 369.981,341.043 369.151,339.399C368.218,337.552 367.369,335.662 366.427,333.819C365.695,332.387 364.954,330.948 364.078,329.603C362.581,327.303 360.944,325.109 357.691,324.593C359.715,322.414 362.398,322.191 364.537,320.958C366.712,319.704 368.899,318.471 371.233,317.143C372.767,319.035 374.476,320.71 376.363,322.212C379.666,324.841 383.569,326.231 387.435,327.69C388.838,328.219 390.368,328.272 391.871,328.207C393.237,328.148 393.985,328.851 394.431,330.058C395.12,331.921 395.505,333.806 395.143,335.803C394.692,338.292 394.335,340.798 393.84,343.277C393.393,345.513 393.717,347.644 394.552,349.7C395.857,352.912 397.734,355.815 399.63,358.7C399.811,358.977 400.09,359.215 400.374,359.389C400.535,359.488 400.831,359.491 401.006,359.409C401.176,359.329 401.389,359.073 401.374,358.915C401.33,358.462 401.207,358.011 401.067,357.575C400.503,355.825 399.982,354.057 399.331,352.338C398.029,348.899 397.828,345.376 398.48,341.803C399.056,338.646 399.892,335.527 399.226,331.818C403.219,334.2 407.026,335.827 409.526,339.347C410.73,341.043 412.341,342.377 414.142,343.655C413.666,345.115 413.157,346.519 413.458,348.041C413.732,349.423 414.334,350.656 415.019,351.855C416.847,355.057 418.406,358.386 419.83,361.785C420.36,363.049 420.837,364.372 421.791,365.404C421.983,365.612 422.445,365.723 422.726,365.652C422.996,365.584 423.33,365.254 423.393,364.983C423.52,364.437 423.543,363.848 423.503,363.284C423.186,358.802 422.554,354.363 421.571,349.977C421.476,349.552 421.403,349.124 421.305,348.627ZM305.032,262.217C306.787,266.688 308.964,270.318 311.196,273.918C311.317,274.114 311.411,274.325 311.515,274.531C311.778,275.054 312.089,275.684 311.793,276.167C311.463,276.705 310.75,276.537 310.22,276.352C308.433,275.729 306.589,275.843 304.749,275.834C302.492,275.823 300.481,276.685 298.514,277.636C297.412,278.169 296.932,278.986 297.025,280.405C297.218,283.356 298.167,286.023 299.48,288.587C301.29,292.123 302.352,295.786 302.477,299.809C302.592,303.503 303.776,307.047 305.02,310.514C305.63,312.214 305.833,313.782 305.17,315.53C304.687,316.803 304.541,318.211 304.305,319.569C304.126,320.6 303.87,321.588 303.285,322.465C302.809,322.305 302.489,322.003 302.352,321.527C301.906,319.98 301.356,318.453 301.041,316.879C300.136,312.357 298.818,307.953 297.409,303.573C295.958,299.062 295.389,294.377 294.498,289.75C293.879,286.533 294.482,283.618 295.369,280.625C297.321,274.038 300.608,268.16 305.032,262.217ZM506.032,373.206L506.029,373.206C503.745,373.135 502.103,372.67 500.579,371.849C496.222,369.5 491.838,367.191 488.201,363.736C484.098,359.838 479.013,358.208 473.559,357.421C469.35,356.814 465.144,356.185 460.947,355.507C459.476,355.269 457.975,355.009 456.588,354.492C452.443,352.946 448.122,352.368 443.766,351.99C442.235,351.857 440.861,351.424 439.508,350.738C437.151,349.543 434.76,348.415 432.377,347.273C429.976,346.123 428.73,345.052 427.061,342.648C427.441,342.021 428.082,342.263 428.595,342.263C431.502,342.268 434.305,341.666 437.081,340.893C439.073,340.339 441.051,339.735 443.048,339.198C445.171,338.628 447.25,338.021 448.857,336.365C449.728,335.468 450.806,335.483 452.045,335.636C457.073,336.257 462.132,336.619 467.201,336.515C469.262,336.472 471.317,336.089 473.373,335.847C473.865,335.79 474.249,335.483 474.408,335.041C474.619,334.454 474.404,333.877 473.983,333.463C473.236,332.728 472.312,332.242 471.329,331.892C467.282,330.448 463.189,329.508 458.826,330.248C457.024,330.554 455.147,330.587 453.315,330.503C450.372,330.368 447.853,331.085 445.922,333.422C445.241,334.246 444.335,334.81 443.329,335.061C439.536,336.006 435.981,337.77 432.109,338.403C429.388,338.848 426.635,339.109 423.89,339.388C423.35,339.443 422.718,339.329 422.236,339.082C420.186,338.033 418.122,336.972 416.621,335.146C414.872,333.018 413.092,330.921 411.003,329.275C411.132,328.171 411.993,328.186 412.512,327.899C414.864,326.597 416.887,324.92 418.602,322.868C420.226,320.925 421.829,318.964 423.407,316.983C423.953,316.298 424.568,316.002 425.461,316.014C427.648,316.043 429.836,315.982 432.023,315.936C432.827,315.919 433.636,315.891 434.43,315.777C434.867,315.714 435.347,315.444 435.286,314.916C435.255,314.643 434.93,314.25 434.668,314.183C432.341,313.586 430.148,312.437 427.667,312.466C426.604,312.478 425.602,312.13 424.687,311.665C423.495,311.059 422.434,311.282 421.438,311.958C420.394,312.667 419.371,313.427 418.438,314.275C416.563,315.978 414.694,317.695 412.936,319.516C409.593,322.98 405.373,323.001 401.053,322.702C400.732,322.68 400.409,322.466 400.116,322.293C397.184,320.556 393.982,320.498 390.731,320.788C388.075,321.025 385.462,320.876 382.841,320.32C379.167,319.54 376.082,317.639 372.874,315.619C373.766,314.62 374.58,313.807 375.278,312.904C376.644,311.138 377.734,309.26 377.114,306.875C376.946,306.23 377.211,305.779 377.762,305.444C380.615,303.711 383.456,301.971 386.823,301.355C388.857,300.983 390.86,300.428 392.899,300.091C396.142,299.556 399.338,300.15 402.476,300.873C404.748,301.397 407.024,301.592 409.326,301.559C411.765,301.524 414.145,301.894 416.514,302.388C418.771,302.859 421.032,303.202 423.352,303.199C425.307,303.196 427.247,303.409 429.154,303.937C430.815,304.397 432.506,304.761 434.198,305.092C436.863,305.614 439.178,306.711 441.135,308.661C443.543,311.06 446.617,312.458 449.678,313.782C454.046,315.672 458.052,318.131 461.73,321.118C465.41,324.106 469.32,326.729 473.529,328.897C475.902,330.119 478.058,331.629 480.025,333.423C482.665,335.83 485.389,338.13 488.325,340.177C490.329,341.574 492.007,343.311 493.288,345.403C494.677,347.671 496.252,349.794 498.135,351.675C499.638,353.178 500.633,354.967 501.218,356.994C501.728,358.763 502.22,360.536 502.715,362.309C503.704,365.849 504.483,369.45 506.032,373.206ZM219.301,62.211C223.658,62.553 228.017,62.877 232.372,63.246C234.906,63.461 237.338,64.129 239.739,64.968C242.557,65.952 245.411,66.834 248.254,67.747C249.578,68.172 250.797,68.754 251.901,69.635C252.974,70.492 254.131,71.256 255.311,71.961C256.635,72.752 257.634,73.798 258.407,75.126C262.099,81.47 267.761,85.426 274.369,88.221C274.474,88.266 274.588,88.291 274.695,88.332C275.874,88.777 276.066,88.964 275.828,90.017C275.423,91.807 275.027,93.614 274.417,95.34C273.305,98.482 272.061,101.579 270.834,104.68C267.702,112.592 264.556,120.499 261.398,128.4C260.886,129.681 260.363,130.968 259.71,132.179C257.317,136.614 256.292,141.436 255.6,146.354C255.256,148.794 255.911,151.153 256.363,153.517C256.73,155.436 257.359,157.302 257.426,159.279C257.454,160.106 257.475,160.868 256.625,161.382C255.601,162.001 255.095,163.066 254.493,164.048C253.655,165.415 252.94,166.866 251.654,167.925C251.23,168.274 250.887,168.814 250.695,169.335C248.744,174.633 245.273,178.937 241.522,182.988C239.71,184.946 238.316,186.854 238.463,189.623C238.492,190.183 238.318,190.762 238.187,191.32C238.037,191.955 237.612,192.364 236.947,192.187C235.621,191.834 234.522,192.331 233.321,192.812C226.911,195.38 220.682,198.32 214.652,201.682C213.95,202.074 213.096,202.358 212.609,202.94C211.127,204.712 209.52,204.363 207.725,203.592C206.571,203.096 205.336,202.779 204.123,202.43C200.899,201.503 198.454,199.505 196.431,196.912C196.148,196.549 195.85,196.193 195.608,195.803C192.09,190.141 188.295,184.653 185.113,178.779C183.141,175.139 181.166,171.48 178.885,168.034C173.602,160.053 170.292,151.289 168.062,142.061C166.966,137.527 166.954,132.915 167.549,128.334C168.337,122.27 168.884,116.197 168.637,110.09C168.456,105.598 169.623,101.472 171.25,97.364C174.316,89.623 179.329,83.5 186.179,78.838C193.121,74.113 200.125,69.485 207.5,65.45C207.803,65.285 208.111,65.129 208.409,64.955C211.776,62.993 215.37,61.967 219.301,62.211ZM206.357,97.717C205.726,96.712 205.111,95.619 204.382,94.609C203.778,93.773 202.597,93.904 202.096,94.793C201.698,95.499 201.406,96.251 201.417,97.074C201.43,98.045 202.318,99.173 203.196,99.39C204.076,99.608 205.855,98.86 206.199,98.126C206.247,98.024 206.28,97.916 206.357,97.717ZM182.595,141.701C181.222,141.722 180.227,143.002 180.335,144.606C180.412,145.744 181.251,146.484 182.333,146.591C183.825,146.74 185.545,144.873 185.371,143.871C185.203,142.901 183.715,141.682 182.595,141.701ZM193.781,89.042C191.384,88.956 189.019,91.314 188.897,93.866C188.869,94.441 189.566,94.895 190.109,94.605C192.11,93.537 194.103,92.455 196.082,91.346C196.751,90.972 196.661,90.098 196.011,89.691C195.304,89.248 194.526,89.14 193.781,89.042ZM182.032,94.148C183.592,94.134 184.228,93.367 183.539,91.997C183.39,91.702 183.374,91.342 183.29,91.014C182.826,89.209 180.791,88.463 179.389,89.627C178.745,90.162 178.419,90.895 178.671,91.779C179.107,93.308 180.247,94.113 182.032,94.148ZM176.921,110.702C176.98,111.665 177.274,112.509 178.135,113.054C179.307,113.795 180.634,113.328 181.962,111.714C182.947,110.517 183.002,109.259 182.112,108.3C181.254,107.374 180.034,107.04 178.983,107.444C177.626,107.965 176.866,109.167 176.921,110.702ZM193.61,111.898C194.299,111.897 195.339,111.863 195.242,111.124C195.082,109.904 195.677,108.991 195.912,107.937C196.119,107.007 195.9,106.122 195.105,105.49C194.255,104.815 192.853,104.745 191.895,105.298C191.039,105.793 190.536,106.86 190.778,107.933C190.949,108.693 191.279,109.416 191.531,110.158C192.015,111.586 192.302,111.828 193.61,111.898ZM201.574,84.307C201.96,84.313 202.652,84.192 203.114,83.618C203.828,82.73 204.515,81.813 205.135,80.858C205.527,80.254 205.542,79.553 205.117,78.919C204.69,78.282 203.759,78.001 202.97,78.294C201.253,78.932 200.135,80.183 199.511,81.871C199.11,82.956 200.037,84.201 201.574,84.307ZM182.322,131.039C183.237,130.774 184.12,130.545 184.983,130.256C185.411,130.113 185.843,129.865 185.941,129.376C186.077,128.696 185.633,128.287 185.077,128.095C184.375,127.852 184.065,127.392 183.711,126.747C183.112,125.657 181.644,125.328 180.428,125.744C179.566,126.039 179.017,126.857 179.013,127.875C179.008,129.126 179.495,130.107 180.684,130.607C181.2,130.824 181.776,130.899 182.322,131.039ZM467.627,607.448C468.814,606.803 468.89,607.799 469.493,608.793L467.624,607.465L467.627,607.448ZM472.288,615.162C472.081,615.15 471.856,615.168 471.874,614.812C471.874,614.799 472.033,614.763 472.05,614.787C472.136,614.907 472.212,615.035 472.288,615.162ZM474.009,620.617C474.93,620.661 474.772,621.217 474.693,621.736C474.713,621.245 474.477,620.876 474.009,620.617ZM421.519,185.001L421.529,184.994L421.751,185.09L421.519,185.001ZM325.208,474.592C324.947,474.599 324.658,474.706 324.469,474.452C324.715,474.499 324.961,474.544 325.208,474.589L325.208,474.592ZM325.208,474.589C325.204,474.563 325.208,474.554 325.215,474.59L325.208,474.589ZM325.215,474.59L325.227,474.592L325.215,474.592L325.215,474.59ZM325.215,474.592L325.223,474.645C325.215,474.626 325.211,474.607 325.208,474.592L325.215,474.592ZM412.415,282.119C410.668,282.165 409.393,283.267 409.389,284.734C409.386,286.178 410.607,287.256 412.115,287.139C413.6,287.024 414.817,285.623 414.766,284.09C414.727,282.947 413.7,282.085 412.415,282.119ZM381.135,282.471C381.096,282.255 381.113,282.002 381.008,281.817C380.241,280.46 377.894,279.589 376.511,280.125C375.751,280.42 375.026,281.464 375.024,282.267C375.023,283.092 375.688,284.005 376.551,284.362C377.671,284.825 380.146,284.124 380.9,283.109C381.028,282.936 381.058,282.69 381.135,282.471ZM421.727,273.138C421.696,271.629 420.282,270.33 418.812,270.459C417.731,270.554 416.619,271.671 416.575,272.706C416.516,274.094 417.958,275.519 419.447,275.545C420.785,275.568 421.756,274.543 421.727,273.138ZM395.921,274.661C396.432,274.528 397.225,274.409 397.942,274.107C398.458,273.89 398.819,273.376 398.845,272.764C398.871,272.141 398.505,271.624 398.014,271.375C396.881,270.801 395.643,270.626 394.383,270.872C393.179,271.108 392.689,272.433 393.32,273.532C393.855,274.463 394.727,274.573 395.921,274.661ZM398.149,284.177C398.114,283.095 397.042,282.461 396.403,282.914C394.964,283.934 393.88,285.177 394.114,287.121C394.21,287.919 394.877,288.616 395.635,288.711C396.34,288.799 397.31,288.269 397.492,287.542C397.791,286.344 397.971,285.116 398.149,284.177ZM388.839,287.552C387.843,287.612 386.918,287.537 386.125,288.094C385.536,288.507 385.147,289.038 385.241,289.797C385.336,290.564 385.839,291.03 386.546,291.164C388.097,291.458 389.45,291.004 390.517,289.834C391.138,289.154 390.665,287.886 389.745,287.684C389.416,287.612 389.078,287.585 388.839,287.552ZM433.364,288.71C432.214,288.786 431.422,289.163 430.934,290.03C430.499,290.805 431.206,292.11 432.08,292.048C433.084,291.977 434.094,291.817 434.944,291.167C435.612,290.656 435.565,289.533 434.799,289.178C434.294,288.944 433.734,288.828 433.364,288.71ZM440.867,282.076C442.113,282.017 443.091,281.062 443.022,279.972C442.975,279.242 442.211,278.611 441.374,278.612C440.014,278.614 439.072,279.392 439.063,280.522C439.055,281.463 439.823,282.125 440.867,282.076Z" style="fill:rgb(107,145,146);"/>
        </g>
    </g>
</svg>
