<?xml version="1.0" encoding="UTF-8" standalone="no"?>
<!DOCTYPE svg PUBLIC "-//W3C//DTD SVG 1.1//EN" "http://www.w3.org/Graphics/SVG/1.1/DTD/svg11.dtd">
<svg width="100%" height="100%" viewBox="0 0 942 140" version="1.1" xmlns="http://www.w3.org/2000/svg" xmlns:xlink="http://www.w3.org/1999/xlink" xml:space="preserve" xmlns:serif="http://www.serif.com/" style="fill-rule:evenodd;clip-rule:evenodd;stroke-linejoin:round;stroke-miterlimit:2;">
    <g transform="matrix(1,0,0,1,-4919.49,-6949.04)">
        <g transform="matrix(1.42269,0,0,0.991814,-853.845,6094.42)">
            <g transform="matrix(2.82168,0,0,4.0475,3075.4,16.1433)">
                <g transform="matrix(50,0,0,50,389.049,243)">
                    <path d="M0.126,0.012C0.257,0.012 0.4,-0.153 0.4,-0.304C0.4,-0.452 0.319,-0.54 0.194,-0.54C0.125,-0.54 0.076,-0.517 0.076,-0.474C0.076,-0.454 0.089,-0.442 0.112,-0.442C0.125,-0.442 0.137,-0.453 0.145,-0.467C0.152,-0.479 0.164,-0.489 0.195,-0.489C0.301,-0.489 0.37,-0.435 0.37,-0.303C0.37,-0.175 0.241,-0.02 0.136,-0.02C0.105,-0.02 0.09,-0.036 0.09,-0.066C0.09,-0.136 0.138,-0.212 0.197,-0.266C0.223,-0.293 0.248,-0.324 0.248,-0.355C0.248,-0.381 0.211,-0.398 0.175,-0.398C0.111,-0.398 0.08,-0.369 0.08,-0.335C0.08,-0.321 0.089,-0.311 0.101,-0.311C0.115,-0.311 0.126,-0.319 0.133,-0.337C0.136,-0.347 0.151,-0.359 0.18,-0.359C0.208,-0.359 0.219,-0.354 0.219,-0.342C0.219,-0.314 0.144,-0.254 0.118,-0.23C0.059,-0.175 0.035,-0.125 0.035,-0.066C0.035,-0.019 0.064,0.012 0.126,0.012L0.126,0.012Z" style="fill-rule:nonzero;"/>
                </g>
                <g transform="matrix(50,0,0,50,389.049,243)">
                </g>
                <g transform="matrix(50,0,0,50,430.549,243)">
                    <path d="M0.224,0.012C0.366,0.012 0.473,-0.129 0.539,-0.302C0.601,-0.465 0.662,-0.598 0.78,-0.598C0.809,-0.598 0.843,-0.593 0.882,-0.587C0.852,-0.555 0.821,-0.513 0.79,-0.46L0.628,-0.185C0.591,-0.123 0.564,-0.084 0.544,-0.063C0.522,-0.041 0.508,-0.029 0.508,-0.015C0.508,0.001 0.52,0.012 0.544,0.012C0.564,0.012 0.577,0.005 0.585,-0.013C0.604,-0.055 0.633,-0.125 0.683,-0.211L0.733,-0.296C0.78,-0.332 0.826,-0.357 0.868,-0.357C0.887,-0.357 0.897,-0.345 0.897,-0.328C0.897,-0.298 0.889,-0.271 0.837,-0.212L0.79,-0.16C0.735,-0.099 0.721,-0.078 0.721,-0.039C0.721,-0.007 0.746,0.012 0.779,0.012C0.828,0.012 0.895,-0.05 0.895,-0.073C0.895,-0.076 0.893,-0.078 0.89,-0.078C0.883,-0.078 0.877,-0.067 0.852,-0.049C0.838,-0.039 0.82,-0.034 0.802,-0.034C0.781,-0.034 0.766,-0.044 0.766,-0.067C0.766,-0.089 0.777,-0.111 0.822,-0.161L0.913,-0.262C0.947,-0.299 0.961,-0.318 0.961,-0.347C0.961,-0.374 0.944,-0.398 0.902,-0.398C0.853,-0.398 0.81,-0.381 0.764,-0.347L0.826,-0.453C0.859,-0.51 0.893,-0.552 0.924,-0.581C0.969,-0.574 1.018,-0.568 1.065,-0.568C1.113,-0.568 1.147,-0.595 1.147,-0.627C1.147,-0.659 1.113,-0.681 1.065,-0.681C1.015,-0.681 0.962,-0.662 0.906,-0.611C0.707,-0.629 0.603,-0.682 0.447,-0.682C0.289,-0.682 0.163,-0.612 0.163,-0.48C0.163,-0.369 0.244,-0.337 0.316,-0.337C0.416,-0.337 0.469,-0.399 0.469,-0.467C0.469,-0.492 0.452,-0.505 0.43,-0.505C0.404,-0.505 0.39,-0.489 0.39,-0.47C0.39,-0.441 0.424,-0.44 0.424,-0.422C0.424,-0.395 0.385,-0.377 0.323,-0.377C0.262,-0.377 0.216,-0.413 0.216,-0.481C0.216,-0.588 0.327,-0.656 0.451,-0.656C0.523,-0.656 0.635,-0.635 0.727,-0.609C0.599,-0.587 0.533,-0.441 0.476,-0.309C0.401,-0.134 0.325,-0.006 0.224,-0.006C0.18,-0.006 0.16,-0.016 0.16,-0.031C0.16,-0.046 0.183,-0.049 0.183,-0.073C0.183,-0.093 0.165,-0.109 0.142,-0.109C0.112,-0.109 0.1,-0.089 0.1,-0.064C0.1,-0.025 0.137,0.012 0.224,0.012L0.224,0.012ZM0.958,-0.608C0.99,-0.63 1.019,-0.638 1.044,-0.638C1.065,-0.638 1.078,-0.632 1.078,-0.622C1.078,-0.613 1.065,-0.606 1.044,-0.606C1.013,-0.606 0.985,-0.606 0.958,-0.608L0.958,-0.608Z" style="fill-rule:nonzero;"/>
                </g>
                <g transform="matrix(50,0,0,50,579.249,243)">
                </g>
                <text x="347.699px" y="243px" style="font-family:'LDNBowScript-Regular', 'LDN Bow Script';font-size:50px;">Sa<tspan x="407.549px 421.549px 476.949px " y="243px 243px 243px ">e e</tspan> Date</text>
            </g>
        </g>
    </g>
</svg>
