<?xml version="1.0" encoding="UTF-8" standalone="no"?>
<!DOCTYPE svg PUBLIC "-//W3C//DTD SVG 1.1//EN" "http://www.w3.org/Graphics/SVG/1.1/DTD/svg11.dtd">
<svg width="100%" height="100%" viewBox="0 0 942 140" version="1.1" xmlns="http://www.w3.org/2000/svg" xmlns:xlink="http://www.w3.org/1999/xlink" xml:space="preserve" xmlns:serif="http://www.serif.com/" style="fill-rule:evenodd;clip-rule:evenodd;stroke-linejoin:round;stroke-miterlimit:2;">
    <g transform="matrix(1,0,0,1,-4919.49,-6949.04)">
        <g transform="matrix(1.42269,0,0,0.991814,-853.845,6094.42)">
            <g transform="matrix(2.82168,0,0,4.0475,3075.4,16.1433)">
                <g transform="matrix(50,0,0,50,347.699,243)">
                    <path d="M0.17,0.012C0.349,0.012 0.42,-0.138 0.42,-0.247C0.42,-0.308 0.391,-0.35 0.349,-0.401C0.322,-0.433 0.304,-0.472 0.304,-0.506C0.304,-0.588 0.365,-0.644 0.447,-0.644C0.531,-0.644 0.565,-0.608 0.565,-0.561C0.565,-0.508 0.531,-0.481 0.495,-0.481C0.465,-0.481 0.454,-0.489 0.454,-0.504C0.454,-0.519 0.477,-0.524 0.477,-0.555C0.477,-0.567 0.468,-0.586 0.441,-0.586C0.415,-0.586 0.399,-0.567 0.399,-0.54C0.399,-0.488 0.439,-0.454 0.495,-0.454C0.55,-0.454 0.592,-0.504 0.592,-0.564C0.592,-0.631 0.545,-0.682 0.447,-0.682C0.333,-0.682 0.233,-0.605 0.233,-0.501C0.233,-0.451 0.258,-0.407 0.292,-0.358C0.331,-0.303 0.354,-0.273 0.354,-0.217C0.354,-0.106 0.265,-0.026 0.172,-0.026C0.106,-0.026 0.054,-0.064 0.054,-0.126C0.054,-0.193 0.107,-0.243 0.167,-0.243C0.204,-0.243 0.22,-0.23 0.22,-0.214C0.22,-0.202 0.214,-0.197 0.201,-0.191C0.187,-0.185 0.178,-0.173 0.178,-0.153C0.178,-0.134 0.194,-0.122 0.216,-0.122C0.243,-0.122 0.266,-0.143 0.266,-0.187C0.266,-0.233 0.232,-0.273 0.17,-0.273C0.089,-0.273 0.011,-0.215 0.011,-0.121C0.011,-0.028 0.085,0.012 0.17,0.012L0.17,0.012Z" style="fill-rule:nonzero;"/>
                </g>
                <g transform="matrix(50,0,0,50,369.749,243)">
                    <path d="M0.066,0.012C0.106,0.012 0.148,-0.013 0.187,-0.048C0.181,-0.008 0.208,0.012 0.239,0.012C0.276,0.012 0.308,-0.009 0.331,-0.031C0.351,-0.05 0.365,-0.069 0.365,-0.078C0.365,-0.08 0.363,-0.082 0.36,-0.082C0.357,-0.082 0.353,-0.081 0.35,-0.077C0.314,-0.044 0.29,-0.033 0.258,-0.033C0.24,-0.033 0.232,-0.04 0.232,-0.053C0.232,-0.066 0.235,-0.078 0.249,-0.101L0.405,-0.369C0.408,-0.373 0.411,-0.38 0.411,-0.386C0.411,-0.393 0.405,-0.398 0.396,-0.398C0.383,-0.398 0.376,-0.392 0.37,-0.382L0.348,-0.348C0.342,-0.381 0.322,-0.398 0.289,-0.398C0.159,-0.398 0.005,-0.146 0.005,-0.048C0.005,-0.009 0.026,0.012 0.066,0.012L0.066,0.012ZM0.063,-0.081C0.063,-0.195 0.185,-0.346 0.261,-0.346C0.281,-0.346 0.293,-0.329 0.293,-0.302C0.293,-0.191 0.17,-0.04 0.096,-0.04C0.078,-0.04 0.063,-0.051 0.063,-0.081L0.063,-0.081Z" style="fill-rule:nonzero;"/>
                </g>
                <g transform="matrix(50,0,0,50,389.049,243)">
                    <path d="M0.126,0.012C0.257,0.012 0.4,-0.153 0.4,-0.304C0.4,-0.452 0.319,-0.54 0.194,-0.54C0.125,-0.54 0.076,-0.517 0.076,-0.474C0.076,-0.454 0.089,-0.442 0.112,-0.442C0.125,-0.442 0.137,-0.453 0.145,-0.467C0.152,-0.479 0.164,-0.489 0.195,-0.489C0.301,-0.489 0.37,-0.435 0.37,-0.303C0.37,-0.175 0.241,-0.02 0.136,-0.02C0.105,-0.02 0.09,-0.036 0.09,-0.066C0.09,-0.136 0.138,-0.212 0.197,-0.266C0.223,-0.293 0.248,-0.324 0.248,-0.355C0.248,-0.381 0.211,-0.398 0.175,-0.398C0.111,-0.398 0.08,-0.369 0.08,-0.335C0.08,-0.321 0.089,-0.311 0.101,-0.311C0.115,-0.311 0.126,-0.319 0.133,-0.337C0.136,-0.347 0.151,-0.359 0.18,-0.359C0.208,-0.359 0.219,-0.354 0.219,-0.342C0.219,-0.314 0.144,-0.254 0.118,-0.23C0.059,-0.175 0.035,-0.125 0.035,-0.066C0.035,-0.019 0.064,0.012 0.126,0.012L0.126,0.012Z" style="fill-rule:nonzero;"/>
                </g>
                <g transform="matrix(50,0,0,50,407.549,243)">
                    <path d="M0.089,0.012C0.149,0.012 0.21,-0.051 0.241,-0.109C0.244,-0.115 0.245,-0.12 0.245,-0.123C0.245,-0.125 0.244,-0.128 0.24,-0.128C0.236,-0.128 0.232,-0.124 0.226,-0.116C0.187,-0.059 0.149,-0.037 0.109,-0.037C0.08,-0.037 0.067,-0.054 0.067,-0.078C0.067,-0.124 0.085,-0.172 0.111,-0.216C0.123,-0.211 0.136,-0.209 0.155,-0.209C0.262,-0.209 0.35,-0.292 0.35,-0.347C0.35,-0.38 0.327,-0.397 0.296,-0.397C0.205,-0.397 0.01,-0.212 0.01,-0.071C0.01,-0.013 0.041,0.012 0.089,0.012L0.089,0.012ZM0.124,-0.236C0.167,-0.298 0.226,-0.344 0.267,-0.344C0.284,-0.344 0.296,-0.334 0.296,-0.321C0.296,-0.285 0.227,-0.231 0.166,-0.231C0.143,-0.231 0.133,-0.233 0.124,-0.236L0.124,-0.236Z" style="fill-rule:nonzero;"/>
                </g>
                <g transform="matrix(50,0,0,50,430.549,243)">
                    <path d="M0.224,0.012C0.366,0.012 0.473,-0.129 0.539,-0.302C0.601,-0.465 0.662,-0.598 0.78,-0.598C0.809,-0.598 0.843,-0.593 0.882,-0.587C0.852,-0.555 0.821,-0.513 0.79,-0.46L0.628,-0.185C0.591,-0.123 0.564,-0.084 0.544,-0.063C0.522,-0.041 0.508,-0.029 0.508,-0.015C0.508,0.001 0.52,0.012 0.544,0.012C0.564,0.012 0.577,0.005 0.585,-0.013C0.604,-0.055 0.633,-0.125 0.683,-0.211L0.733,-0.296C0.78,-0.332 0.826,-0.357 0.868,-0.357C0.887,-0.357 0.897,-0.345 0.897,-0.328C0.897,-0.298 0.889,-0.271 0.837,-0.212L0.79,-0.16C0.735,-0.099 0.721,-0.078 0.721,-0.039C0.721,-0.007 0.746,0.012 0.779,0.012C0.828,0.012 0.895,-0.05 0.895,-0.073C0.895,-0.076 0.893,-0.078 0.89,-0.078C0.883,-0.078 0.877,-0.067 0.852,-0.049C0.838,-0.039 0.82,-0.034 0.802,-0.034C0.781,-0.034 0.766,-0.044 0.766,-0.067C0.766,-0.089 0.777,-0.111 0.822,-0.161L0.913,-0.262C0.947,-0.299 0.961,-0.318 0.961,-0.347C0.961,-0.374 0.944,-0.398 0.902,-0.398C0.853,-0.398 0.81,-0.381 0.764,-0.347L0.826,-0.453C0.859,-0.51 0.893,-0.552 0.924,-0.581C0.969,-0.574 1.018,-0.568 1.065,-0.568C1.113,-0.568 1.147,-0.595 1.147,-0.627C1.147,-0.659 1.113,-0.681 1.065,-0.681C1.015,-0.681 0.962,-0.662 0.906,-0.611C0.707,-0.629 0.603,-0.682 0.447,-0.682C0.289,-0.682 0.163,-0.612 0.163,-0.48C0.163,-0.369 0.244,-0.337 0.316,-0.337C0.416,-0.337 0.469,-0.399 0.469,-0.467C0.469,-0.492 0.452,-0.505 0.43,-0.505C0.404,-0.505 0.39,-0.489 0.39,-0.47C0.39,-0.441 0.424,-0.44 0.424,-0.422C0.424,-0.395 0.385,-0.377 0.323,-0.377C0.262,-0.377 0.216,-0.413 0.216,-0.481C0.216,-0.588 0.327,-0.656 0.451,-0.656C0.523,-0.656 0.635,-0.635 0.727,-0.609C0.599,-0.587 0.533,-0.441 0.476,-0.309C0.401,-0.134 0.325,-0.006 0.224,-0.006C0.18,-0.006 0.16,-0.016 0.16,-0.031C0.16,-0.046 0.183,-0.049 0.183,-0.073C0.183,-0.093 0.165,-0.109 0.142,-0.109C0.112,-0.109 0.1,-0.089 0.1,-0.064C0.1,-0.025 0.137,0.012 0.224,0.012L0.224,0.012ZM0.958,-0.608C0.99,-0.63 1.019,-0.638 1.044,-0.638C1.065,-0.638 1.078,-0.632 1.078,-0.622C1.078,-0.613 1.065,-0.606 1.044,-0.606C1.013,-0.606 0.985,-0.606 0.958,-0.608L0.958,-0.608Z" style="fill-rule:nonzero;"/>
                </g>
                <g transform="matrix(50,0,0,50,476.949,243)">
                    <path d="M0.089,0.012C0.149,0.012 0.21,-0.051 0.241,-0.109C0.244,-0.115 0.245,-0.12 0.245,-0.123C0.245,-0.125 0.244,-0.128 0.24,-0.128C0.236,-0.128 0.232,-0.124 0.226,-0.116C0.187,-0.059 0.149,-0.037 0.109,-0.037C0.08,-0.037 0.067,-0.054 0.067,-0.078C0.067,-0.124 0.085,-0.172 0.111,-0.216C0.123,-0.211 0.136,-0.209 0.155,-0.209C0.262,-0.209 0.35,-0.292 0.35,-0.347C0.35,-0.38 0.327,-0.397 0.296,-0.397C0.205,-0.397 0.01,-0.212 0.01,-0.071C0.01,-0.013 0.041,0.012 0.089,0.012L0.089,0.012ZM0.124,-0.236C0.167,-0.298 0.226,-0.344 0.267,-0.344C0.284,-0.344 0.296,-0.334 0.296,-0.321C0.296,-0.285 0.227,-0.231 0.166,-0.231C0.143,-0.231 0.133,-0.233 0.124,-0.236L0.124,-0.236Z" style="fill-rule:nonzero;"/>
                </g>
                <g transform="matrix(50,0,0,50,499.949,243)">
                    <path d="M-0.012,-0C0.026,-0 0.082,-0.002 0.123,-0.002C0.178,-0.002 0.216,-0 0.315,-0C0.591,-0 0.732,-0.218 0.732,-0.411C0.732,-0.588 0.59,-0.682 0.414,-0.682C0.202,-0.682 0.056,-0.549 0.056,-0.391C0.056,-0.347 0.064,-0.313 0.074,-0.289C0.077,-0.283 0.082,-0.28 0.086,-0.28C0.091,-0.28 0.093,-0.283 0.093,-0.288C0.093,-0.29 0.093,-0.293 0.092,-0.296C0.083,-0.321 0.077,-0.346 0.077,-0.391C0.077,-0.557 0.239,-0.657 0.414,-0.657C0.568,-0.657 0.664,-0.562 0.664,-0.411C0.664,-0.229 0.535,-0.025 0.311,-0.024C0.219,-0.024 0.203,-0.047 0.221,-0.091L0.42,-0.579C0.426,-0.596 0.419,-0.604 0.392,-0.604C0.367,-0.604 0.354,-0.597 0.346,-0.577L0.148,-0.09C0.125,-0.032 0.07,-0.024 -0.013,-0.024C-0.024,-0.024 -0.031,-0.021 -0.031,-0.013C-0.031,-0.003 -0.026,0 -0.013,0L-0.012,-0Z" style="fill-rule:nonzero;"/>
                </g>
                <g transform="matrix(50,0,0,50,534.849,243)">
                    <path d="M0.066,0.012C0.106,0.012 0.148,-0.013 0.187,-0.048C0.181,-0.008 0.208,0.012 0.239,0.012C0.276,0.012 0.308,-0.009 0.331,-0.031C0.351,-0.05 0.365,-0.069 0.365,-0.078C0.365,-0.08 0.363,-0.082 0.36,-0.082C0.357,-0.082 0.353,-0.081 0.35,-0.077C0.314,-0.044 0.29,-0.033 0.258,-0.033C0.24,-0.033 0.232,-0.04 0.232,-0.053C0.232,-0.066 0.235,-0.078 0.249,-0.101L0.405,-0.369C0.408,-0.373 0.411,-0.38 0.411,-0.386C0.411,-0.393 0.405,-0.398 0.396,-0.398C0.383,-0.398 0.376,-0.392 0.37,-0.382L0.348,-0.348C0.342,-0.381 0.322,-0.398 0.289,-0.398C0.159,-0.398 0.005,-0.146 0.005,-0.048C0.005,-0.009 0.026,0.012 0.066,0.012L0.066,0.012ZM0.063,-0.081C0.063,-0.195 0.185,-0.346 0.261,-0.346C0.281,-0.346 0.293,-0.329 0.293,-0.302C0.293,-0.191 0.17,-0.04 0.096,-0.04C0.078,-0.04 0.063,-0.051 0.063,-0.081L0.063,-0.081Z" style="fill-rule:nonzero;"/>
                </g>
                <g transform="matrix(50,0,0,50,554.149,243)">
                    <path d="M0.055,0.012C0.111,0.012 0.15,-0.016 0.191,-0.091C0.194,-0.097 0.195,-0.1 0.195,-0.104C0.195,-0.11 0.19,-0.115 0.184,-0.115C0.176,-0.115 0.172,-0.111 0.167,-0.101C0.149,-0.064 0.11,-0.032 0.079,-0.032C0.064,-0.032 0.053,-0.039 0.053,-0.061C0.053,-0.099 0.086,-0.165 0.128,-0.231L0.205,-0.352L0.289,-0.353C0.31,-0.353 0.317,-0.366 0.317,-0.377C0.317,-0.384 0.311,-0.386 0.299,-0.386L0.224,-0.386L0.265,-0.452C0.292,-0.495 0.308,-0.51 0.308,-0.52C0.308,-0.524 0.3,-0.53 0.284,-0.53C0.267,-0.53 0.26,-0.526 0.255,-0.517C0.249,-0.507 0.24,-0.486 0.229,-0.465L0.188,-0.386L0.13,-0.386C0.111,-0.386 0.107,-0.372 0.108,-0.366C0.108,-0.355 0.115,-0.352 0.123,-0.352L0.166,-0.352L0.067,-0.196C0.023,-0.126 -0.005,-0.079 -0.005,-0.044C-0.005,-0.009 0.015,0.012 0.055,0.012L0.055,0.012Z" style="fill-rule:nonzero;"/>
                </g>
                <g transform="matrix(50,0,0,50,565.249,243)">
                    <path d="M0.089,0.012C0.149,0.012 0.21,-0.051 0.241,-0.109C0.244,-0.115 0.245,-0.12 0.245,-0.123C0.245,-0.125 0.244,-0.128 0.24,-0.128C0.236,-0.128 0.232,-0.124 0.226,-0.116C0.187,-0.059 0.149,-0.037 0.109,-0.037C0.08,-0.037 0.067,-0.054 0.067,-0.078C0.067,-0.124 0.085,-0.172 0.111,-0.216C0.123,-0.211 0.136,-0.209 0.155,-0.209C0.262,-0.209 0.35,-0.292 0.35,-0.347C0.35,-0.38 0.327,-0.397 0.296,-0.397C0.205,-0.397 0.01,-0.212 0.01,-0.071C0.01,-0.013 0.041,0.012 0.089,0.012L0.089,0.012ZM0.124,-0.236C0.167,-0.298 0.226,-0.344 0.267,-0.344C0.284,-0.344 0.296,-0.334 0.296,-0.321C0.296,-0.285 0.227,-0.231 0.166,-0.231C0.143,-0.231 0.133,-0.233 0.124,-0.236L0.124,-0.236Z" style="fill-rule:nonzero;"/>
                </g>
            </g>
        </g>
    </g>
</svg>
