<?xml version="1.0" encoding="UTF-8" standalone="no"?>
<!DOCTYPE svg PUBLIC "-//W3C//DTD SVG 1.1//EN" "http://www.w3.org/Graphics/SVG/1.1/DTD/svg11.dtd">
<svg width="100%" height="100%" viewBox="0 0 320 195" version="1.1" xmlns="http://www.w3.org/2000/svg" xmlns:xlink="http://www.w3.org/1999/xlink" xml:space="preserve" xmlns:serif="http://www.serif.com/" style="fill-rule:evenodd;clip-rule:evenodd;stroke-linejoin:round;stroke-miterlimit:2;">
    <g transform="matrix(1,0,0,1,-931.376,-850.354)">
        <g transform="matrix(1,0,0,1,427.938,431.381)">
            <path d="M530.461,570.236C513.372,554.758 503.438,536.14 503.438,516.143C503.438,511.342 504.011,506.621 505.117,502.003C505.28,501.326 505.453,500.651 505.639,499.979C509.849,484.685 519.935,470.585 534.472,458.583C563.53,434.592 610.416,418.973 663.277,418.973C716.139,418.973 763.025,434.592 792.083,458.583C806.068,470.129 815.934,483.617 820.411,498.242C820.617,498.915 820.812,499.59 820.995,500.268C821.763,503.111 822.328,505.995 822.681,508.914C822.77,509.651 822.846,510.39 822.908,511.131C822.933,511.429 822.955,511.727 822.976,512.025C823.023,512.716 823.059,513.409 823.082,514.104C823.105,514.782 823.117,515.462 823.117,516.143C823.117,517.108 823.094,518.07 823.048,519.029C823.014,519.737 822.967,520.444 822.909,521.149C822.841,521.961 822.757,522.77 822.656,523.577C822.558,524.366 822.444,525.153 822.315,525.938C821.901,528.454 821.329,530.943 820.605,533.4C820.409,534.066 820.202,534.729 819.983,535.39C819.695,536.263 819.388,537.131 819.061,537.995C818.815,538.647 818.558,539.297 818.29,539.945C817.936,540.8 817.563,541.651 817.172,542.497C816.876,543.137 816.57,543.774 816.254,544.408C815.835,545.246 815.399,546.08 814.944,546.909C814.601,547.536 814.247,548.16 813.883,548.781C812.857,550.531 811.751,552.258 810.568,553.96C810.118,554.607 809.658,555.249 809.186,555.889C804.52,562.213 798.773,568.18 792.083,573.704C763.025,597.694 716.139,613.314 663.277,613.314C610.416,613.314 563.53,597.694 534.472,573.704C533.786,573.137 533.109,572.566 532.443,571.99C531.772,571.41 531.111,570.825 530.461,570.236ZM507.071,502.792C506.05,507.154 505.521,511.611 505.521,516.143C505.521,536.046 515.713,554.503 533.055,569.759L535.937,569.229L535.937,567.015C535.937,566.44 536.403,565.974 536.978,565.974L547.094,565.974L555.836,564.247L553.632,562.02C553.421,561.807 553.313,561.513 553.334,561.214C553.355,560.915 553.503,560.64 553.742,560.458L557.31,557.743C557.339,557.721 557.37,557.7 557.401,557.681L563.23,554.151C563.393,554.052 563.579,554 563.77,554L593.207,554L607.622,551.579C607.751,551.558 607.884,551.561 608.012,551.588L619.224,553.986L638.224,551.573C638.267,551.568 638.311,551.565 638.355,551.565L638.694,551.565L637.822,551.047C637.419,550.807 637.226,550.327 637.35,549.875C637.475,549.423 637.886,549.11 638.355,549.11L649.439,549.11L659.134,549.11L659.134,547.062C659.134,546.744 659.28,546.442 659.53,546.245C659.78,546.047 660.107,545.975 660.417,546.049L673.29,549.11L803.451,549.11C803.987,549.11 804.436,549.516 804.488,550.049C804.541,550.582 804.18,551.068 803.655,551.173L797.656,552.366L808.225,553.671C809.505,551.882 810.696,550.065 811.795,548.222L770.962,537.28C769.055,537.849 767.378,538.37 766.044,538.814L793.071,546.056C793.626,546.205 793.956,546.776 793.807,547.332C793.658,547.887 793.087,548.217 792.531,548.068L763.355,540.25C762.369,540.86 761.255,541.582 760.191,542.254L774.379,546.056C774.934,546.205 775.264,546.776 775.115,547.332C774.967,547.887 774.395,548.217 773.84,548.068L757.719,543.749C756.82,544.256 756.087,544.612 755.674,544.702C754.795,544.894 753.851,544.539 752.905,543.944C752.41,543.633 751.905,543.264 751.389,542.989C751.045,542.807 750.704,542.651 750.348,542.69C749.353,542.799 747.781,543.068 745.893,543.432L755.687,546.056C756.242,546.205 756.572,546.776 756.423,547.332C756.275,547.887 755.703,548.217 755.148,548.068L741.314,544.362C739.39,544.767 737.373,545.208 735.435,545.638L736.995,546.056C737.55,546.205 737.88,546.776 737.732,547.332C737.583,547.887 737.011,548.217 736.456,548.068L731.06,546.623C727.426,547.45 724.773,548.076 724.773,548.076C724.213,548.208 723.652,547.861 723.52,547.301C723.388,546.742 723.735,546.18 724.295,546.048C724.295,546.048 727.05,545.399 730.801,544.548L730.908,544.524C733.962,543.83 737.66,543.007 741.062,542.291C741.111,542.279 741.161,542.269 741.211,542.26C745.003,541.464 748.409,540.806 750.122,540.619C751.273,540.493 752.431,541.14 753.514,541.855C753.902,542.111 754.28,542.368 754.653,542.537C754.852,542.627 755.04,542.708 755.229,542.667C755.578,542.59 756.184,542.268 756.933,541.822C757.007,541.763 757.087,541.715 757.173,541.678C757.618,541.409 758.106,541.103 758.615,540.785C759.912,539.973 761.324,539.067 762.549,538.324C762.625,538.263 762.709,538.212 762.799,538.174C763.849,537.544 764.741,537.053 765.27,536.876C766.698,536.398 768.531,535.829 770.628,535.207L770.678,535.192C773.358,534.397 776.467,533.516 779.713,532.625L779.778,532.607C782.846,531.765 786.035,530.915 789.099,530.122L789.159,530.106C792.674,529.197 796.021,528.363 798.831,527.702L798.867,527.694C800.093,527.406 801.216,527.151 802.205,526.937C803.394,526.681 804.615,526.68 805.847,526.775C804.407,525.859 803.908,525.174 802.064,524.679C801.091,524.419 800.038,524.671 798.999,524.843C797.596,525.075 796.217,525.192 794.986,524.617C794.158,524.23 793.119,523.561 792.023,522.759C791.86,522.798 791.684,522.799 791.509,522.752L786.637,521.447C786.082,521.298 785.752,520.726 785.901,520.171C786.05,519.616 786.621,519.286 787.177,519.434L788.318,519.74C787.038,518.596 785.948,517.508 785.354,516.767C784.826,516.109 784.784,515.271 784.984,514.368C785.074,513.96 785.212,513.536 785.277,513.131C785.305,512.959 785.35,512.791 785.268,512.651C784.458,511.271 781.855,508.819 780.409,508.052C780.267,507.977 780.111,507.968 779.95,507.978C780.008,508.162 780.016,508.363 779.963,508.563C779.814,509.118 779.242,509.448 778.687,509.299L774.494,508.176C773.939,508.027 773.609,507.456 773.758,506.9C773.808,506.711 773.908,506.548 774.039,506.421L773.936,506.328C772.872,505.363 771.729,504.205 770.512,503.552C768.416,502.428 765.007,501.099 761.724,499.746L754.903,497.918C754.348,497.769 754.018,497.198 754.166,496.642C754.203,496.505 754.266,496.382 754.347,496.276C751.355,494.539 748.519,492.481 745.392,491.098C741.524,489.388 737.218,488.793 733.298,487.184C733.16,487.127 733.022,487.069 732.883,487.009L712.455,481.536C711.9,481.387 711.57,480.815 711.718,480.26C711.81,479.917 712.063,479.661 712.373,479.549C711.578,479.27 710.768,478.949 710.023,478.691C709.355,478.46 708.759,478.265 708.315,478.29C708.231,478.295 708.202,478.388 708.147,478.454C708.007,478.621 707.883,478.821 707.755,479.019C707.426,479.53 707.067,480.027 706.617,480.34C706.009,480.761 705.09,481.421 704.052,482.136L719.839,486.366C720.395,486.515 720.725,487.086 720.576,487.642C720.427,488.197 719.855,488.527 719.3,488.378L701.736,483.672C700.284,484.589 698.862,485.378 697.904,485.627C697.818,485.649 697.732,485.667 697.645,485.68C697.816,485.923 697.882,486.238 697.799,486.547C697.65,487.102 697.078,487.432 696.523,487.284L693.777,486.548C693.222,486.399 692.892,485.827 693.04,485.272C693.189,484.717 693.761,484.387 694.316,484.536L694.405,484.559C694.219,484.436 694.036,484.314 693.859,484.202C693.593,484.033 693.364,483.863 693.147,483.842C693.032,483.831 692.937,483.904 692.834,483.963C692.659,484.064 692.488,484.187 692.314,484.306C691.865,484.611 691.396,484.875 690.894,484.969C689.711,485.188 688.036,485.408 686.741,484.919C684.567,484.099 679.53,480.818 677.289,479.998C676.267,479.624 674.999,479.61 674.024,479.99C673.804,480.076 673.623,480.274 673.434,480.482C673.135,480.814 672.851,481.198 672.559,481.54C671.992,482.204 671.363,482.702 670.683,482.836C670.011,482.969 669.194,482.725 668.384,482.305C667.964,482.086 667.539,481.829 667.142,481.64C666.954,481.55 666.796,481.435 666.65,481.458C666.383,481.5 666.237,481.763 666.057,482.004C665.676,482.516 665.325,483.107 664.907,483.534C664.865,483.577 664.821,483.615 664.774,483.649C671.526,486.509 678.77,489.908 682.895,491.236C683.421,491.405 683.884,491.547 684.296,491.668C688.402,492.87 687.635,492.03 692.612,494.373C700.145,497.918 714.637,503.543 722.453,508.425C725.611,510.397 729.301,510.293 732.981,510.248C737.063,510.197 741.134,510.205 744.631,512.404C746.666,513.684 748.669,515.877 750.657,518.452C753.501,522.136 756.339,526.611 759.314,530.076C761.084,532.137 762.889,533.839 764.793,534.723C765.315,534.966 765.541,535.585 765.299,536.107C765.057,536.628 764.437,536.855 763.916,536.613C761.778,535.62 759.72,533.747 757.733,531.433C754.736,527.942 751.873,523.436 749.008,519.725C747.19,517.37 745.383,515.338 743.521,514.168C740.371,512.186 736.685,512.285 733.006,512.331C728.925,512.381 724.852,512.379 721.35,510.192C713.592,505.346 699.202,499.777 691.725,496.258C687.182,494.12 687.604,494.747 684.296,493.834C684.103,493.902 683.889,493.915 683.677,493.859L635.942,481.068C635.569,480.968 635.298,480.678 635.205,480.331L635.129,480.322C630.833,479.84 626.829,479.119 623.856,478.12C621.479,477.322 619.257,475.841 617.025,474.41C614.971,473.093 612.909,471.816 610.658,471.31C609.081,470.956 606.883,470.764 604.484,470.682C604.691,470.933 604.777,471.277 604.687,471.615C604.538,472.17 603.966,472.5 603.411,472.351L597.254,470.702C593.249,470.833 589.836,471.121 588.997,471.31L588.934,471.324L603.95,475.347C604.506,475.496 604.836,476.068 604.687,476.623C604.538,477.179 603.966,477.509 603.411,477.36L585.497,472.56C584.352,473.091 583.162,473.739 581.954,474.462L586.657,475.722C587.213,475.871 587.543,476.443 587.394,476.998C587.245,477.553 586.674,477.883 586.118,477.735L579.548,475.974L579.465,476.029C578.489,476.671 577.512,477.342 576.546,478.022L580.8,479.161C581.355,479.31 581.685,479.882 581.536,480.437C581.388,480.992 580.816,481.322 580.261,481.174L574.356,479.591C573.379,480.301 572.425,481.005 571.508,481.68L576.566,483.035C577.121,483.184 577.451,483.756 577.302,484.311C577.154,484.866 576.582,485.196 576.027,485.048L569.352,483.259C568.282,484.035 567.289,484.737 566.401,485.32L572.444,486.939C572.999,487.088 573.329,487.66 573.18,488.215C573.032,488.77 572.46,489.1 571.905,488.952L563.925,486.814C562.607,487.547 561.419,488.12 560.252,488.681L568.218,490.815C568.774,490.964 569.104,491.536 568.955,492.091C568.806,492.647 568.234,492.977 567.679,492.828L557.438,490.084C556.413,490.63 555.341,491.256 554.153,492.055L563.993,494.692C564.548,494.84 564.878,495.412 564.729,495.967C564.58,496.523 564.009,496.853 563.453,496.704L551.903,493.609C550.97,494.263 549.998,494.956 548.993,495.681L568.861,501.005C569.416,501.153 569.746,501.725 569.597,502.28C569.449,502.836 568.877,503.166 568.322,503.017L546.825,497.257C545.9,497.934 544.952,498.633 543.986,499.348L572.352,506.949C572.907,507.097 573.238,507.669 573.089,508.224C572.94,508.78 572.368,509.11 571.813,508.961L541.851,500.933C540.926,501.621 539.987,502.322 539.039,503.031L571.187,511.645C571.743,511.794 572.073,512.365 571.924,512.921C571.775,513.476 571.203,513.806 570.648,513.657L536.915,504.619L534.107,506.718L570.022,516.341C570.578,516.49 570.908,517.062 570.759,517.617C570.61,518.172 570.038,518.502 569.483,518.354L531.978,508.304C530.834,509.155 529.688,510.005 528.545,510.848C531.758,512.444 534.64,513.835 536.827,514.744C544.91,518.104 554.022,519.596 562.008,522.197C569.662,524.69 576.623,528.705 583.359,530.38C586.199,531.087 589.989,531.279 593.743,531.588C597.677,531.911 601.569,532.368 604.394,533.562C610.646,536.206 615.692,541.569 622.222,546.213C622.691,546.547 622.801,547.197 622.467,547.666C622.134,548.134 621.483,548.244 621.015,547.911C614.62,543.362 609.705,538.071 603.582,535.481C600.929,534.359 597.267,533.968 593.572,533.664C589.698,533.346 585.787,533.131 582.856,532.402C576.076,530.716 569.066,526.687 561.363,524.178C553.327,521.56 544.161,520.048 536.027,516.668C529.383,513.906 516.284,506.65 507.071,502.792ZM818.242,498.28C813.797,484.241 804.216,471.302 790.756,460.189C762.002,436.45 715.587,421.056 663.277,421.056C610.968,421.056 564.553,436.45 535.799,460.189C521.549,471.954 511.648,485.764 507.584,500.76C513.195,503.099 520.259,506.703 526.451,509.803C527.833,508.787 529.222,507.758 530.609,506.726C530.757,506.361 531.097,506.116 531.477,506.08C532.864,505.047 534.247,504.013 535.616,502.989C535.765,502.681 536.055,502.47 536.383,502.415C537.822,501.34 539.243,500.278 540.635,499.242C540.778,498.997 541.016,498.823 541.286,498.757C542.81,497.625 544.295,496.527 545.726,495.48C545.851,495.315 546.022,495.192 546.214,495.124C547.903,493.893 549.513,492.737 551.019,491.685C551.071,491.64 551.127,491.601 551.187,491.567C551.75,491.174 552.299,490.796 552.831,490.434C554.268,489.457 555.536,488.733 556.751,488.103C556.811,488.063 556.876,488.03 556.943,488.004C558.991,486.952 560.903,486.146 563.239,484.811L563.298,484.777C563.695,484.55 564.104,484.307 564.527,484.045C565.654,483.349 566.995,482.404 568.477,481.326C568.513,481.298 568.55,481.271 568.587,481.245C570.104,480.14 571.764,478.901 573.493,477.647L573.581,477.583C575.126,476.465 576.724,475.337 578.321,474.288C580.563,472.815 582.806,471.497 584.906,470.548C584.96,470.521 585.015,470.496 585.071,470.474C586.286,469.935 587.452,469.522 588.54,469.277C589.421,469.079 593.017,468.777 597.226,468.641C597.326,468.622 597.43,468.619 597.535,468.631C602.375,468.485 607.947,468.566 611.114,469.277C613.595,469.835 615.886,471.205 618.149,472.656C620.235,473.993 622.298,475.4 624.519,476.146C627.378,477.106 631.23,477.788 635.362,478.252C640.367,478.814 645.777,479.052 650.357,479.052C652.239,479.052 655.304,479.931 658.878,481.271C660.232,481.779 661.663,482.351 663.132,482.96C663.086,482.648 663.181,482.319 663.418,482.077C663.868,481.617 664.216,480.935 664.647,480.431C665.115,479.885 665.664,479.504 666.327,479.4C666.924,479.306 667.703,479.566 668.5,479.996C668.898,480.211 669.312,480.458 669.711,480.633C669.918,480.724 670.106,480.827 670.28,480.792C670.404,480.768 670.502,480.672 670.609,480.575C670.832,480.371 671.041,480.112 671.252,479.85C671.866,479.089 672.524,478.339 673.267,478.049C674.681,477.498 676.522,477.499 678.004,478.042C680.25,478.863 685.298,482.148 687.476,482.97C688.424,483.327 689.649,483.081 690.514,482.92C690.942,482.841 691.287,482.467 691.67,482.231C692.199,481.906 692.752,481.711 693.349,481.769C694.047,481.837 694.946,482.436 695.866,483.027C696.18,483.229 696.502,483.423 696.826,483.54C697.013,483.608 697.198,483.658 697.38,483.611C698.256,483.383 699.543,482.655 700.862,481.805C700.958,481.712 701.071,481.639 701.194,481.589C702.853,480.498 704.514,479.263 705.429,478.628C705.589,478.517 705.705,478.341 705.826,478.163C706.033,477.858 706.226,477.533 706.438,477.256C706.902,476.65 707.468,476.252 708.197,476.21C708.846,476.174 709.73,476.385 710.704,476.722C711.902,477.137 713.274,477.734 714.453,478.004C716.805,478.543 719.941,478.507 722.496,479.452C725.621,480.607 729.785,483.398 733.615,485.057L733.662,485.077C733.805,485.138 733.947,485.198 734.089,485.257C734.396,485.383 734.705,485.502 735.016,485.617C735.204,485.437 735.458,485.327 735.737,485.327C738.641,485.327 742.051,484.998 744.448,485.337C745.533,485.491 746.541,485.974 747.544,486.463C748.336,486.849 749.122,487.247 749.983,487.333C752.298,487.564 756.879,487.385 760.492,487.315C760.554,487.311 760.617,487.31 760.68,487.311C762.188,487.284 763.514,487.277 764.415,487.329C765.22,487.376 765.99,487.668 766.756,487.967C767.299,488.18 767.837,488.406 768.41,488.412C770.639,488.432 773.581,487.855 776.604,488.509C781.729,489.616 794.62,493.808 799.354,495.076C800.3,495.33 801.288,495.226 802.279,495.121C803.496,494.992 804.718,494.853 805.903,495.056C808.976,495.584 813.676,497.702 817.721,498.228C817.894,498.25 818.068,498.267 818.242,498.28ZM820.506,508.331C820.371,507.331 820.21,506.336 820.023,505.345C819.991,505.34 819.958,505.333 819.926,505.324L760.463,489.391C762.046,489.372 763.44,489.373 764.383,489.433C764.576,489.445 764.765,489.479 764.953,489.527C764.737,489.466 764.518,489.422 764.294,489.409C763.372,489.355 762.01,489.363 760.463,489.391C756.812,489.458 752.13,489.641 749.776,489.406C748.671,489.296 747.647,488.831 746.631,488.335C745.825,487.942 745.027,487.523 744.157,487.4C743.094,487.25 741.825,487.239 740.492,487.272C742.446,487.813 744.389,488.377 746.234,489.193C750.124,490.913 753.571,493.664 757.415,495.569C758.856,496.284 760.575,497.022 762.344,497.755L775.648,501.32C776.204,501.469 776.534,502.04 776.385,502.596C776.236,503.151 775.664,503.481 775.109,503.332L773.079,502.788C773.661,503.252 774.226,503.766 774.771,504.267C775.642,505.069 776.441,505.845 777.186,506.183C777.39,506.276 777.616,506.256 777.848,506.227C778.256,506.178 778.677,506.066 779.089,505.992C779.906,505.844 780.694,505.845 781.386,506.212C782.879,507.004 785.424,509.337 786.652,510.984C790.844,510.222 795.638,508.644 799.025,509.02C800.746,509.211 802.249,510.243 803.704,511.348C804.869,512.234 805.992,513.181 807.289,513.423C808.605,513.667 809.989,513.413 811.396,513.104C813.002,512.752 814.634,512.319 816.232,512.245C817.513,512.186 819.138,512.122 820.891,512.073C820.855,511.567 820.813,511.062 820.765,510.557L753.754,492.602C753.198,492.453 752.868,491.881 753.017,491.326C753.166,490.771 753.738,490.44 754.293,490.589L820.506,508.331ZM819.547,503.066C819.342,502.168 819.115,501.274 818.868,500.385C818.39,500.382 817.918,500.354 817.453,500.294C813.38,499.764 808.645,497.641 805.55,497.109C804.552,496.938 803.523,497.085 802.498,497.193C801.249,497.325 800.007,497.408 798.814,497.089C794.101,495.826 781.267,491.647 776.164,490.545C774.697,490.228 773.25,490.227 771.904,490.3C770.618,490.369 769.423,490.504 768.39,490.495C768.012,490.491 767.642,490.432 767.276,490.339C767.704,490.459 768.138,490.539 768.582,490.546C769.639,490.562 770.86,490.434 772.176,490.372L819.547,503.066ZM820.999,514.153C819.241,514.202 817.608,514.268 816.328,514.326C814.844,514.395 813.333,514.812 811.843,515.139C810.153,515.51 808.488,515.765 806.908,515.471C805.311,515.174 803.879,514.097 802.443,513.007C801.297,512.136 800.153,511.241 798.796,511.091C797.535,510.951 796.074,511.104 794.522,511.386L802.007,513.391C802.563,513.54 802.893,514.112 802.744,514.667C802.595,515.222 802.024,515.552 801.468,515.404L790.115,512.362C789.191,512.579 788.271,512.791 787.376,512.966C787.366,513.291 787.312,513.628 787.23,513.97C787.151,514.3 787.05,514.635 786.989,514.956C786.954,515.144 786.868,515.325 786.979,515.464C788.462,517.313 793.28,521.52 795.869,522.73C796.723,523.129 797.685,522.949 798.659,522.788C799.995,522.567 801.352,522.332 802.603,522.667C804.94,523.293 805.337,524.143 807.603,525.396C808.106,525.674 808.289,526.308 808.011,526.811C807.974,526.877 807.932,526.937 807.885,526.991L808.163,527.025C809.91,527.239 811.649,527.448 813.298,526.957C814.936,526.469 817.473,525.557 820.44,524.429C820.623,523.16 820.764,521.883 820.863,520.6L811.173,518.004C810.618,517.855 810.288,517.284 810.436,516.728C810.585,516.173 811.157,515.843 811.712,515.992L820.987,518.477C821.018,517.701 821.034,516.923 821.034,516.143C821.034,515.478 821.022,514.814 820.999,514.153ZM818.593,532.861C819.184,530.861 819.67,528.84 820.05,526.8C817.508,527.755 815.348,528.521 813.892,528.954C811.972,529.526 809.946,529.342 807.91,529.093C806.452,528.915 804.987,528.7 803.564,528.834L818.593,532.861ZM817.04,537.453C817.369,536.59 817.679,535.722 817.969,534.85L799.069,529.786C797.377,530.186 795.495,530.646 793.504,531.147L817.04,537.453ZM815.13,541.95C815.526,541.105 815.903,540.255 816.261,539.401L789.384,532.199C787.619,532.657 785.816,533.132 784.02,533.614L815.13,541.95ZM812.873,546.354C813.334,545.527 813.777,544.695 814.201,543.858L780.022,534.699C778.226,535.193 776.474,535.684 774.818,536.157L812.873,546.354ZM535.086,571.504C535.322,571.702 535.56,571.9 535.799,572.097C564.553,595.837 610.968,611.231 663.277,611.231C715.587,611.231 762.002,595.837 790.756,572.097C796.976,566.962 802.367,561.438 806.806,555.595L790.978,553.641C790.47,553.578 790.083,553.156 790.064,552.645C790.045,552.134 790.4,551.685 790.902,551.585L792.874,551.193L673.168,551.193C673.087,551.193 673.006,551.183 672.927,551.165L661.218,548.381L661.218,550.151C661.218,550.727 660.751,551.193 660.176,551.193L642.144,551.193L643.016,551.711C643.419,551.951 643.612,552.431 643.488,552.883C643.364,553.335 642.952,553.648 642.484,553.648L638.421,553.648L619.311,556.075C619.194,556.09 619.076,556.085 618.961,556.06L607.771,553.667L593.466,556.069C593.409,556.078 593.352,556.083 593.294,556.083L575.039,556.083L564.06,556.083L558.528,559.434L555.948,561.398L558.681,564.161C558.951,564.433 559.049,564.832 558.937,565.199C558.824,565.566 558.519,565.841 558.143,565.915L547.398,568.037C547.332,568.05 547.264,568.057 547.196,568.057L538.02,568.057L538.02,570.097C538.02,570.599 537.661,571.03 537.167,571.121L535.086,571.504ZM716.235,480.392L724.342,482.564C723.434,482.102 722.57,481.7 721.774,481.406C720.053,480.77 718.057,480.607 716.235,480.392ZM669.166,487.813C666.667,486.72 664.114,485.611 661.684,484.616C656.932,482.669 652.682,481.135 650.357,481.135C648.258,481.135 645.988,481.086 643.661,480.979L669.166,487.813ZM693.324,491.435C692.625,492.01 691.939,492.619 691.202,493.096C690.719,493.409 690.074,493.271 689.761,492.788C689.449,492.306 689.587,491.66 690.069,491.348C690.758,490.901 691.396,490.328 692.048,489.789C692.187,489.516 692.439,489.322 692.729,489.251C693.58,488.617 694.484,488.108 695.512,487.916C698.503,487.356 704.784,487.592 708.274,487.902C709.712,488.029 711.105,488.499 712.496,488.946C713.709,489.336 714.921,489.713 716.18,489.713C717.821,489.713 719.94,489.029 722.095,488.479C723.044,488.236 723.999,488.021 724.929,487.879C725.013,487.856 725.101,487.842 725.191,487.841C726.548,487.654 727.846,487.635 728.988,487.931C730.996,488.452 732.858,490.105 734.578,491.851C736.06,493.357 737.419,494.934 738.762,495.558C739.74,496.012 740.853,495.859 741.971,495.738C743.447,495.579 744.931,495.438 746.264,495.938C749.046,496.982 752.249,499.814 755.235,501.762C755.717,502.076 755.853,502.722 755.538,503.204C755.224,503.685 754.578,503.821 754.097,503.507C752.213,502.278 750.252,500.664 748.37,499.42C748.464,499.63 748.489,499.873 748.425,500.112C748.276,500.668 747.704,500.998 747.149,500.849L735.194,497.645C734.638,497.497 734.308,496.925 734.457,496.37C734.574,495.932 734.954,495.634 735.382,495.601C734.637,494.903 733.874,494.106 733.093,493.313C732.318,492.525 731.524,491.737 730.694,491.11C730.462,491.246 730.177,491.293 729.897,491.218L725.129,489.94C724.304,490.077 723.455,490.282 722.61,490.497C720.271,491.094 717.962,491.796 716.18,491.796C715.775,491.796 715.375,491.766 714.977,491.711C714.722,491.953 714.352,492.061 713.989,491.964L705.995,489.822C702.635,489.615 698.222,489.528 695.895,489.963L695.887,489.965L716.152,495.395C716.707,495.544 717.037,496.115 716.888,496.671C716.739,497.226 716.168,497.556 715.612,497.407L693.324,491.435ZM747.239,498.716C746.657,498.38 746.086,498.096 745.532,497.888C744.857,497.635 744.131,497.626 743.389,497.685L747.239,498.716ZM609.29,473.926C608.845,473.808 608.517,473.402 608.517,472.92C608.517,472.634 608.633,472.374 608.82,472.443C609.006,472.474 609.272,472.841 609.569,473.885L609.829,471.914L609.862,471.923L609.593,473.971C609.487,473.971 609.386,473.956 609.29,473.926C609.412,473.959 609.498,473.963 609.536,473.963L609.527,473.961C609.445,473.959 609.366,473.947 609.29,473.926ZM592.01,484.322C591.455,484.173 591.125,483.601 591.274,483.046C591.423,482.491 591.994,482.161 592.55,482.31L604.916,485.623C605.471,485.772 605.801,486.344 605.653,486.899C605.504,487.454 604.932,487.784 604.377,487.636L592.01,484.322ZM611.952,489.665C611.397,489.517 611.067,488.945 611.216,488.39C611.365,487.834 611.936,487.504 612.491,487.653L617.976,489.123C618.532,489.271 618.862,489.843 618.713,490.398C618.564,490.954 617.992,491.284 617.437,491.135L611.952,489.665ZM633.531,525.498C632.975,525.349 632.645,524.778 632.794,524.222C632.943,523.667 633.514,523.337 634.07,523.486L645.487,526.545C646.043,526.694 646.373,527.266 646.224,527.821C646.075,528.376 645.504,528.706 644.948,528.557L633.531,525.498ZM654.502,501.066C653.946,500.918 653.616,500.346 653.765,499.791C653.914,499.235 654.485,498.905 655.041,499.054L675.109,504.431C675.664,504.58 675.994,505.152 675.846,505.707C675.697,506.262 675.125,506.592 674.57,506.444L654.502,501.066ZM685.761,509.442C685.206,509.294 684.876,508.722 685.024,508.167C685.173,507.611 685.745,507.281 686.3,507.43L692.707,509.147C693.262,509.295 693.592,509.867 693.443,510.422C693.294,510.978 692.723,511.308 692.167,511.159L685.761,509.442ZM589.605,478.669C589.049,478.52 588.719,477.948 588.868,477.393C589.017,476.838 589.588,476.508 590.144,476.656L603.95,480.356C604.506,480.505 604.836,481.076 604.687,481.632C604.538,482.187 603.966,482.517 603.411,482.368L589.605,478.669ZM611.065,484.419C610.509,484.27 610.179,483.699 610.328,483.143C610.477,482.588 611.048,482.258 611.604,482.407L616.958,483.841C617.513,483.99 617.843,484.562 617.695,485.117C617.546,485.672 616.974,486.002 616.419,485.854L611.065,484.419ZM693.719,516.583L686.825,514.736C686.27,514.587 685.94,514.015 686.088,513.46C686.237,512.905 686.809,512.575 687.364,512.724L694.258,514.571L694.271,514.574L694.685,514.685L694.695,514.688L704.427,517.295C704.982,517.444 705.312,518.016 705.163,518.571C705.015,519.127 704.443,519.457 703.888,519.308L694.156,516.7C694.101,516.686 694.048,516.667 693.997,516.644L693.808,516.603L693.731,516.586L693.719,516.583ZM695.708,512.108C695.152,511.959 694.822,511.387 694.971,510.832C695.12,510.276 695.692,509.946 696.247,510.095L703.66,512.082C704.215,512.23 704.545,512.802 704.396,513.357C704.248,513.913 703.676,514.243 703.121,514.094L695.708,512.108ZM739.14,523.745C738.585,523.597 738.255,523.025 738.404,522.47C738.553,521.914 739.124,521.584 739.68,521.733L742.927,522.603C743.482,522.752 743.812,523.324 743.664,523.879C743.515,524.434 742.943,524.764 742.388,524.615L739.14,523.745ZM760.564,529.486C760.009,529.337 759.679,528.765 759.828,528.21C759.977,527.655 760.548,527.325 761.104,527.474L773.069,530.68C773.624,530.828 773.954,531.4 773.805,531.955C773.657,532.511 773.085,532.841 772.53,532.692L760.564,529.486ZM731.787,501.741C731.231,501.592 730.901,501.021 731.05,500.465C731.199,499.91 731.771,499.58 732.326,499.729L749.351,504.29C749.906,504.439 750.236,505.011 750.087,505.566C749.938,506.122 749.367,506.452 748.812,506.303L731.787,501.741ZM761.315,509.653C760.76,509.504 760.43,508.933 760.578,508.377C760.727,507.822 761.299,507.492 761.854,507.641L768.95,509.542C769.505,509.691 769.835,510.263 769.687,510.818C769.538,511.373 768.966,511.703 768.411,511.554L761.315,509.653ZM593.636,499.783C593.081,499.634 592.751,499.063 592.9,498.507C593.049,497.952 593.62,497.622 594.176,497.771L609.787,501.954C610.343,502.103 610.673,502.674 610.524,503.23C610.375,503.785 609.803,504.115 609.248,503.966L593.636,499.783ZM608.018,518.662C607.462,518.513 607.132,517.941 607.281,517.386C607.43,516.831 608.002,516.501 608.557,516.65L615.033,518.385C615.588,518.534 615.918,519.105 615.77,519.661C615.621,520.216 615.049,520.546 614.494,520.397L608.018,518.662ZM714.357,502.079C713.802,501.93 713.472,501.359 713.62,500.803C713.769,500.248 714.341,499.918 714.896,500.067L717.696,500.817C718.251,500.966 718.581,501.537 718.432,502.093C718.283,502.648 717.712,502.978 717.156,502.829L714.357,502.079ZM722.657,504.303C722.102,504.154 721.772,503.583 721.921,503.028C722.07,502.472 722.641,502.142 723.197,502.291L727.48,503.439C728.035,503.587 728.365,504.159 728.217,504.714C728.068,505.27 727.496,505.6 726.941,505.451L722.657,504.303ZM581.541,516.576C580.986,516.427 580.656,515.856 580.804,515.3C580.953,514.745 581.525,514.415 582.08,514.564L594.767,517.963C595.322,518.112 595.652,518.683 595.503,519.239C595.354,519.794 594.783,520.124 594.227,519.975L581.541,516.576ZM737.197,493.174C736.642,493.025 736.312,492.453 736.461,491.898C736.609,491.343 737.181,491.013 737.736,491.161L744.803,493.055C745.358,493.204 745.688,493.775 745.539,494.331C745.39,494.886 744.819,495.216 744.263,495.067L737.197,493.174ZM625.438,508.304C624.883,508.156 624.553,507.584 624.702,507.029C624.851,506.473 625.422,506.143 625.978,506.292L635.696,508.896C636.251,509.045 636.581,509.616 636.432,510.172C636.283,510.727 635.712,511.057 635.156,510.908L625.438,508.304ZM579.157,500.912C578.602,500.763 578.272,500.191 578.42,499.636C578.569,499.081 579.141,498.751 579.696,498.899L585.106,500.349C585.661,500.498 585.991,501.069 585.842,501.625C585.694,502.18 585.122,502.51 584.567,502.361L579.157,500.912ZM574.696,524.759C574.141,524.61 573.811,524.038 573.959,523.483C574.108,522.928 574.68,522.598 575.235,522.746L587.256,525.967C587.812,526.116 588.142,526.688 587.993,527.243C587.844,527.799 587.272,528.129 586.717,527.98L574.696,524.759ZM594.877,530.166C594.321,530.017 593.991,529.446 594.14,528.89C594.289,528.335 594.861,528.005 595.416,528.154L600.186,529.432C600.742,529.581 601.072,530.153 600.923,530.708C600.774,531.263 600.203,531.593 599.647,531.444L594.877,530.166ZM630.331,504.607C629.776,504.458 629.446,503.886 629.595,503.331C629.743,502.776 630.315,502.446 630.87,502.595L633.352,503.259C633.907,503.408 634.237,503.98 634.088,504.535C633.94,505.091 633.368,505.421 632.813,505.272L630.331,504.607ZM610.177,479.173C609.621,479.024 609.291,478.452 609.44,477.897C609.589,477.342 610.161,477.012 610.716,477.16L615.018,478.313C615.574,478.462 615.904,479.034 615.755,479.589C615.606,480.144 615.034,480.474 614.479,480.325L610.177,479.173ZM645.415,488.615C644.86,488.466 644.53,487.894 644.679,487.339C644.827,486.784 645.399,486.454 645.954,486.602L682.336,496.351C682.892,496.5 683.222,497.071 683.073,497.627C682.924,498.182 682.353,498.512 681.797,498.363L645.415,488.615ZM671.976,485.715C671.421,485.566 671.091,484.994 671.24,484.439C671.389,483.884 671.96,483.554 672.516,483.703L681.94,486.228C682.495,486.376 682.825,486.948 682.676,487.503C682.527,488.059 681.956,488.389 681.4,488.24L671.976,485.715ZM687.693,499.943C687.138,499.794 686.808,499.223 686.957,498.667C687.106,498.112 687.677,497.782 688.233,497.931L690.056,498.419C690.611,498.568 690.941,499.14 690.792,499.695C690.643,500.25 690.072,500.58 689.516,500.432L687.693,499.943ZM697.919,502.683C697.364,502.534 697.034,501.963 697.183,501.407C697.332,500.852 697.903,500.522 698.458,500.671L702.467,501.745C703.023,501.894 703.353,502.466 703.204,503.021C703.055,503.576 702.484,503.906 701.928,503.757L697.919,502.683ZM771.708,512.438C771.153,512.289 770.823,511.717 770.971,511.162C771.12,510.607 771.692,510.277 772.247,510.426L777.171,511.745C777.726,511.894 778.057,512.465 777.908,513.021C777.759,513.576 777.187,513.906 776.632,513.757L771.708,512.438ZM694.349,526.769C693.794,526.62 693.464,526.049 693.613,525.493C693.761,524.938 694.333,524.608 694.888,524.757L701.448,526.514C702.003,526.663 702.333,527.235 702.184,527.79C702.036,528.345 701.464,528.675 700.909,528.527L694.349,526.769ZM685.761,504.434C685.206,504.285 684.876,503.713 685.024,503.158C685.173,502.603 685.745,502.273 686.3,502.422L693.465,504.341C694.02,504.49 694.35,505.062 694.202,505.617C694.053,506.172 693.481,506.502 692.926,506.354L685.761,504.434ZM697.26,507.515C696.704,507.366 696.374,506.794 696.523,506.239C696.672,505.684 697.244,505.354 697.799,505.503L703.034,506.905C703.589,507.054 703.919,507.626 703.771,508.181C703.622,508.736 703.05,509.066 702.495,508.918L697.26,507.515ZM728.515,515.89C727.959,515.741 727.629,515.169 727.778,514.614C727.927,514.059 728.499,513.729 729.054,513.877L738.414,516.385C738.969,516.534 739.299,517.106 739.15,517.661C739.001,518.216 738.43,518.546 737.874,518.398L728.515,515.89ZM762.872,525.096C762.317,524.947 761.987,524.375 762.135,523.82C762.284,523.265 762.856,522.935 763.411,523.083L782.37,528.163C782.925,528.312 783.255,528.884 783.106,529.439C782.957,529.994 782.386,530.324 781.83,530.176L762.872,525.096ZM593.106,504.65C592.551,504.501 592.221,503.929 592.37,503.374C592.519,502.818 593.09,502.488 593.646,502.637L606.032,505.956C606.587,506.105 606.917,506.677 606.769,507.232C606.62,507.787 606.048,508.117 605.493,507.968L593.106,504.65ZM610.137,509.213C609.581,509.064 609.251,508.492 609.4,507.937C609.549,507.382 610.121,507.052 610.676,507.2L615.173,508.405C615.729,508.554 616.059,509.126 615.91,509.681C615.761,510.237 615.189,510.567 614.634,510.418L610.137,509.213ZM627.924,513.979C627.368,513.83 627.038,513.258 627.187,512.703C627.336,512.148 627.908,511.818 628.463,511.966L641.849,515.553C642.405,515.702 642.735,516.274 642.586,516.829C642.437,517.384 641.865,517.714 641.31,517.566L627.924,513.979ZM656.213,521.559C655.658,521.41 655.328,520.839 655.477,520.283C655.626,519.728 656.197,519.398 656.753,519.547L673.864,524.132C674.42,524.281 674.75,524.852 674.601,525.408C674.452,525.963 673.881,526.293 673.325,526.144L656.213,521.559ZM698.04,532.766C697.485,532.618 697.155,532.046 697.303,531.491C697.452,530.935 698.024,530.605 698.579,530.754L700.678,531.316C701.234,531.465 701.564,532.037 701.415,532.592C701.266,533.148 700.694,533.478 700.139,533.329L698.04,532.766ZM575.486,504.937C574.931,504.788 574.601,504.216 574.749,503.661C574.898,503.105 575.47,502.775 576.025,502.924L583.651,504.968C584.207,505.116 584.537,505.688 584.388,506.243C584.239,506.799 583.667,507.129 583.112,506.98L575.486,504.937ZM590.589,493.958C590.033,493.809 589.703,493.238 589.852,492.682C590.001,492.127 590.573,491.797 591.128,491.946L609.821,496.954C610.376,497.103 610.706,497.675 610.558,498.23C610.409,498.786 609.837,499.116 609.282,498.967L590.589,493.958ZM617.088,501.058C616.533,500.91 616.203,500.338 616.352,499.783C616.5,499.227 617.072,498.897 617.627,499.046L623.708,500.676C624.264,500.824 624.594,501.396 624.445,501.951C624.296,502.507 623.725,502.837 623.169,502.688L617.088,501.058ZM730.717,506.463C730.162,506.314 729.832,505.742 729.98,505.187C730.129,504.632 730.701,504.302 731.256,504.45L751.078,509.762C751.633,509.911 751.963,510.482 751.815,511.038C751.666,511.593 751.094,511.923 750.539,511.774L730.717,506.463ZM764.085,515.404C763.529,515.255 763.199,514.683 763.348,514.128C763.497,513.573 764.068,513.243 764.624,513.391L778.164,517.019C778.719,517.168 779.049,517.74 778.9,518.295C778.751,518.85 778.18,519.18 777.624,519.032L764.085,515.404ZM661.261,527.92C660.706,527.771 660.376,527.199 660.524,526.644C660.673,526.089 661.245,525.759 661.8,525.908L671.78,528.582C672.335,528.73 672.665,529.302 672.516,529.857C672.368,530.413 671.796,530.743 671.241,530.594L661.261,527.92ZM581.492,511.554C580.937,511.406 580.607,510.834 580.755,510.279C580.904,509.723 581.476,509.393 582.031,509.542L598.522,513.961C599.077,514.109 599.407,514.681 599.258,515.236C599.11,515.792 598.538,516.122 597.983,515.973L581.492,511.554ZM607.538,523.542C606.982,523.393 606.652,522.821 606.801,522.266C606.95,521.711 607.521,521.381 608.077,521.529L613.138,522.886C613.693,523.034 614.024,523.606 613.875,524.161C613.726,524.717 613.154,525.047 612.599,524.898L607.538,523.542ZM577.433,520.484C576.878,520.335 576.548,519.763 576.696,519.208C576.845,518.653 577.417,518.323 577.972,518.471L591.011,521.965C591.567,522.114 591.897,522.686 591.748,523.241C591.599,523.796 591.028,524.126 590.472,523.978L577.433,520.484ZM772.953,522.789C772.398,522.64 772.068,522.068 772.217,521.513C772.366,520.957 772.937,520.627 773.493,520.776L792.049,525.748C792.604,525.897 792.934,526.469 792.785,527.024C792.636,527.579 792.065,527.909 791.509,527.761L772.953,522.789ZM591.423,489.173C590.868,489.024 590.538,488.453 590.687,487.897C590.835,487.342 591.407,487.012 591.962,487.161L607.633,491.36C608.188,491.508 608.518,492.08 608.369,492.635C608.22,493.191 607.649,493.521 607.093,493.372L591.423,489.173ZM721,493.842C720.444,493.693 720.114,493.122 720.263,492.566C720.412,492.011 720.984,491.681 721.539,491.83L728.05,493.574C728.605,493.723 728.935,494.295 728.787,494.85C728.638,495.406 728.066,495.736 727.511,495.587L721,493.842ZM758.852,503.985C758.296,503.836 757.966,503.264 758.115,502.709C758.264,502.153 758.835,501.823 759.391,501.972L770.717,505.007C771.272,505.156 771.602,505.727 771.453,506.283C771.304,506.838 770.733,507.168 770.177,507.019L758.852,503.985ZM652.24,510.477C651.685,510.329 651.355,509.757 651.504,509.202C651.652,508.646 652.224,508.316 652.779,508.465L677.265,515.026C677.82,515.175 678.15,515.746 678.002,516.302C677.853,516.857 677.281,517.187 676.726,517.038L652.24,510.477ZM690.474,520.722C689.919,520.573 689.589,520.002 689.738,519.446C689.887,518.891 690.458,518.561 691.014,518.71L703.682,522.104C704.237,522.253 704.567,522.825 704.418,523.38C704.269,523.935 703.698,524.265 703.142,524.117L690.474,520.722ZM721.734,499.047C721.179,498.899 720.849,498.327 720.997,497.772C721.146,497.216 721.718,496.886 722.273,497.035L727.48,498.43C728.035,498.579 728.365,499.151 728.217,499.706C728.068,500.261 727.496,500.591 726.941,500.443L721.734,499.047ZM684.526,489.078C683.971,488.929 683.641,488.357 683.79,487.802C683.939,487.247 684.51,486.917 685.066,487.065L688.943,488.104C689.498,488.253 689.828,488.825 689.68,489.38C689.531,489.935 688.959,490.265 688.404,490.117L684.526,489.078ZM574.449,499.65C573.894,499.501 573.564,498.93 573.712,498.374C573.861,497.819 574.433,497.489 574.988,497.638L577.564,498.328C578.12,498.477 578.45,499.049 578.301,499.604C578.152,500.159 577.58,500.489 577.025,500.341L574.449,499.65ZM574.449,494.642C573.894,494.493 573.564,493.921 573.712,493.366C573.861,492.811 574.433,492.481 574.988,492.629L576.328,492.988C576.883,493.137 577.213,493.709 577.065,494.264C576.916,494.82 576.344,495.15 575.789,495.001L574.449,494.642ZM612.84,494.912C612.285,494.763 611.955,494.191 612.103,493.636C612.252,493.081 612.824,492.751 613.379,492.899L617.976,494.131C618.532,494.28 618.862,494.852 618.713,495.407C618.564,495.962 617.992,496.292 617.437,496.144L612.84,494.912ZM652.14,505.442C651.585,505.293 651.254,504.722 651.403,504.166C651.552,503.611 652.124,503.281 652.679,503.43L676.894,509.918C677.45,510.067 677.78,510.639 677.631,511.194C677.482,511.749 676.91,512.079 676.355,511.931L652.14,505.442ZM655.724,496.385C655.169,496.237 654.839,495.665 654.987,495.11C655.136,494.554 655.708,494.224 656.263,494.373L678.712,500.388C679.267,500.537 679.597,501.109 679.448,501.664C679.3,502.219 678.728,502.549 678.173,502.401L655.724,496.385ZM652.182,515.47C651.626,515.321 651.296,514.75 651.445,514.194C651.594,513.639 652.166,513.309 652.721,513.458L675.639,519.599C676.195,519.748 676.525,520.319 676.376,520.875C676.227,521.43 675.656,521.76 675.1,521.611L652.182,515.47ZM587.38,508.124C586.825,507.975 586.495,507.403 586.643,506.848C586.792,506.292 587.364,505.962 587.919,506.111L602.277,509.958C602.832,510.107 603.162,510.679 603.013,511.234C602.865,511.789 602.293,512.12 601.738,511.971L587.38,508.124ZM608.734,513.845C608.178,513.697 607.848,513.125 607.997,512.57C608.146,512.014 608.718,511.684 609.273,511.833L615.85,513.595C616.405,513.744 616.735,514.316 616.586,514.871C616.438,515.426 615.866,515.756 615.311,515.608L608.734,513.845ZM631.717,520.004C631.162,519.855 630.832,519.283 630.981,518.728C631.13,518.173 631.701,517.843 632.257,517.991L641.659,520.511C642.214,520.659 642.544,521.231 642.395,521.786C642.246,522.342 641.675,522.672 641.119,522.523L631.717,520.004ZM793.391,508.231L780.82,504.862C780.264,504.714 779.934,504.142 780.083,503.587C780.232,503.031 780.804,502.701 781.359,502.85L793.931,506.219C794.486,506.367 794.816,506.939 794.667,507.494C794.518,508.05 793.947,508.38 793.391,508.231ZM791.053,517.621C790.497,517.472 790.167,516.901 790.316,516.345C790.465,515.79 791.036,515.46 791.592,515.609L814.132,521.649C814.688,521.797 815.018,522.369 814.869,522.924C814.72,523.48 814.148,523.81 813.593,523.661L791.053,517.621Z" style="fill:rgb(13,40,242);"/>
        </g>
    </g>
</svg>
