<?xml version="1.0" encoding="UTF-8" standalone="no"?>
<!DOCTYPE svg PUBLIC "-//W3C//DTD SVG 1.1//EN" "http://www.w3.org/Graphics/SVG/1.1/DTD/svg11.dtd">
<svg width="100%" height="100%" viewBox="0 0 321 196" version="1.1" xmlns="http://www.w3.org/2000/svg" xmlns:xlink="http://www.w3.org/1999/xlink" xml:space="preserve" xmlns:serif="http://www.serif.com/" style="fill-rule:evenodd;clip-rule:evenodd;stroke-linejoin:round;stroke-miterlimit:2;">
    <g transform="matrix(1,0,0,1,-906.59,-1482.54)">
        <g transform="matrix(1,0,0,1,403.673,1064.09)">
            <path d="M529.336,569.913C512.604,554.469 502.917,535.975 502.917,516.143C502.917,511.455 503.459,506.842 504.506,502.326C504.742,501.309 505.004,500.298 505.29,499.291C509.616,484.112 519.688,470.114 534.141,458.181C563.275,434.128 610.277,418.452 663.277,418.452C716.277,418.452 763.28,434.128 792.414,458.181C806.356,469.692 816.221,483.125 820.784,497.686C821.099,498.691 821.389,499.702 821.653,500.717C822.366,503.462 822.893,506.245 823.223,509.059C823.31,509.795 823.383,510.534 823.442,511.275L823.46,511.497C823.539,512.532 823.592,513.571 823.618,514.615C823.631,515.123 823.638,515.633 823.638,516.143C823.638,517.155 823.612,518.163 823.562,519.167C823.527,519.875 823.48,520.581 823.42,521.286C823.377,521.784 823.329,522.282 823.274,522.778C823.144,523.963 822.979,525.143 822.78,526.316C822.367,528.749 821.808,531.157 821.108,533.535C820.912,534.201 820.705,534.864 820.487,535.525C820.199,536.398 819.892,537.266 819.567,538.13C819.321,538.783 819.064,539.433 818.797,540.081C818.443,540.936 818.072,541.787 817.682,542.634C817.387,543.273 817.082,543.911 816.767,544.545C816.35,545.384 815.915,546.218 815.462,547.047C815.119,547.674 814.767,548.299 814.404,548.921C813.507,550.458 812.548,551.978 811.529,553.479C810.854,554.475 810.151,555.463 809.423,556.443C804.766,562.709 799.052,568.625 792.414,574.105C763.28,598.159 716.277,613.835 663.277,613.835C610.277,613.835 563.275,598.159 534.141,574.105C533.516,573.59 532.9,573.07 532.292,572.547C531.284,571.68 530.298,570.802 529.336,569.913ZM507.441,503.51C506.519,507.642 506.042,511.858 506.042,516.143C506.042,535.832 516.105,554.086 533.209,569.201L535.416,568.795L535.416,567.015C535.416,566.152 536.115,565.453 536.978,565.453L547.044,565.453L554.784,563.924L553.262,562.386C552.946,562.067 552.783,561.626 552.814,561.178C552.846,560.729 553.069,560.316 553.427,560.044L556.995,557.329C557.039,557.295 557.084,557.264 557.131,557.236L562.96,553.705C563.204,553.557 563.484,553.479 563.77,553.479L593.164,553.479L607.535,551.066C607.783,551.024 608.037,551.043 608.276,551.121C608.276,551.121 615.461,553.479 619.179,553.479C623.441,553.479 634.084,551.743 637.211,551.216C636.849,550.827 636.702,550.27 636.848,549.737C637.035,549.059 637.651,548.589 638.355,548.589L649.439,548.589L658.614,548.589L658.614,547.062C658.614,546.584 658.832,546.132 659.207,545.836C659.583,545.54 660.073,545.431 660.538,545.542L673.351,548.589L724.2,548.589C723.631,548.464 723.155,548.025 723.013,547.421C722.815,546.581 723.336,545.739 724.175,545.541C724.175,545.541 744.875,540.668 750.065,540.101C751.138,539.984 752.219,540.416 753.243,541.058C753.658,541.319 754.066,541.608 754.466,541.847C754.634,541.947 754.798,542.038 754.962,542.102C755.018,542.124 755.064,542.169 755.118,542.158C755.676,542.036 756.914,541.235 758.339,540.343C760.161,539.203 762.209,537.884 763.67,537.073C761.483,536.05 759.371,534.14 757.338,531.772C754.335,528.275 751.466,523.761 748.596,520.044C746.82,517.743 745.062,515.752 743.244,514.609C740.18,512.682 736.59,512.807 733.013,512.852C728.831,512.903 724.663,512.875 721.074,510.633C713.33,505.797 698.966,500.241 691.503,496.729C686.755,494.494 687.481,495.314 683.564,494.167C683.133,494.041 682.648,493.892 682.097,493.715C681.246,493.441 680.262,493.079 679.178,492.653L635.942,481.068C635.81,481.033 635.691,480.974 635.588,480.897L635.071,480.84C630.734,480.352 626.691,479.622 623.69,478.614C621.274,477.803 619.013,476.303 616.744,474.848C614.742,473.565 612.738,472.311 610.543,471.818C609.045,471.481 606.978,471.293 604.713,471.207C604.731,471.339 604.724,471.478 604.687,471.615C604.538,472.17 603.966,472.5 603.411,472.351L599.005,471.171C595.365,471.243 591.968,471.466 590.195,471.662L603.95,475.347C604.506,475.496 604.836,476.068 604.687,476.623C604.538,477.179 603.966,477.509 603.411,477.36L586.29,472.772C585.122,473.278 583.902,473.921 582.656,474.65L586.657,475.722C587.213,475.871 587.543,476.443 587.394,476.998C587.245,477.553 586.674,477.883 586.118,477.735L580.224,476.155L579.751,476.464C578.899,477.024 578.047,477.606 577.202,478.197L580.8,479.161C581.355,479.31 581.685,479.882 581.536,480.437C581.388,480.992 580.816,481.322 580.261,481.174L575.002,479.765C574.026,480.471 573.071,481.174 572.15,481.852L576.566,483.035C577.121,483.184 577.451,483.756 577.302,484.311C577.154,484.866 576.582,485.196 576.027,485.048L569.998,483.432C568.945,484.199 567.961,484.902 567.072,485.5L572.444,486.939C572.999,487.088 573.329,487.66 573.18,488.215C573.032,488.77 572.46,489.1 571.905,488.952L564.643,487.006C563.334,487.755 562.158,488.335 561.017,488.886L568.218,490.815C568.774,490.964 569.104,491.536 568.955,492.091C568.806,492.647 568.234,492.977 567.679,492.828L558.176,490.282C557.124,490.826 556.032,491.442 554.824,492.235L563.993,494.692C564.548,494.84 564.878,495.412 564.729,495.967C564.58,496.523 564.009,496.853 563.453,496.704L552.559,493.785C551.626,494.437 550.651,495.129 549.643,495.855L568.861,501.005C569.416,501.153 569.746,501.725 569.597,502.28C569.449,502.836 568.877,503.166 568.322,503.017L547.471,497.43C546.545,498.106 545.596,498.804 544.628,499.52L572.352,506.949C572.907,507.097 573.238,507.669 573.089,508.224C572.94,508.78 572.368,509.11 571.813,508.961L542.492,501.104C541.567,501.793 540.628,502.493 539.679,503.202L571.187,511.645C571.743,511.794 572.073,512.365 571.924,512.921C571.775,513.476 571.203,513.806 570.648,513.657L537.555,504.79L534.747,506.889L570.022,516.341C570.578,516.49 570.908,517.062 570.759,517.617C570.61,518.172 570.038,518.502 569.483,518.354L532.619,508.476C531.593,509.24 530.565,510.003 529.539,510.762C532.432,512.192 535.021,513.429 537.026,514.263C545.097,517.617 554.196,519.105 562.169,521.702C569.811,524.191 576.759,528.202 583.484,529.875C586.302,530.576 590.062,530.763 593.786,531.069C597.779,531.397 601.729,531.87 604.596,533.083C610.881,535.74 615.961,541.12 622.524,545.789C623.227,546.289 623.392,547.265 622.892,547.968C622.392,548.671 621.416,548.835 620.713,548.335C614.351,543.811 609.47,538.537 603.379,535.961C600.769,534.857 597.164,534.482 593.53,534.183C589.625,533.862 585.684,533.642 582.73,532.908C575.94,531.219 568.917,527.186 561.202,524.673C553.153,522.052 543.974,520.534 535.827,517.149C529.318,514.443 516.605,507.414 507.441,503.51ZM817.498,497.671C812.979,484.017 803.555,471.432 790.425,460.591C761.746,436.914 715.449,421.577 663.277,421.577C611.106,421.577 564.809,436.914 536.13,460.591C522.11,472.166 512.316,485.73 508.207,500.46C513.675,502.773 520.424,506.207 526.396,509.197C535.834,502.251 545.578,494.736 552.538,490.004C556.925,487.021 559.741,486.39 564.253,483.602C567.597,481.537 572.821,477.279 578.035,473.853C581.697,471.446 585.367,469.456 588.426,468.769C590.353,468.336 605.161,467.406 611.229,468.769C613.767,469.339 616.114,470.733 618.43,472.217C620.48,473.531 622.503,474.919 624.685,475.652C627.515,476.602 631.33,477.275 635.42,477.734C640.405,478.294 645.795,478.531 650.357,478.531C652.279,478.531 655.411,479.415 659.061,480.784C660.229,481.221 661.454,481.707 662.712,482.224C662.786,482.038 662.897,481.864 663.046,481.712C663.488,481.26 663.828,480.588 664.251,480.093C664.805,479.446 665.461,479.008 666.247,478.885C666.931,478.778 667.833,479.044 668.748,479.538C669.069,479.711 669.401,479.905 669.727,480.066C669.858,480.131 670.066,480.206 670.181,480.245C670.261,480.175 670.4,480.051 670.482,479.96C670.708,479.706 670.927,479.419 671.152,479.145C671.734,478.437 672.379,477.837 673.078,477.564C674.602,476.97 676.585,476.968 678.183,477.552C680.43,478.374 685.481,481.66 687.66,482.482C688.521,482.807 689.633,482.554 690.419,482.408C690.546,482.384 690.649,482.287 690.763,482.21C690.976,482.069 691.185,481.918 691.397,481.788C692.026,481.401 692.688,481.181 693.399,481.25C694.057,481.314 694.878,481.747 695.718,482.306C696.029,482.513 696.35,482.732 696.678,482.903C696.876,483.007 697.054,483.157 697.249,483.107C699.26,482.584 703.461,479.36 705.132,478.2C705.288,478.092 705.379,477.898 705.494,477.721C705.669,477.452 705.841,477.179 706.025,476.939C706.321,476.552 706.657,476.238 707.033,476.025L707.563,475.797L708.168,475.69C708.867,475.651 709.824,475.866 710.875,476.23C712.055,476.639 713.407,477.23 714.57,477.497C716.941,478.04 720.101,478.011 722.677,478.963C725.936,480.169 730.324,483.149 734.287,484.775C734.501,484.863 734.716,484.948 734.932,485.03C735.167,484.888 735.443,484.806 735.737,484.806C738.665,484.806 742.104,484.48 744.521,484.822C745.659,484.983 746.72,485.481 747.772,485.995C748.508,486.354 749.235,486.735 750.034,486.814C753.362,487.146 761.373,486.63 764.446,486.809C765.161,486.851 765.853,487.062 766.535,487.322C767.158,487.56 767.76,487.885 768.414,487.891C770.672,487.912 773.652,487.338 776.714,487.999C781.844,489.108 794.75,493.304 799.488,494.573C800.374,494.811 801.297,494.701 802.225,494.603C803.489,494.469 804.76,494.331 805.991,494.543C808.986,495.057 813.527,497.086 817.498,497.671ZM818.468,500.897C818.104,500.884 817.743,500.857 817.386,500.81C813.306,500.28 808.562,498.155 805.462,497.623C804.511,497.459 803.53,497.608 802.553,497.711C801.656,497.806 800.763,497.872 799.888,497.798L818.977,502.913C818.82,502.239 818.65,501.566 818.468,500.897ZM819.379,504.759C819.131,504.947 818.802,505.023 818.479,504.936L762.322,489.889C758.577,489.896 752.516,490.203 749.724,489.924C749.214,489.873 748.72,489.753 748.236,489.589C751.427,491.276 754.395,493.491 757.646,495.103C760.098,496.318 763.35,497.602 766.293,498.813L775.648,501.32C776.204,501.469 776.534,502.04 776.385,502.596C776.236,503.151 775.664,503.481 775.109,503.332L774.262,503.105C774.555,503.362 774.842,503.625 775.124,503.884C775.948,504.643 776.696,505.389 777.401,505.709C777.576,505.789 777.771,505.717 777.971,505.683C778.311,505.625 778.656,505.541 778.996,505.479C779.933,505.31 780.836,505.33 781.63,505.751C783.093,506.528 785.532,508.734 786.868,510.415C791.034,509.629 795.738,508.132 799.083,508.503C800.895,508.704 802.487,509.77 804.019,510.933C805.117,511.768 806.162,512.683 807.385,512.911C808.634,513.143 809.948,512.889 811.284,512.595C812.919,512.236 814.581,511.8 816.208,511.725C817.358,511.672 818.784,511.615 820.331,511.569C820.3,511.183 820.266,510.798 820.227,510.413L753.754,492.602C753.198,492.453 752.868,491.881 753.017,491.326C753.166,490.771 753.738,490.44 754.293,490.589L819.961,508.185C819.801,507.037 819.606,505.895 819.379,504.759ZM820.494,514.688C818.938,514.735 817.502,514.794 816.352,514.847C814.897,514.914 813.416,515.327 811.954,515.648C810.194,516.034 808.459,516.289 806.813,515.983C805.293,515.7 803.907,514.758 802.539,513.732C802.747,513.983 802.835,514.328 802.744,514.667C802.595,515.222 802.024,515.552 801.468,515.404L791.159,512.641C790.053,512.905 788.943,513.175 787.863,513.398C787.836,513.626 787.793,513.858 787.737,514.091C787.651,514.447 787.524,515.062 787.484,515.259C789.04,517.126 793.609,521.098 796.089,522.258C796.85,522.614 797.707,522.417 798.574,522.274C799.985,522.041 801.418,521.81 802.738,522.164C805.126,522.804 805.54,523.66 807.855,524.94C808.448,525.268 808.744,525.926 808.641,526.559C810.176,526.744 811.7,526.89 813.149,526.458C814.727,525.988 817.14,525.124 819.968,524.052C820.132,522.862 820.26,521.666 820.351,520.463L811.173,518.004C810.618,517.855 810.288,517.284 810.436,516.728C810.585,516.173 811.157,515.843 811.712,515.992L820.471,518.339C820.499,517.609 820.513,516.877 820.513,516.143C820.513,515.657 820.507,515.172 820.494,514.688ZM818.09,532.726C818.589,531.037 819.014,529.331 819.362,527.612C817.183,528.421 815.334,529.068 814.041,529.453C812.052,530.045 809.955,529.868 807.847,529.61C807.058,529.514 806.267,529.404 805.482,529.348L818.09,532.726ZM816.535,537.318C816.864,536.455 817.175,535.587 817.465,534.715L800.135,530.072C798.46,530.46 796.565,530.919 794.539,531.424L816.535,537.318ZM814.62,541.813C815.017,540.969 815.395,540.119 815.754,539.265L790.405,532.473C788.644,532.927 786.835,533.401 785.027,533.884L814.62,541.813ZM812.355,546.215C812.817,545.388 813.262,544.557 813.687,543.72L781.017,534.966C779.225,535.456 777.468,535.945 775.798,536.419L812.355,546.215ZM807.981,553.116C809.156,551.462 810.254,549.783 811.273,548.082L771.925,537.538C770.04,538.094 768.354,538.61 766.963,539.06L793.071,546.056C793.626,546.205 793.956,546.776 793.807,547.332C793.658,547.887 793.087,548.217 792.531,548.068L764.04,540.434C763.086,541.015 761.967,541.742 760.874,542.437L774.379,546.056C774.934,546.205 775.264,546.776 775.115,547.332C774.967,547.887 774.395,548.217 773.84,548.068L758.429,543.939C757.26,544.616 756.29,545.1 755.785,545.211C754.786,545.429 753.703,545.061 752.628,544.385C752.144,544.08 751.65,543.718 751.145,543.449C750.897,543.318 750.66,543.18 750.405,543.208C749.611,543.295 748.448,543.484 747.051,543.742L755.687,546.056C756.242,546.205 756.572,546.776 756.423,547.332C756.275,547.887 755.703,548.217 755.148,548.068L742.426,544.66C740.526,545.055 738.499,545.493 736.523,545.929L736.995,546.056C737.55,546.205 737.88,546.776 737.732,547.332C737.583,547.887 737.011,548.217 736.456,548.068L732.137,546.911C728.022,547.844 724.892,548.583 724.892,548.583L724.867,548.589L803.451,548.589C804.255,548.589 804.928,549.198 805.006,549.998C805.085,550.798 804.544,551.527 803.756,551.684L800.931,552.246L807.981,553.116ZM536.275,571.815C564.964,595.424 611.194,610.71 663.277,610.71C715.449,610.71 761.746,595.373 790.425,571.696C796.356,566.799 801.53,561.546 805.838,556L790.914,554.157C790.152,554.063 789.572,553.431 789.544,552.664C789.531,552.314 789.635,551.984 789.823,551.714L673.168,551.714C673.046,551.714 672.925,551.7 672.806,551.671L661.739,549.04L661.739,550.151C661.739,551.014 661.039,551.714 660.176,551.714L643.766,551.714C644.025,552.086 644.116,552.563 643.99,553.021C643.804,553.699 643.187,554.169 642.484,554.169L638.489,554.169C637.039,554.416 624.052,556.604 619.179,556.604C615.662,556.604 609.282,554.703 607.684,554.21L593.553,556.583C593.467,556.597 593.381,556.604 593.294,556.604L564.206,556.604L558.821,559.866L556.735,561.453L559.052,563.794C559.456,564.203 559.604,564.802 559.435,565.352C559.266,565.902 558.808,566.315 558.244,566.426L547.499,568.548C547.399,568.568 547.298,568.578 547.196,568.578L538.541,568.578L538.541,570.097C538.541,570.851 538.002,571.497 537.261,571.634L536.275,571.815ZM793.391,508.231L780.82,504.862C780.264,504.714 779.934,504.142 780.083,503.587C780.232,503.031 780.804,502.701 781.359,502.85L793.931,506.219C794.486,506.367 794.816,506.939 794.667,507.494C794.518,508.05 793.947,508.38 793.391,508.231ZM791.053,517.621C790.497,517.472 790.167,516.901 790.316,516.345C790.465,515.79 791.036,515.46 791.592,515.609L814.132,521.649C814.688,521.797 815.018,522.369 814.869,522.924C814.72,523.48 814.148,523.81 813.593,523.661L791.053,517.621ZM617.088,501.058C616.533,500.91 616.203,500.338 616.352,499.783C616.5,499.227 617.072,498.897 617.627,499.046L623.708,500.676C624.264,500.824 624.594,501.396 624.445,501.951C624.296,502.507 623.725,502.837 623.169,502.688L617.088,501.058ZM589.605,478.669C589.049,478.52 588.719,477.948 588.868,477.393C589.017,476.838 589.588,476.508 590.144,476.656L603.95,480.356C604.506,480.505 604.836,481.076 604.687,481.632C604.538,482.187 603.966,482.517 603.411,482.368L589.605,478.669ZM654.502,501.066C653.946,500.918 653.616,500.346 653.765,499.791C653.914,499.235 654.485,498.905 655.041,499.054L675.109,504.431C675.664,504.58 675.994,505.152 675.846,505.707C675.697,506.262 675.125,506.592 674.57,506.444L654.502,501.066ZM591.423,489.173C590.868,489.024 590.538,488.453 590.687,487.897C590.835,487.342 591.407,487.012 591.962,487.161L607.633,491.36C608.188,491.508 608.518,492.08 608.369,492.635C608.22,493.191 607.649,493.521 607.093,493.372L591.423,489.173ZM739.14,523.745C738.585,523.597 738.255,523.025 738.404,522.47C738.553,521.914 739.124,521.584 739.68,521.733L742.927,522.603C743.482,522.752 743.812,523.324 743.664,523.879C743.515,524.434 742.943,524.764 742.388,524.615L739.14,523.745ZM625.438,508.304C624.883,508.156 624.553,507.584 624.702,507.029C624.851,506.473 625.422,506.143 625.978,506.292L635.696,508.896C636.251,509.045 636.581,509.616 636.432,510.172C636.283,510.727 635.712,511.057 635.156,510.908L625.438,508.304ZM685.761,509.442C685.206,509.294 684.876,508.722 685.024,508.167C685.173,507.611 685.745,507.281 686.3,507.43L692.707,509.147C693.262,509.295 693.592,509.867 693.443,510.422C693.294,510.978 692.723,511.308 692.167,511.159L685.761,509.442ZM611.065,484.419C610.509,484.27 610.179,483.699 610.328,483.143C610.477,482.588 611.048,482.258 611.604,482.407L616.958,483.841C617.513,483.99 617.843,484.562 617.695,485.117C617.546,485.672 616.974,486.002 616.419,485.854L611.065,484.419ZM661.261,527.92C660.706,527.771 660.376,527.199 660.524,526.644C660.673,526.089 661.245,525.759 661.8,525.908L671.78,528.582C672.335,528.73 672.665,529.302 672.516,529.857C672.368,530.413 671.796,530.743 671.241,530.594L661.261,527.92ZM630.331,504.607C629.776,504.458 629.446,503.886 629.595,503.331C629.743,502.776 630.315,502.446 630.87,502.595L633.352,503.259C633.907,503.408 634.237,503.98 634.088,504.535C633.94,505.091 633.368,505.421 632.813,505.272L630.331,504.607ZM695.708,512.108C695.152,511.959 694.822,511.387 694.971,510.832C695.12,510.276 695.692,509.946 696.247,510.095L703.66,512.082C704.215,512.23 704.545,512.802 704.396,513.357C704.248,513.913 703.676,514.243 703.121,514.094L695.708,512.108ZM609.29,473.926C608.845,473.808 608.517,473.402 608.517,472.92C608.517,472.634 608.633,472.374 608.82,472.443C609.006,472.474 609.272,472.841 609.569,473.885L609.829,471.914L609.862,471.923L609.593,473.971C609.487,473.971 609.386,473.956 609.29,473.926C609.412,473.959 609.498,473.963 609.536,473.963L609.527,473.961C609.445,473.959 609.366,473.947 609.29,473.926ZM612.84,494.912C612.285,494.763 611.955,494.191 612.103,493.636C612.252,493.081 612.824,492.751 613.379,492.899L617.976,494.131C618.532,494.28 618.862,494.852 618.713,495.407C618.564,495.962 617.992,496.292 617.437,496.144L612.84,494.912ZM652.24,510.477C651.685,510.329 651.355,509.757 651.504,509.202C651.652,508.646 652.224,508.316 652.779,508.465L677.265,515.026C677.82,515.175 678.15,515.746 678.002,516.302C677.853,516.857 677.281,517.187 676.726,517.038L652.24,510.477ZM590.589,493.958C590.033,493.809 589.703,493.238 589.852,492.682C590.001,492.127 590.573,491.797 591.128,491.946L609.821,496.954C610.376,497.103 610.706,497.675 610.558,498.23C610.409,498.786 609.837,499.116 609.282,498.967L590.589,493.958ZM611.952,489.665C611.397,489.517 611.067,488.945 611.216,488.39C611.365,487.834 611.936,487.504 612.491,487.653L617.976,489.123C618.532,489.271 618.862,489.843 618.713,490.398C618.564,490.954 617.992,491.284 617.437,491.135L611.952,489.665ZM685.761,504.434C685.206,504.285 684.876,503.713 685.024,503.158C685.173,502.603 685.745,502.273 686.3,502.422L693.465,504.341C694.02,504.49 694.35,505.062 694.202,505.617C694.053,506.172 693.481,506.502 692.926,506.354L685.761,504.434ZM577.433,520.484C576.878,520.335 576.548,519.763 576.696,519.208C576.845,518.653 577.417,518.323 577.972,518.471L591.011,521.965C591.567,522.114 591.897,522.686 591.748,523.241C591.599,523.796 591.028,524.126 590.472,523.978L577.433,520.484ZM574.696,524.759C574.141,524.61 573.811,524.038 573.959,523.483C574.108,522.928 574.68,522.598 575.235,522.746L587.256,525.967C587.812,526.116 588.142,526.688 587.993,527.243C587.844,527.799 587.272,528.129 586.717,527.98L574.696,524.759ZM581.492,511.554C580.937,511.406 580.607,510.834 580.755,510.279C580.904,509.723 581.476,509.393 582.031,509.542L598.522,513.961C599.077,514.109 599.407,514.681 599.258,515.236C599.11,515.792 598.538,516.122 597.983,515.973L581.492,511.554ZM697.919,502.683C697.364,502.534 697.034,501.963 697.183,501.407C697.332,500.852 697.903,500.522 698.458,500.671L702.467,501.745C703.023,501.894 703.353,502.466 703.204,503.021C703.055,503.576 702.484,503.906 701.928,503.757L697.919,502.683ZM656.213,521.559C655.658,521.41 655.328,520.839 655.477,520.283C655.626,519.728 656.197,519.398 656.753,519.547L673.864,524.132C674.42,524.281 674.75,524.852 674.601,525.408C674.452,525.963 673.881,526.293 673.325,526.144L656.213,521.559ZM633.531,525.498C632.975,525.349 632.645,524.778 632.794,524.222C632.943,523.667 633.514,523.337 634.07,523.486L645.487,526.545C646.043,526.694 646.373,527.266 646.224,527.821C646.075,528.376 645.504,528.706 644.948,528.557L633.531,525.498ZM687.693,499.943C687.138,499.794 686.808,499.223 686.957,498.667C687.106,498.112 687.677,497.782 688.233,497.931L690.056,498.419C690.611,498.568 690.941,499.14 690.792,499.695C690.643,500.25 690.072,500.58 689.516,500.432L687.693,499.943ZM645.415,488.615C644.86,488.466 644.53,487.894 644.679,487.339C644.827,486.784 645.399,486.454 645.954,486.602L682.336,496.351C682.892,496.5 683.222,497.071 683.073,497.627C682.924,498.182 682.353,498.512 681.797,498.363L645.415,488.615ZM610.177,479.173C609.621,479.024 609.291,478.452 609.44,477.897C609.589,477.342 610.161,477.012 610.716,477.16L615.018,478.313C615.574,478.462 615.904,479.034 615.755,479.589C615.606,480.144 615.034,480.474 614.479,480.325L610.177,479.173ZM693.719,516.583L686.825,514.736C686.27,514.587 685.94,514.015 686.088,513.46C686.237,512.905 686.809,512.575 687.364,512.724L694.258,514.571L694.271,514.574L694.685,514.685L694.695,514.688L704.427,517.295C704.982,517.444 705.312,518.016 705.163,518.571C705.015,519.127 704.443,519.457 703.888,519.308L694.156,516.7C694.101,516.686 694.048,516.667 693.997,516.644L693.808,516.603L693.731,516.586L693.719,516.583ZM631.717,520.004C631.162,519.855 630.832,519.283 630.981,518.728C631.13,518.173 631.701,517.843 632.257,517.991L641.659,520.511C642.214,520.659 642.544,521.231 642.395,521.786C642.246,522.342 641.675,522.672 641.119,522.523L631.717,520.004ZM574.449,499.65C573.894,499.501 573.564,498.93 573.712,498.374C573.861,497.819 574.433,497.489 574.988,497.638L577.564,498.328C578.12,498.477 578.45,499.049 578.301,499.604C578.152,500.159 577.58,500.489 577.025,500.341L574.449,499.65ZM579.157,500.912C578.602,500.763 578.272,500.191 578.42,499.636C578.569,499.081 579.141,498.751 579.696,498.899L585.106,500.349C585.661,500.498 585.991,501.069 585.842,501.625C585.694,502.18 585.122,502.51 584.567,502.361L579.157,500.912ZM593.106,504.65C592.551,504.501 592.221,503.929 592.37,503.374C592.519,502.818 593.09,502.488 593.646,502.637L606.032,505.956C606.587,506.105 606.917,506.677 606.769,507.232C606.62,507.787 606.048,508.117 605.493,507.968L593.106,504.65ZM610.137,509.213C609.581,509.064 609.251,508.492 609.4,507.937C609.549,507.382 610.121,507.052 610.676,507.2L615.173,508.405C615.729,508.554 616.059,509.126 615.91,509.681C615.761,510.237 615.189,510.567 614.634,510.418L610.137,509.213ZM655.724,496.385C655.169,496.237 654.839,495.665 654.987,495.11C655.136,494.554 655.708,494.224 656.263,494.373L678.712,500.388C679.267,500.537 679.597,501.109 679.448,501.664C679.3,502.219 678.728,502.549 678.173,502.401L655.724,496.385ZM608.734,513.845C608.178,513.697 607.848,513.125 607.997,512.57C608.146,512.014 608.718,511.684 609.273,511.833L615.85,513.595C616.405,513.744 616.735,514.316 616.586,514.871C616.438,515.426 615.866,515.756 615.311,515.608L608.734,513.845ZM594.877,530.166C594.321,530.017 593.991,529.446 594.14,528.89C594.289,528.335 594.861,528.005 595.416,528.154L600.186,529.432C600.742,529.581 601.072,530.153 600.923,530.708C600.774,531.263 600.203,531.593 599.647,531.444L594.877,530.166ZM697.26,507.515C696.704,507.366 696.374,506.794 696.523,506.239C696.672,505.684 697.244,505.354 697.799,505.503L703.034,506.905C703.589,507.054 703.919,507.626 703.771,508.181C703.622,508.736 703.05,509.066 702.495,508.918L697.26,507.515ZM587.38,508.124C586.825,507.975 586.495,507.403 586.643,506.848C586.792,506.292 587.364,505.962 587.919,506.111L602.277,509.958C602.832,510.107 603.162,510.679 603.013,511.234C602.865,511.789 602.293,512.12 601.738,511.971L587.38,508.124ZM592.01,484.322C591.455,484.173 591.125,483.601 591.274,483.046C591.423,482.491 591.994,482.161 592.55,482.31L604.916,485.623C605.471,485.772 605.801,486.344 605.653,486.899C605.504,487.454 604.932,487.784 604.377,487.636L592.01,484.322ZM627.924,513.979C627.368,513.83 627.038,513.258 627.187,512.703C627.336,512.148 627.908,511.818 628.463,511.966L641.849,515.553C642.405,515.702 642.735,516.274 642.586,516.829C642.437,517.384 641.865,517.714 641.31,517.566L627.924,513.979ZM593.636,499.783C593.081,499.634 592.751,499.063 592.9,498.507C593.049,497.952 593.62,497.622 594.176,497.771L609.787,501.954C610.343,502.103 610.673,502.674 610.524,503.23C610.375,503.785 609.803,504.115 609.248,503.966L593.636,499.783ZM574.449,494.642C573.894,494.493 573.564,493.921 573.712,493.366C573.861,492.811 574.433,492.481 574.988,492.629L576.328,492.988C576.883,493.137 577.213,493.709 577.065,494.264C576.916,494.82 576.344,495.15 575.789,495.001L574.449,494.642ZM575.486,504.937C574.931,504.788 574.601,504.216 574.749,503.661C574.898,503.105 575.47,502.775 576.025,502.924L583.651,504.968C584.207,505.116 584.537,505.688 584.388,506.243C584.239,506.799 583.667,507.129 583.112,506.98L575.486,504.937ZM581.541,516.576C580.986,516.427 580.656,515.856 580.804,515.3C580.953,514.745 581.525,514.415 582.08,514.564L594.767,517.963C595.322,518.112 595.652,518.683 595.503,519.239C595.354,519.794 594.783,520.124 594.227,519.975L581.541,516.576ZM607.538,523.542C606.982,523.393 606.652,522.821 606.801,522.266C606.95,521.711 607.521,521.381 608.077,521.529L613.138,522.886C613.693,523.034 614.024,523.606 613.875,524.161C613.726,524.717 613.154,525.047 612.599,524.898L607.538,523.542ZM608.018,518.662C607.462,518.513 607.132,517.941 607.281,517.386C607.43,516.831 608.002,516.501 608.557,516.65L615.033,518.385C615.588,518.534 615.918,519.105 615.77,519.661C615.621,520.216 615.049,520.546 614.494,520.397L608.018,518.662ZM652.182,515.47C651.626,515.321 651.296,514.75 651.445,514.194C651.594,513.639 652.166,513.309 652.721,513.458L675.639,519.599C676.195,519.748 676.525,520.319 676.376,520.875C676.227,521.43 675.656,521.76 675.1,521.611L652.182,515.47ZM698.04,532.766C697.485,532.618 697.155,532.046 697.303,531.491C697.452,530.935 698.024,530.605 698.579,530.754L700.678,531.316C701.234,531.465 701.564,532.037 701.415,532.592C701.266,533.148 700.694,533.478 700.139,533.329L698.04,532.766ZM728.515,515.89C727.959,515.741 727.629,515.169 727.778,514.614C727.927,514.059 728.499,513.729 729.054,513.877L738.414,516.385C738.969,516.534 739.299,517.106 739.15,517.661C739.001,518.216 738.43,518.546 737.874,518.398L728.515,515.89ZM652.14,505.442C651.585,505.293 651.254,504.722 651.403,504.166C651.552,503.611 652.124,503.281 652.679,503.43L676.894,509.918C677.45,510.067 677.78,510.639 677.631,511.194C677.482,511.749 676.91,512.079 676.355,511.931L652.14,505.442ZM694.349,526.769C693.794,526.62 693.464,526.049 693.613,525.493C693.761,524.938 694.333,524.608 694.888,524.757L701.448,526.514C702.003,526.663 702.333,527.235 702.184,527.79C702.036,528.345 701.464,528.675 700.909,528.527L694.349,526.769ZM690.474,520.722C689.919,520.573 689.589,520.002 689.738,519.446C689.887,518.891 690.458,518.561 691.014,518.71L703.682,522.104C704.237,522.253 704.567,522.825 704.418,523.38C704.269,523.935 703.698,524.265 703.142,524.117L690.474,520.722ZM693.553,484.625C693.425,484.546 693.247,484.453 693.141,484.399C693.014,484.476 692.758,484.633 692.607,484.736C692.097,485.083 691.56,485.375 690.989,485.481C689.727,485.715 687.939,485.928 686.557,485.406C684.384,484.587 679.35,481.307 677.11,480.487C676.203,480.156 675.078,480.138 674.214,480.476C674.061,480.535 673.951,480.688 673.821,480.831C673.525,481.16 673.244,481.539 672.955,481.878C672.303,482.641 671.566,483.193 670.783,483.347C670.013,483.499 669.071,483.249 668.144,482.767C667.71,482.541 666.996,482.184 666.709,482.04C666.669,482.079 666.627,482.123 666.598,482.157C666.494,482.283 666.396,482.422 666.298,482.563C666.088,482.866 665.879,483.177 665.658,483.459C672.197,486.251 679.077,489.46 683.055,490.74C683.575,490.908 684.034,491.048 684.442,491.168C687.04,491.928 687.704,491.881 689.076,492.321C689.042,491.776 689.295,491.229 689.786,490.911C690.591,490.389 691.323,489.69 692.093,489.082C693.105,488.285 694.179,487.635 695.416,487.404C695.72,487.347 696.057,487.298 696.422,487.257L693.777,486.548C693.222,486.399 692.892,485.827 693.04,485.272C693.118,484.984 693.309,484.756 693.553,484.625ZM671.976,485.715C671.421,485.566 671.091,484.994 671.24,484.439C671.389,483.884 671.96,483.554 672.516,483.703L681.94,486.228C682.495,486.376 682.825,486.948 682.676,487.503C682.527,488.059 681.956,488.389 681.4,488.24L671.976,485.715ZM684.526,489.078C683.971,488.929 683.641,488.357 683.79,487.802C683.939,487.247 684.51,486.917 685.066,487.065L688.943,488.104C689.498,488.253 689.828,488.825 689.68,489.38C689.531,489.935 688.959,490.265 688.404,490.117L684.526,489.078ZM697.325,487.172C700.624,486.924 705.423,487.126 708.32,487.383C709.797,487.514 711.227,487.991 712.655,488.45C713.817,488.824 714.975,489.192 716.18,489.192C717.786,489.192 719.858,488.512 721.966,487.974C724.487,487.331 727.05,486.89 729.119,487.427C731.208,487.969 733.16,489.669 734.949,491.486C736.382,492.941 737.683,494.483 738.981,495.085C739.875,495.5 740.893,495.331 741.915,495.22C742.714,495.134 743.515,495.058 744.295,495.075L744.263,495.067L737.197,493.174C736.642,493.025 736.312,492.453 736.461,491.898C736.609,491.343 737.181,491.013 737.736,491.161L744.803,493.055C745.358,493.204 745.688,493.775 745.539,494.331C745.428,494.745 745.082,495.034 744.683,495.092C745.289,495.132 745.881,495.238 746.447,495.45C749.259,496.505 752.502,499.357 755.52,501.326C756.242,501.797 756.446,502.766 755.975,503.488C755.503,504.211 754.534,504.414 753.812,503.943C752.042,502.788 750.205,501.286 748.432,500.081L748.425,500.112C748.276,500.668 747.704,500.998 747.149,500.849L735.194,497.645C734.638,497.497 734.308,496.925 734.457,496.37C734.52,496.133 734.661,495.937 734.844,495.802C734.15,495.143 733.443,494.41 732.722,493.678C731.842,492.785 730.945,491.881 729.992,491.238C729.96,491.233 729.928,491.226 729.897,491.218L726.477,490.301C725.293,490.368 724.011,490.677 722.739,491.002C720.353,491.611 717.997,492.317 716.18,492.317C714.651,492.317 713.172,491.899 711.699,491.425C711.213,491.269 710.728,491.106 710.24,490.959L709.234,490.69C708.841,490.6 708.445,490.531 708.045,490.496C705.16,490.24 700.257,490.012 697.184,490.312L716.152,495.395C716.707,495.544 717.037,496.115 716.888,496.671C716.739,497.226 716.168,497.556 715.612,497.407L693.946,491.602C693.201,492.195 692.48,492.851 691.711,493.382C692.05,493.536 692.423,493.708 692.834,493.901C700.381,497.453 714.898,503.092 722.729,507.983C725.801,509.901 729.395,509.771 732.974,509.727C737.158,509.675 741.324,509.71 744.908,511.963C746.986,513.271 749.039,515.504 751.069,518.134C753.908,521.81 756.739,526.278 759.709,529.737C761.425,531.735 763.167,533.394 765.013,534.251C765.733,534.585 766.078,535.4 765.845,536.138C774.166,533.43 793.361,528.313 802.095,526.428C802.766,526.283 803.447,526.217 804.134,526.202C803.551,525.796 802.954,525.457 801.929,525.182C800.786,524.876 799.532,525.314 798.321,525.472C797.076,525.635 795.869,525.605 794.766,525.089C793.726,524.603 792.357,523.68 790.958,522.604L786.637,521.447C786.082,521.298 785.752,520.726 785.901,520.171C786.05,519.616 786.621,519.286 787.177,519.434L787.23,519.449C786.25,518.538 785.435,517.701 784.947,517.093C784.322,516.314 784.238,515.325 784.475,514.255C784.55,513.916 784.656,513.566 784.73,513.224C784.754,513.111 784.773,512.92 784.779,512.849C783.962,511.517 781.527,509.234 780.165,508.512C780.107,508.481 780.046,508.474 779.982,508.478C779.977,508.507 779.97,508.535 779.963,508.563C779.814,509.118 779.242,509.448 778.687,509.299L774.494,508.176C773.939,508.027 773.609,507.456 773.758,506.9L773.765,506.874L773.587,506.714C772.552,505.777 771.447,504.646 770.266,504.011C767.439,502.494 762.217,500.605 758.148,498.787L754.903,497.918C754.386,497.78 754.064,497.275 754.142,496.758C751.148,495.02 748.311,492.958 745.181,491.575C741.318,489.867 737.016,489.273 733.101,487.666C732.133,487.269 731.141,486.79 730.146,486.276L712.455,481.536C711.9,481.387 711.57,480.815 711.718,480.26C711.752,480.136 711.806,480.023 711.877,479.924C711.188,479.675 710.496,479.406 709.853,479.183C709.353,479.01 708.903,478.848 708.538,478.815C708.447,478.938 708.287,479.156 708.193,479.301C707.826,479.872 707.417,480.418 706.914,480.767C706.376,481.141 705.597,481.696 704.707,482.311L719.839,486.366C720.395,486.515 720.725,487.086 720.576,487.642C720.427,488.197 719.855,488.527 719.3,488.378L702.407,483.852C700.769,484.904 699.113,485.851 698.035,486.131C697.967,486.149 697.898,486.164 697.83,486.177C697.841,486.298 697.832,486.423 697.799,486.547C697.726,486.82 697.551,487.038 697.325,487.172ZM762.872,525.096C762.317,524.947 761.987,524.375 762.135,523.82C762.284,523.265 762.856,522.935 763.411,523.083L782.37,528.163C782.925,528.312 783.255,528.884 783.106,529.439C782.957,529.994 782.386,530.324 781.83,530.176L762.872,525.096ZM771.708,512.438C771.153,512.289 770.823,511.717 770.971,511.162C771.12,510.607 771.692,510.277 772.247,510.426L777.171,511.745C777.726,511.894 778.057,512.465 777.908,513.021C777.759,513.576 777.187,513.906 776.632,513.757L771.708,512.438ZM714.357,502.079C713.802,501.93 713.472,501.359 713.62,500.803C713.769,500.248 714.341,499.918 714.896,500.067L717.696,500.817C718.251,500.966 718.581,501.537 718.432,502.093C718.283,502.648 717.712,502.978 717.156,502.829L714.357,502.079ZM761.315,509.653C760.76,509.504 760.43,508.933 760.578,508.377C760.727,507.822 761.299,507.492 761.854,507.641L768.95,509.542C769.505,509.691 769.835,510.263 769.687,510.818C769.538,511.373 768.966,511.703 768.411,511.554L761.315,509.653ZM721.734,499.047C721.179,498.899 720.849,498.327 720.997,497.772C721.146,497.216 721.718,496.886 722.273,497.035L727.48,498.43C728.035,498.579 728.365,499.151 728.217,499.706C728.068,500.261 727.496,500.591 726.941,500.443L721.734,499.047ZM722.657,504.303C722.102,504.154 721.772,503.583 721.921,503.028C722.07,502.472 722.641,502.142 723.197,502.291L727.48,503.439C728.035,503.587 728.365,504.159 728.217,504.714C728.068,505.27 727.496,505.6 726.941,505.451L722.657,504.303ZM731.787,501.741C731.231,501.592 730.901,501.021 731.05,500.465C731.199,499.91 731.771,499.58 732.326,499.729L749.351,504.29C749.906,504.439 750.236,505.011 750.087,505.566C749.938,506.122 749.367,506.452 748.812,506.303L731.787,501.741ZM764.085,515.404C763.529,515.255 763.199,514.683 763.348,514.128C763.497,513.573 764.068,513.243 764.624,513.391L778.164,517.019C778.719,517.168 779.049,517.74 778.9,518.295C778.751,518.85 778.18,519.18 777.624,519.032L764.085,515.404ZM721,493.842C720.444,493.693 720.114,493.122 720.263,492.566C720.412,492.011 720.984,491.681 721.539,491.83L728.05,493.574C728.605,493.723 728.935,494.295 728.787,494.85C728.638,495.406 728.066,495.736 727.511,495.587L721,493.842ZM758.852,503.985C758.296,503.836 757.966,503.264 758.115,502.709C758.264,502.153 758.835,501.823 759.391,501.972L770.717,505.007C771.272,505.156 771.602,505.727 771.453,506.283C771.304,506.838 770.733,507.168 770.177,507.019L758.852,503.985ZM760.564,529.486C760.009,529.337 759.679,528.765 759.828,528.21C759.977,527.655 760.548,527.325 761.104,527.474L773.069,530.68C773.624,530.828 773.954,531.4 773.805,531.955C773.657,532.511 773.085,532.841 772.53,532.692L760.564,529.486ZM730.717,506.463C730.162,506.314 729.832,505.742 729.98,505.187C730.129,504.632 730.701,504.302 731.256,504.45L751.078,509.762C751.633,509.911 751.963,510.482 751.815,511.038C751.666,511.593 751.094,511.923 750.539,511.774L730.717,506.463ZM772.953,522.789C772.398,522.64 772.068,522.068 772.217,521.513C772.366,520.957 772.937,520.627 773.493,520.776L792.049,525.748C792.604,525.897 792.934,526.469 792.785,527.024C792.636,527.579 792.065,527.909 791.509,527.761L772.953,522.789ZM802.158,513.444L802.128,513.422C801.058,512.609 800.005,511.749 798.738,511.609C797.827,511.507 796.81,511.562 795.73,511.709L802.007,513.391C802.06,513.405 802.11,513.423 802.158,513.444ZM665.767,486.903C664.322,486.28 662.884,485.67 661.487,485.098C656.814,483.184 652.643,481.656 650.357,481.656C648.947,481.656 647.459,481.634 645.929,481.587L665.767,486.903ZM793.691,496.138C787.874,494.382 779.837,491.871 776.054,491.054C775.262,490.883 774.477,490.806 773.711,490.784L793.691,496.138Z" style="fill:rgb(34,54,186);"/>
        </g>
    </g>
</svg>
