<?xml version="1.0" encoding="UTF-8" standalone="no"?>
<!DOCTYPE svg PUBLIC "-//W3C//DTD SVG 1.1//EN" "http://www.w3.org/Graphics/SVG/1.1/DTD/svg11.dtd">
<svg width="100%" height="100%" viewBox="0 0 461 189" version="1.1" xmlns="http://www.w3.org/2000/svg" xmlns:xlink="http://www.w3.org/1999/xlink" xml:space="preserve" xmlns:serif="http://www.serif.com/" style="fill-rule:evenodd;clip-rule:evenodd;stroke-linejoin:round;stroke-miterlimit:2;">
    <g transform="matrix(1,0,0,1,-898.91,-2107.13)">
        <g transform="matrix(1.27213,0,0,1.27213,278.827,1694.97)">
            <g transform="matrix(1,0,0,1,175.505,172.477)">
                <path d="M450.044,158.523C477.838,149.18 507.924,149.18 535.719,158.523L654.341,198.394C665.986,202.308 673.83,213.221 673.83,225.506C673.83,237.792 665.986,248.705 654.341,252.619L535.719,292.49C507.924,301.833 477.838,301.833 450.044,292.49L331.422,252.619C319.777,248.705 311.932,237.792 311.932,225.506C311.932,213.221 319.777,202.308 331.422,198.394L450.044,158.523ZM346.888,196.747L332.494,201.585C322.22,205.038 315.298,214.667 315.298,225.506C315.298,236.346 322.22,245.975 332.494,249.428L346.852,254.254L638.911,254.254L653.268,249.428C663.543,245.975 670.464,236.346 670.464,225.506C670.464,214.667 663.543,205.038 653.268,201.585L638.875,196.747L346.888,196.747ZM356.596,257.529L361.136,259.055L361.136,257.529L356.596,257.529ZM362.58,259.541L368.623,261.572L368.623,257.529L362.58,257.529L362.58,259.541ZM370.067,262.057L376.11,264.088L376.11,257.529L370.067,257.529L370.067,262.057ZM377.554,264.574L383.597,266.605L383.597,257.529L377.554,257.529L377.554,264.574ZM385.041,267.09L391.084,269.122L391.084,257.529L385.041,257.529L385.041,267.09ZM392.528,269.607L398.571,271.638L398.571,257.529L392.528,257.529L392.528,269.607ZM400.015,272.123L406.058,274.155L406.058,257.529L400.015,257.529L400.015,272.123ZM407.502,274.64L413.545,276.671L413.545,257.529L407.502,257.529L407.502,274.64ZM414.989,277.157L421.032,279.188L421.032,257.529L414.989,257.529L414.989,277.157ZM422.476,279.673L428.52,281.704L428.52,257.529L422.476,257.529L422.476,279.673ZM429.963,282.19L436.007,284.221L436.007,257.529L429.963,257.529L429.963,282.19ZM437.45,284.706L443.494,286.738L443.494,257.529L437.45,257.529L437.45,284.706ZM444.937,287.223L450.981,289.254L450.981,257.529L444.937,257.529L444.937,287.223ZM452.424,289.732C454.428,290.382 456.443,290.982 458.468,291.533L458.468,257.529L452.424,257.529L452.424,289.732ZM459.911,291.917C461.917,292.438 463.932,292.911 465.955,293.336L465.955,257.529L459.911,257.529L459.911,291.917ZM467.398,293.63C469.406,294.028 471.421,294.379 473.442,294.682L473.442,257.529L467.398,257.529L467.398,293.63ZM474.885,294.89C476.896,295.169 478.911,295.4 480.929,295.585L480.929,257.529L474.885,257.529L474.885,294.89ZM482.373,295.709C484.385,295.871 486.4,295.986 488.416,296.055L488.416,257.529L482.373,257.529L482.373,295.709ZM489.86,296.096C491.874,296.143 493.889,296.143 495.903,296.096L495.903,257.529L489.86,257.529L489.86,296.096ZM497.347,296.055C499.363,295.986 501.378,295.871 503.39,295.709L503.39,257.529L497.347,257.529L497.347,296.055ZM504.834,295.585C506.852,295.4 508.867,295.169 510.877,294.89L510.877,257.529L504.834,257.529L504.834,295.585ZM512.321,294.682C514.341,294.379 516.356,294.028 518.364,293.63L518.364,257.529L512.321,257.529L512.321,294.682ZM519.808,293.336C521.83,292.911 523.845,292.438 525.851,291.917L525.851,257.529L519.808,257.529L519.808,293.336ZM527.295,291.533C529.32,290.982 531.335,290.382 533.338,289.732L533.338,257.529L527.295,257.529L527.295,291.533ZM534.782,289.254L540.825,287.223L540.825,257.529L534.782,257.529L534.782,289.254ZM542.269,286.738L548.312,284.706L548.312,257.529L542.269,257.529L542.269,286.738ZM549.756,284.221L555.799,282.19L555.799,257.529L549.756,257.529L549.756,284.221ZM557.243,281.704L563.286,279.673L563.286,257.529L557.243,257.529L557.243,281.704ZM564.73,279.188L570.773,277.157L570.773,257.529L564.73,257.529L564.73,279.188ZM572.217,276.671L578.26,274.64L578.26,257.529L572.217,257.529L572.217,276.671ZM579.704,274.155L585.747,272.123L585.747,257.529L579.704,257.529L579.704,274.155ZM587.191,271.638L593.234,269.607L593.234,257.529L587.191,257.529L587.191,271.638ZM594.678,269.122L600.722,267.09L600.722,257.529L594.678,257.529L594.678,269.122ZM602.165,266.605L608.209,264.574L608.209,257.529L602.165,257.529L602.165,266.605ZM609.652,264.088L615.696,262.057L615.696,257.529L609.652,257.529L609.652,264.088ZM617.139,261.572L623.183,259.541L623.183,257.529L617.139,257.529L617.139,261.572ZM624.626,259.055L629.166,257.529L624.626,257.529L624.626,259.055ZM629.13,193.471L624.626,191.958L624.626,193.471L629.13,193.471ZM623.183,191.472L617.139,189.441L617.139,193.471L623.183,193.471L623.183,191.472ZM615.696,188.956L609.652,186.925L609.652,193.471L615.696,193.471L615.696,188.956ZM608.209,186.439L602.165,184.408L602.165,193.471L608.209,193.471L608.209,186.439ZM600.722,183.923L594.678,181.891L594.678,193.471L600.722,193.471L600.722,183.923ZM593.234,181.406L587.191,179.375L587.191,193.471L593.234,193.471L593.234,181.406ZM585.747,178.89L579.704,176.858L579.704,193.471L585.747,193.471L585.747,178.89ZM578.26,176.373L572.217,174.342L572.217,193.471L578.26,193.471L578.26,176.373ZM570.773,173.856L564.73,171.825L564.73,193.471L570.773,193.471L570.773,173.856ZM563.286,171.34L557.243,169.309L557.243,193.471L563.286,193.471L563.286,171.34ZM555.799,168.823L549.756,166.792L549.756,193.471L555.799,193.471L555.799,168.823ZM548.312,166.307L542.269,164.275L542.269,193.471L548.312,193.471L548.312,166.307ZM540.825,163.79L534.782,161.759L534.782,193.471L540.825,193.471L540.825,163.79ZM533.338,161.281C531.335,160.631 529.32,160.031 527.295,159.48L527.295,193.471L533.338,193.471L533.338,161.281ZM525.851,159.096C523.845,158.575 521.83,158.102 519.808,157.677L519.808,193.471L525.851,193.471L525.851,159.096ZM518.364,157.383C516.356,156.985 514.341,156.634 512.321,156.331L512.321,193.471L518.364,193.471L518.364,157.383ZM510.877,156.123C508.867,155.844 506.852,155.613 504.834,155.428L504.834,193.471L510.877,193.471L510.877,156.123ZM503.39,155.304C501.378,155.142 499.363,155.027 497.347,154.958L497.347,193.471L503.39,193.471L503.39,155.304ZM495.903,154.917C493.889,154.87 491.874,154.87 489.86,154.917L489.86,193.471L495.903,193.471L495.903,154.917ZM488.416,154.958C486.4,155.027 484.385,155.142 482.373,155.304L482.373,193.471L488.416,193.471L488.416,154.958ZM480.929,155.428C478.911,155.613 476.896,155.844 474.885,156.123L474.885,193.471L480.929,193.471L480.929,155.428ZM473.442,156.331C471.421,156.634 469.406,156.985 467.398,157.383L467.398,193.471L473.442,193.471L473.442,156.331ZM465.955,157.677C463.932,158.102 461.917,158.575 459.911,159.096L459.911,193.471L465.955,193.471L465.955,157.677ZM458.468,159.48C456.443,160.031 454.428,160.631 452.424,161.281L452.424,193.471L458.468,193.471L458.468,159.48ZM450.981,161.759L444.937,163.79L444.937,193.471L450.981,193.471L450.981,161.759ZM443.494,164.275L437.45,166.307L437.45,193.471L443.494,193.471L443.494,164.275ZM436.007,166.792L429.963,168.823L429.963,193.471L436.007,193.471L436.007,166.792ZM428.52,169.309L422.476,171.34L422.476,193.471L428.52,193.471L428.52,169.309ZM421.032,171.825L414.989,173.856L414.989,193.471L421.032,193.471L421.032,171.825ZM413.545,174.342L407.502,176.373L407.502,193.471L413.545,193.471L413.545,174.342ZM406.058,176.858L400.015,178.89L400.015,193.471L406.058,193.471L406.058,176.858ZM398.571,179.375L392.528,181.406L392.528,193.471L398.571,193.471L398.571,179.375ZM391.084,181.891L385.041,183.923L385.041,193.471L391.084,193.471L391.084,181.891ZM383.597,184.408L377.554,186.439L377.554,193.471L383.597,193.471L383.597,184.408ZM376.11,186.925L370.067,188.956L370.067,193.471L376.11,193.471L376.11,186.925ZM368.623,189.441L362.58,191.472L362.58,193.471L368.623,193.471L368.623,189.441ZM361.136,191.958L356.632,193.471L361.136,193.471L361.136,191.958ZM412.499,208L422.349,208C433.049,208 438.949,213.5 438.949,220.7C438.949,228.1 433.749,232.1 423.749,232.1L419.799,232.1C418.949,232.1 418.799,232.15 418.799,233.1L418.799,235.2C418.799,241.05 421.849,239.65 421.849,241.8C421.849,242.7 421.149,243 419.199,243L412.499,243C410.649,243 409.849,242.7 409.849,241.8C409.849,239.65 412.999,241.05 412.999,235.2L412.999,215.65C412.999,209.65 409.849,211.45 409.849,209.2C409.849,208.2 410.649,208 412.499,208ZM423.499,229.5C429.049,229.5 432.849,227.25 432.849,221.55C432.849,214.95 428.299,210.6 422.249,210.6C419.149,210.6 418.799,210.9 418.799,211.95L418.799,227.95C418.799,229 419.499,229.5 423.499,229.5ZM402.249,214.1L402.949,236.2C403.099,240.5 406.049,239.5 406.049,241.75C406.049,242.7 405.349,243 403.599,243L397.049,243C395.199,243 394.399,242.7 394.399,241.75C394.399,239.65 397.299,240.35 397.199,236.2L396.749,215.4L385.599,239.65C385.249,240.3 384.899,240.65 383.999,240.85C382.999,241.1 382.499,240.75 382.249,240.2L371.999,215.75L371.299,236.85C371.149,240.6 373.749,240.1 373.749,241.8C373.749,242.75 373.049,243 371.499,243L367.599,243C366.049,243 365.299,242.7 365.299,241.8C365.299,240.15 368.099,240.6 368.249,236.85L369.199,214.1C369.349,210.65 366.599,210.85 366.599,209.15C366.599,208.3 367.149,208 368.749,208L373.649,208C374.449,208 374.949,208.35 375.299,209.1L385.399,233.05L396.399,209.1C396.749,208.35 397.249,208 398.049,208L402.649,208C404.249,208 404.849,208.3 404.849,209.15C404.849,210.95 402.099,210.4 402.249,214.1ZM352.649,235.2L352.649,215.8C352.649,209.95 349.599,211.35 349.599,209.2C349.599,208.3 350.299,208 352.249,208L358.949,208C360.799,208 361.599,208.3 361.599,209.2C361.599,211.35 358.449,209.95 358.449,215.8L358.449,235.2C358.449,241.05 361.499,239.65 361.499,241.8C361.499,242.7 360.799,243 358.849,243L352.149,243C350.299,243 349.499,242.7 349.499,241.8C349.499,239.65 352.649,241.05 352.649,235.2ZM603.949,208L607.849,208C609.399,208 610.149,208.25 610.149,209.2C610.149,210.85 607.449,210.4 607.449,214.15L607.449,241.2C607.449,242.55 606.949,243 605.899,243C604.949,243 604.449,242.35 604.449,241.65C604.449,240.5 604.049,239.55 603.049,238.45L581.549,215.75L581.599,236.85C581.649,240.6 584.349,240.1 584.349,241.8C584.349,242.75 583.599,243 582.049,243L578.149,243C576.599,243 575.899,242.7 575.899,241.8C575.899,240.15 578.549,240.6 578.549,236.85L578.549,215.65C578.549,209.65 575.449,211.45 575.449,209.2C575.449,208.2 576.249,208 578.049,208L581.199,208C582.049,208 582.549,208.35 583.199,209L604.449,231.65L604.399,214.15C604.399,210.4 601.699,210.9 601.699,209.2C601.699,208.25 602.399,208 603.949,208ZM458.449,243.5C448.749,243.5 441.999,236.55 441.999,226.85C441.999,216.15 449.799,207.5 460.549,207.5C470.499,207.5 476.899,214.8 476.899,224.4C476.899,235.3 469.349,243.5 458.449,243.5ZM460.799,240.1C467.799,240.1 471.149,234.25 471.149,227.7C471.149,218.95 466.249,210.6 458.399,210.6C451.399,210.6 447.799,216.65 447.799,222.75C447.799,231.95 452.749,240.1 460.799,240.1ZM547.249,234.2L546.199,236.85C544.649,240.85 547.449,240.15 547.449,241.8C547.449,242.75 546.549,243 545.399,243L541.099,243C539.699,243 538.799,242.75 538.799,241.85C538.799,240.1 541.399,240.85 542.949,236.85L552.149,213.65C553.349,210.65 550.449,210.95 550.449,209.2C550.449,208.4 550.899,208 551.949,208L557.049,208C557.849,208 558.349,208.35 558.649,209.1L569.549,236.75C571.199,240.85 573.249,240.05 573.249,241.75C573.249,242.7 572.549,243 570.699,243L563.749,243C562.349,243 561.549,242.7 561.549,241.85C561.549,240.05 564.749,240.65 563.199,236.75L562.249,234.25C561.649,232.75 561.649,232.75 554.849,232.75C547.799,232.75 547.799,232.75 547.249,234.2ZM554.899,230.1C560.599,230.1 560.599,230.1 560.099,228.8L554.699,215.05L549.349,228.8C548.849,230.1 548.849,230.1 554.899,230.1ZM630.699,213.1L630.699,235.2C630.699,241.05 633.699,239.65 633.699,241.8C633.699,242.7 632.999,243 631.099,243L624.349,243C622.549,243 621.749,242.7 621.749,241.8C621.749,239.65 624.849,241.05 624.849,235.2L624.849,213.15C624.849,211.55 624.199,210.8 622.399,210.8C618.799,210.8 617.949,212.4 616.249,215.65C615.549,217 615.049,217.6 614.349,217.6C613.349,217.6 613.199,216.75 613.249,215.65C613.299,213.05 613.549,211.35 613.949,209.9C614.299,208.6 614.949,208 618.049,208L637.449,207.95C640.599,207.95 641.249,208.55 641.599,209.9C641.999,211.3 642.199,213 642.299,215.6C642.349,216.7 642.149,217.55 641.149,217.55C640.449,217.55 639.999,217 639.299,215.65C637.599,212.4 636.749,210.75 633.149,210.75C631.399,210.75 630.699,211.5 630.699,213.1ZM502.749,228.7L507.449,237.2C509.349,240.6 511.449,239.9 511.449,241.8C511.449,242.7 510.749,243 509.199,243L502.799,243C501.199,243 500.349,242.7 500.349,241.7C500.349,240.2 502.899,240 501.249,237L498.199,231.4C497.299,229.85 496.499,229.55 493.799,229.2C491.099,228.85 489.699,228.7 489.699,230.35L489.699,235.2C489.699,241.05 492.749,239.65 492.749,241.8C492.749,242.7 492.049,243 490.099,243L483.399,243C481.549,243 480.749,242.7 480.749,241.8C480.749,239.65 483.899,241.05 483.899,235.2L483.899,215.65C483.899,209.65 480.749,211.45 480.749,209.2C480.749,208.2 481.549,208 483.399,208L493.399,208C504.299,208 509.399,213.3 509.399,219.15C509.399,223.85 507.049,227.1 502.749,228.7ZM495.899,226.75C500.599,227.05 503.299,224.2 503.299,219.8C503.299,214.8 499.549,210.65 493.249,210.6C490.249,210.6 489.699,210.9 489.699,211.95L489.699,224.3C489.699,226.2 493.699,226.65 495.899,226.75ZM528.599,213.1L528.599,235.2C528.599,241.05 531.599,239.65 531.599,241.8C531.599,242.7 530.899,243 528.999,243L522.249,243C520.449,243 519.649,242.7 519.649,241.8C519.649,239.65 522.749,241.05 522.749,235.2L522.749,213.15C522.749,211.55 522.099,210.8 520.299,210.8C516.699,210.8 515.849,212.4 514.149,215.65C513.449,217 512.949,217.6 512.249,217.6C511.249,217.6 511.099,216.75 511.149,215.65C511.199,213.05 511.449,211.35 511.849,209.9C512.199,208.6 512.849,208 515.949,208L535.349,207.95C538.499,207.95 539.149,208.55 539.499,209.9C539.899,211.3 540.099,213 540.199,215.6C540.249,216.7 540.049,217.55 539.049,217.55C538.349,217.55 537.899,217 537.199,215.65C535.499,212.4 534.649,210.75 531.049,210.75C529.299,210.75 528.599,211.5 528.599,213.1Z" style="fill:rgb(253,104,93);"/>
            </g>
        </g>
    </g>
</svg>
